<?xml version="1.0" standalone="no"?>
<!DOCTYPE svg PUBLIC "-//W3C//DTD SVG 1.1//EN" "http://www.w3.org/Graphics/SVG/1.1/DTD/svg11.dtd" >
<svg>
<metadata>
Created by FontForge 20090914 at Thu Jan 26 14:47:07 2012
 By www-data
Typeface &#194;&#169; The Monotype Corporation plc. Data &#194;&#169; The Monotype Corporation plc / Type Solutions Inc. 1990-91 All Rights Reserved.
</metadata>
<defs>
<font id="CenturySchoolbook-Italic" horiz-adv-x="682" >
  <font-face 
    font-family="Century Schoolbook"
    font-weight="400"
    font-style="italic"
    font-stretch="normal"
    units-per-em="2048"
    panose-1="2 4 6 4 5 5 5 9 3 4"
    ascent="1638"
    descent="-410"
    x-height="954"
    cap-height="1479"
    bbox="-319 -628 2530 2280"
    underline-thickness="102"
    underline-position="-154"
    slope="-15"
    unicode-range="U+0020-U+F108"
  />
<missing-glyph horiz-adv-x="1536" 
d="M256 0v1280h1024v-1280h-1024zM288 32h960v1216h-960v-1216z" />
    <glyph glyph-name=".notdef" horiz-adv-x="1536" 
d="M256 0v1280h1024v-1280h-1024zM288 32h960v1216h-960v-1216z" />
    <glyph glyph-name="space" unicode=" " horiz-adv-x="569" 
 />
    <glyph glyph-name="exclam" unicode="!" 
d="M368 389l-65 -0.000976562c86.667 331.333 146 612 178 842c13.333 96.667 25.666 160.667 36.999 192s27.5 54.833 48.5 70.5s43.167 23.5 66.5 23.5c28.667 0 53.334 -10.833 74.001 -32.5s31 -48.834 31 -81.501c0 -18.667 -5.66699 -46 -17 -82s-42 -110 -92 -222
c-52.667 -117.333 -91 -208.666 -115 -273.999c-37.333 -101.333 -86 -246.666 -146 -435.999zM256 218.999c33.333 0 62 -12 86 -36s36 -53.333 36 -88c0 -34 -12 -63.167 -36 -87.5s-52.667 -36.5 -86 -36.5s-62 12.167 -86 36.5s-36 53.5 -36 87.5c0 34.667 12 64 36 88
s52.667 36 86 36z" />
    <glyph glyph-name="quotedbl" unicode="&#x22;" horiz-adv-x="819" 
d="M318 820l37 356c9.33301 90 27.5 152 54.5 186s60.167 51 99.5 51c24 0 43 -6.5 57 -19.5s21 -29.5 21 -49.5c0 -17.333 -2.66699 -34.333 -8 -51c-8 -24.667 -25.667 -65.667 -53 -123l-164 -350h-44zM690 820l36.001 356c9.33301 90 27.5 152 54.5 186
s60.5 51 100.5 51c23.333 0 42.166 -6.5 56.499 -19.5s21.5 -29.5 21.5 -49.5c0 -17.333 -2.66699 -34.333 -8 -51c-8 -25.333 -25.667 -66.333 -53 -123l-164 -350h-44z" />
    <glyph glyph-name="numbersign" unicode="#" horiz-adv-x="1241" 
d="M490 1052l88 427h124l-88 -427h352l90 427h123l-87 -427h197v-125h-223l-76 -376h299v-124h-323l-88 -427h-125l87 427h-350l-89 -427h-126l87 427h-199v124h225l77 376h-302v125h327zM942 927h-353l-77 -376h353z" />
    <glyph glyph-name="dollar" unicode="$" horiz-adv-x="1139" 
d="M867 1517l74.998 -0.00488281l-31 -113c76.667 -23.333 134.667 -58.166 174 -104.499s59 -98.5 59 -156.5c0 -44 -10.167 -78.667 -30.5 -104s-45.5 -38 -75.5 -38c-26 0 -47.167 8.33301 -63.5 25s-24.5 38 -24.5 64c0 28 13 57.333 39 88c20.667 24 31 42.333 31 55
c0 16.667 -10.333 34.5 -31 53.5s-53 34.5 -97 46.5l-144 -528c104 -102.667 170.667 -182.167 200 -238.5s44 -117.166 44 -182.499c0 -117.333 -42.833 -215.333 -128.5 -294s-198.167 -119 -337.5 -121l-64 -240h-76l67 251c-94 24.667 -167 66.167 -219 124.5
s-78 119.5 -78 183.5c0 50 13.833 92 41.5 126s58.834 51 93.501 51c29.333 0 54.333 -10.333 75 -31s31 -46.667 31 -78c0 -21.333 -4.66699 -39.5 -14 -54.5s-27.666 -30.833 -54.999 -47.5c-31.333 -19.333 -47 -38.666 -47 -57.999
c0 -23.333 16.833 -49.666 50.5 -78.999s80.167 -50.666 139.5 -63.999l163 599c-78.667 74 -133.167 140.667 -163.5 200s-45.5 119.333 -45.5 180c0 111.333 37.833 203 113.5 275s176.5 108 302.5 108zM693.998 857.995l125 483
c-86.667 -0.666992 -153.5 -22.667 -200.5 -66s-70.5 -98 -70.5 -164c0 -36 9.16699 -71.5 27.5 -106.5s57.833 -83.833 118.5 -146.5zM693.998 596.995l-148 -553.001c92.667 2 167.667 29 225 81s86 113.667 86 185c0 45.333 -11.333 89.833 -34 133.5
s-65.667 94.834 -129 153.501z" />
    <glyph glyph-name="percent" unicode="%" horiz-adv-x="1706" 
d="M613 1413c56.667 0 103 -21.667 139 -65s54 -102.666 54 -177.999c0 -111.333 -33 -220.333 -99 -327s-151 -160 -255 -160c-58 0 -105.667 21.5 -143 64.5s-56 101.167 -56 174.5c0 88 18.333 172.667 55 254s82.167 141.166 136.5 179.499s110.5 57.5 168.5 57.5z
M604 1372c-28.667 0 -54.6689 -11.667 -78.002 -35c-34 -34.667 -66.333 -105.834 -97 -213.501s-46 -204.167 -46 -289.5c0 -41.333 5.83301 -70.166 17.5 -86.499s27.834 -24.5 48.501 -24.5c28.667 0 57.667 14.667 87 44s58.333 92.333 87 189
c39.333 134 59 236.667 59 308c0 36 -7.16699 63 -21.5 81s-33.166 27 -56.499 27zM1374 1394h87l-956 -1394h-85zM1456 701c56.667 0 102.833 -21.499 138.5 -64.499s53.5 -102.167 53.5 -177.5c0 -112 -32.833 -221.333 -98.5 -328s-150.5 -160 -254.5 -160
c-58 0 -105.833 21.5 -143.5 64.5s-56.5 101.167 -56.5 174.5c0 88 18.5 172.667 55.5 254s82.667 141.166 137 179.499s110.5 57.5 168.5 57.5zM1446 661.001c-28 0 -53.667 -12.001 -77 -36.001c-34 -34 -66.5 -105 -97.5 -213s-46.5 -204.333 -46.5 -289
c0 -41.333 5.83301 -70.166 17.5 -86.499s28.167 -24.5 49.5 -24.5c28.667 0 57.667 14.5 87 43.5s58 92.167 86 189.5c40 134 60 236.667 60 308c0 36 -7.33301 63 -22 81s-33.667 27 -57 27z" />
    <glyph glyph-name="ampersand" unicode="&#x26;" horiz-adv-x="1745" 
d="M875 861c16 -78.667 36.835 -157.499 62.502 -236.499s52.167 -148.5 79.5 -208.5c17.333 -38.667 43 -83.334 77 -134.001c84 77.333 151 155.666 201 234.999c29.333 46 44 86.333 44 121c0 28.667 -13.333 52.834 -40 72.501s-68.667 29.5 -126 29.5h-34l19 71h516
v-71h-41c-20.667 0 -42.334 -5.66699 -65.001 -17s-48.667 -33 -78 -65c-20 -22 -58.333 -74.333 -115 -157c-42.667 -64 -81.167 -115.5 -115.5 -154.5s-76.5 -80.5 -126.5 -124.5c64 -77.333 128.667 -116 194 -116c87.333 0 176.666 66.333 267.999 199l51 -42
c-62.667 -106.667 -126.5 -182 -191.5 -226s-135.167 -66 -210.5 -66c-104.667 0 -195.667 44 -273 132c-131.333 -88 -268 -132 -410 -132c-124 0 -224.167 36.5 -300.5 109.5s-114.5 163.833 -114.5 272.5c0 71.333 16.5 139 49.5 203s81.333 119.333 145 166
s168.167 95.667 313.5 147c-17.333 80 -26 147 -26 201c0 88.667 17.5 166.5 52.5 233.5s84.667 119.333 149 157s133.833 56.5 208.5 56.5c84.667 0 156 -27.5 214 -82.5s87 -119.167 87 -192.5c0 -62.667 -26.667 -125.5 -80 -188.5s-181.333 -127.167 -384 -192.5z
M860.002 929.001c223.333 66.667 335 175.667 335 327c0 56.667 -15.833 102.167 -47.5 136.5s-71.167 51.5 -118.5 51.5c-56.667 0 -104.167 -25.167 -142.5 -75.5s-57.5 -123.166 -57.5 -218.499c0 -54.667 10.333 -128.334 31 -221.001zM671.002 793.001
c-103.333 -48 -177.501 -104.833 -222.501 -170.5s-67.5 -140.834 -67.5 -225.501c0 -88.667 29 -163.667 87 -225s128.333 -92 211 -92c81.333 0 164 26.667 248 80c-54.667 80.667 -101.167 167.334 -139.5 260.001s-77.166 217 -116.499 373z" />
    <glyph glyph-name="quotesingle" unicode="'" horiz-adv-x="569" 
d="M373 820l34.999 343c10 97.333 27.833 163.333 53.5 198s58.834 52 99.501 52c26 0 46.167 -6.33301 60.5 -19s21.5 -29.334 21.5 -50.001c0 -29.333 -17 -79.666 -51 -150.999l-175 -373h-44z" />
    <glyph glyph-name="parenleft" unicode="(" 
d="M414 -399c-100.667 113.333 -174.833 233.669 -222.5 361.002s-71.5 265.333 -71.5 414c0 215.333 58.333 419.666 175 612.999s298.667 369.333 546 528h82c-208.667 -170.667 -365.167 -362.334 -469.5 -575.001s-156.5 -437.667 -156.5 -675c0 -240 57 -462 171 -666
h-54z" />
    <glyph glyph-name="parenright" unicode=")" 
d="M300 1517h65.001c194.667 -217.333 292 -480.333 292 -789c0 -136.667 -24.833 -269.667 -74.5 -399s-125.334 -254.5 -227.001 -375.5s-237.167 -238.5 -406.5 -352.5h-87c204.667 164.667 358.667 353.5 462 566.5s155 444.833 155 695.5
c0 241.333 -59.667 459.333 -179 654z" />
    <glyph glyph-name="asterisk" unicode="*" horiz-adv-x="1024" 
d="M564 1118c24.667 7.33301 47.334 16.667 68.001 28c15.333 8.66699 42.666 29 81.999 61c40.667 34 70 55.167 88 63.5s35.667 12.5 53 12.5c28 0 51.5 -9.16699 70.5 -27.5s28.5 -41.166 28.5 -68.499c0 -30 -11.5 -54.333 -34.5 -73s-58.5 -28 -106.5 -28l-38 1l-66 3
c-42.667 0 -86.334 -7.33301 -131.001 -22c34.667 -41.333 82.667 -81.333 144 -120c40.667 -25.333 67.167 -46.833 79.5 -64.5s18.5 -37.5 18.5 -59.5c0 -27.333 -9.33301 -50.5 -28 -69.5s-40.334 -28.5 -65.001 -28.5c-26.667 0 -49.667 9 -69 27
s-35.333 51.333 -48 100c-14 56 -26.333 96.667 -37 122c-8 19.333 -19.333 39.333 -34 60c-14.667 -20 -26.667 -40.333 -36 -61c-6.66699 -15.333 -16.667 -48.333 -30 -99c-16.667 -60.667 -30.667 -98 -42 -112c-18.667 -24 -45 -36 -79 -36
c-29.333 0 -53.166 8.5 -71.499 25.5s-27.5 38.5 -27.5 64.5c0 46 31.667 89.667 95 131c46.667 30.667 75.667 50.667 87 60c15.333 13.333 35 33.333 59 60c-35.333 14 -76 21 -122 21l-47 -2l-50 -2c-52 0 -90.167 9.5 -114.5 28.5s-36.5 45.167 -36.5 78.5
c0 25.333 8.83301 46.666 26.5 63.999s39.834 26 66.501 26c39.333 0 88 -24.667 146 -74c31.333 -26.667 57.666 -46.334 78.999 -59.001c15.333 -9.33301 38.666 -19.666 69.999 -30.999l1 31c0 31.333 -8.66699 70 -26 116c-28.667 74.667 -43 122.667 -43 144
c0 30.667 9.33301 56.334 28 77.001s41 31 67 31c26.667 0 49.334 -9.66699 68.001 -29s28 -43 28 -71c0 -18.667 -13.333 -65.334 -40 -140.001c-17.333 -48.667 -27.666 -101.667 -30.999 -159z" />
    <glyph glyph-name="plus" unicode="+" horiz-adv-x="1241" 
d="M165 759h485v486h134v-486h485v-133h-485v-482h-134v482h-485v133z" />
    <glyph glyph-name="comma" unicode="," horiz-adv-x="569" 
d="M46 -310l-31 57.002c77.333 35.333 136.333 74.666 177 117.999c31.333 33.333 47 62.333 47 87c0 14 -10.333 22 -31 24c-62.667 5.33301 -94 40.666 -94 105.999c0 37.333 11.667 68 35 92s52.333 36 87 36c36.667 0 67.5 -14.167 92.5 -42.5s37.5 -65.5 37.5 -111.5
c0 -71.333 -25.667 -139 -77 -203s-132.333 -118.333 -243 -163z" />
    <glyph glyph-name="hyphen" unicode="-" 
d="M171 542h405l-43 -152h-405z" />
    <glyph glyph-name="hyphen" unicode="&#xad;" 
d="M171 542h405l-43 -152h-405z" />
    <glyph glyph-name="period" unicode="." horiz-adv-x="569" 
d="M231 218c33.333 0 62 -12 86 -36s36 -53 36 -87c0 -34.667 -12 -64 -36 -88s-52.667 -36 -86 -36c-34 0 -62.833 12 -86.5 36s-35.5 53.333 -35.5 88c0 34 11.833 63 35.5 87s52.5 36 86.5 36z" />
    <glyph glyph-name="slash" unicode="/" horiz-adv-x="1241" 
d="M1145 1442l-777 -1474h-134l777 1474h134z" />
    <glyph glyph-name="zero" unicode="0" horiz-adv-x="1139" 
d="M822 1413c64.667 0 122.332 -16.8311 172.999 -50.498s90.667 -84.834 120 -153.501s44 -154.334 44 -257.001c0 -160.667 -38.333 -325.5 -115 -494.5s-164.5 -292.333 -263.5 -370s-193.833 -116.5 -284.5 -116.5c-94.667 0 -172 37.333 -232 112s-90 186.667 -90 336
c0 180 47.333 366 142 558c67.333 136.667 143.833 243.5 229.5 320.5s177.834 115.5 276.501 115.5zM821.998 1343c-72.667 0 -132.667 -29.333 -180 -88c-62.667 -77.333 -130.5 -241.5 -203.5 -492.5s-109.5 -423.5 -109.5 -517.5c0 -66 15.167 -116.333 45.5 -151
s71.833 -52 124.5 -52c58 0 112.333 20.167 163 60.5s95 110.5 133 210.5c48.667 130.667 99 295.667 151 495c38.667 150 58 260.333 58 331c0 62 -16.667 111.5 -50 148.5s-77.333 55.5 -132 55.5z" />
    <glyph glyph-name="one" unicode="1" horiz-adv-x="1139" 
d="M908 1414h58l-333 -1244c-2 -8 -3 -16 -3 -24c0 -22 8.33301 -39.333 25 -52s41 -19 73 -19h132l-21 -75h-641l22 75h67c102 0 162.333 35.667 181 107l254 941c1.33301 7.33301 2 14.333 2 21c0 20 -9.16699 36.333 -27.5 49s-48.833 19 -91.5 19h-120l19 73
c90 7.33301 166.167 21.333 228.5 42s120.833 49.667 175.5 87z" />
    <glyph glyph-name="two" unicode="2" horiz-adv-x="1139" 
d="M266 157l462.001 0.000976562c43.333 0 79.833 13.5 109.5 40.5s67.167 91.5 112.5 193.5h80l-136 -391h-815l21 75c58 82.667 125.5 161.334 202.5 236.001s193.5 174 349.5 298c107.333 85.333 172.333 139 195 161c47.333 47.333 82.833 98 106.5 152
s35.5 111.667 35.5 173c0 72 -22.167 129.333 -66.5 172s-105.833 64 -184.5 64c-78 0 -143.167 -21.333 -195.5 -64s-78.5 -87.334 -78.5 -134.001c0 -14 4.66699 -26 14 -36c9.33301 -10.667 28.666 -21 57.999 -31c39.333 -14.667 66.166 -31 80.499 -49
s21.5 -41 21.5 -69c0 -32 -10.667 -58.5 -32 -79.5s-49.333 -31.5 -84 -31.5c-46.667 0 -86 18.5 -118 55.5s-48 86.5 -48 148.5c0 103.333 39.167 191.166 117.5 263.499s179.833 108.5 304.5 108.5c126.667 0 227.5 -32.833 302.5 -98.5s112.5 -149.167 112.5 -250.5
c0 -54 -12.167 -106.667 -36.5 -158s-63.5 -102 -117.5 -152s-145.667 -114.667 -275 -194c-137.333 -84 -238.666 -153.167 -303.999 -207.5s-130 -119.5 -194 -195.5z" />
    <glyph glyph-name="three" unicode="3" horiz-adv-x="1139" 
d="M749 710c88.667 -34 155.167 -78.166 199.5 -132.499s66.5 -119.166 66.5 -194.499c0 -107.333 -47.5 -202.833 -142.5 -286.5s-208.833 -125.5 -341.5 -125.5c-78 0 -148.167 15 -210.5 45s-109.833 70.833 -142.5 122.5s-49 106.5 -49 164.5
c0 53.333 13.833 96.166 41.5 128.499s60.5 48.5 98.5 48.5c33.333 0 61 -10.833 83 -32.5s33 -49.167 33 -82.5c0 -28 -5.33301 -50.667 -16 -68s-33 -36 -67 -56c-20.667 -11.333 -32.334 -19.333 -35.001 -24c-4.66699 -6 -7 -14 -7 -24c0 -32 20.833 -63 62.5 -93
s93.834 -45 156.501 -45c59.333 0 114.833 16.333 166.5 49s94 82 127 148s49.5 134.333 49.5 205c0 63.333 -20.667 115.666 -62 156.999s-94.333 62 -159 62c-17.333 0 -37.333 -1.33301 -60 -4c-24.667 -3.33301 -41.667 -5 -51 -5c-21.333 0 -36.833 3.83301 -46.5 11.5
s-14.5 18.5 -14.5 32.5c0 12.667 5 22.834 15 30.501s26 11.5 48 11.5l34 -2c26 -2 46 -3 60 -3c114.667 0 209 35.333 283 106c73.333 70.667 110 159 110 265c0 69.333 -19 123.166 -57 161.499s-91.333 57.5 -160 57.5c-60 0 -109.667 -12.333 -149 -37
s-59 -46.334 -59 -65.001c0 -10.667 9.33301 -24 28 -40c34 -31.333 51 -64.666 51 -99.999c0 -30.667 -10 -56.167 -30 -76.5s-44.667 -30.5 -74 -30.5c-32.667 0 -60.167 12.667 -82.5 38s-33.5 58.333 -33.5 99c0 72.667 36 138.667 108 198s161 89 267 89
c109.333 0 200 -32 272 -96s108 -140 108 -228c0 -90.667 -34.833 -167.5 -104.5 -230.5s-174.5 -112.5 -314.5 -148.5z" />
    <glyph glyph-name="four" unicode="4" horiz-adv-x="1139" 
d="M1075 1414h85l-266 -957h189l-23 -85h-191l-53 -198c-2.66699 -10 -4 -19.667 -4 -29c0 -22 8 -39.167 24 -51.5s39.667 -18.5 71 -18.5h68l-19 -75h-535l21 75c67.333 2 115.833 12.333 145.5 31s49.167 44.667 58.5 78l52 188h-559l32 107zM907 1110l-631 -653h446z
" />
    <glyph glyph-name="five" unicode="5" horiz-adv-x="1139" 
d="M608 1217l-136 -385.004c81.333 34 154 51 218 51c105.333 0 191.166 -33.667 257.499 -101s99.5 -156.333 99.5 -267c0 -163.333 -56.833 -294.833 -170.5 -394.5s-245.834 -149.5 -396.501 -149.5c-96.667 0 -172.667 25 -228 75s-83 112.667 -83 188
c0 57.333 15.167 103.5 45.5 138.5s67.5 52.5 111.5 52.5c33.333 0 60.833 -11.167 82.5 -33.5s32.5 -50.5 32.5 -84.5c0 -63.333 -35.333 -102.333 -106 -117c-20 -4 -33.167 -9.16699 -39.5 -15.5s-9.5 -15.833 -9.5 -28.5c0 -23.333 13.667 -44 41 -62
c39.333 -25.333 85 -38 137 -38c64.667 0 124.834 19.833 180.501 59.5s105.167 108.5 148.5 206.5s65 190.667 65 278c0 64 -20 115.333 -60 154s-95 58 -165 58c-34 0 -67.167 -5.66699 -99.5 -17s-62.833 -27.666 -91.5 -48.999c-15.333 -11.333 -29 -28.666 -41 -51.999
c-14.667 -28 -31.667 -42 -51 -42c-11.333 0 -20.5 3.16699 -27.5 9.5s-10.5 13.833 -10.5 22.5c0 16.667 11.333 38 34 64c8 8.66699 13.667 16.334 17 23.001l224 625c6 18 16 27 30 27c8.66699 0 24.667 -6.33301 48 -19c30 -16 68.667 -29.667 116 -41
s94.666 -17 141.999 -17c50.667 0 99.834 6.83301 147.501 20.5s84.834 29.834 111.501 48.501c8 4.66699 13.667 7 17 7c7.33301 0 11 -3.66699 11 -11c0 -14 -15 -37.333 -45 -70c-46.667 -50 -99.667 -88.333 -159 -115s-124 -40 -194 -40
c-61.333 0 -129.333 13.667 -204 41z" />
    <glyph glyph-name="six" unicode="6" horiz-adv-x="1139" 
d="M470 709c103.333 90 203.334 134.999 300.001 134.999c82 0 151.167 -31.167 207.5 -93.5s84.5 -143.833 84.5 -244.5c0 -88.667 -24.167 -174.667 -72.5 -258s-113.666 -150.333 -195.999 -201s-162.833 -76 -241.5 -76c-92 0 -171.333 42 -238 126s-100 195 -100 333
c0 164.667 40 329 120 493s177.333 286.667 292 368s229 122 343 122c83.333 0 149.333 -20.5 198 -61.5s73 -90.833 73 -149.5c0 -43.333 -13.167 -78.833 -39.5 -106.5s-58.833 -41.5 -97.5 -41.5c-33.333 0 -61.5 11 -84.5 33s-34.5 48.333 -34.5 79
c0 26.667 9.66699 52.334 29 77.001c18.667 23.333 28 40.666 28 51.999c0 14.667 -5.66699 26.334 -17 35.001s-29.333 13 -54 13c-70.667 0 -137.334 -22.333 -200.001 -67s-120.334 -117.667 -173.001 -219c-30 -58 -72.333 -174 -127 -348zM719.001 748.999
c-90 0 -165.332 -49.832 -225.999 -149.499s-91 -207.167 -91 -322.5c0 -76 15.5 -133.833 46.5 -173.5s70.167 -59.5 117.5 -59.5c45.333 0 88 16.833 128 50.5s77 97.167 111 190.5c44.667 123.333 67 223.666 67 300.999c0 50.667 -13.833 90.5 -41.5 119.5
s-64.834 43.5 -111.501 43.5z" />
    <glyph glyph-name="seven" unicode="7" horiz-adv-x="1139" 
d="M482 1416l56 -0.00195312c31.333 -14.667 63.333 -22 96 -22h644l-13 -61c-144.667 -160 -259.667 -305.333 -345 -436s-151.333 -257.334 -198 -380.001s-79.334 -247.667 -98.001 -375c-10 -67.333 -25.667 -112.666 -47 -135.999s-49.666 -35 -84.999 -35
c-32 0 -57.5 10.333 -76.5 31s-28.5 48.334 -28.5 83.001c0 72 51.333 205.333 154 400c134.667 254.667 314 506.334 538 755.001h-374c-74.667 0 -132.167 -17.833 -172.5 -53.5s-84.833 -119.167 -133.5 -250.5h-82z" />
    <glyph glyph-name="eight" unicode="8" horiz-adv-x="1139" 
d="M836 740c88 -87.333 144.334 -155.5 169.001 -204.5s37 -101.5 37 -157.5c0 -107.333 -44 -199.333 -132 -276c-98.667 -87.333 -214 -131 -346 -131c-118 0 -216.833 32.833 -296.5 98.5s-119.5 139.5 -119.5 221.5c0 50 15.167 102.5 45.5 157.5
s72.833 102.333 127.5 142s141.667 79.5 261 119.5c-105.333 94 -158 200.667 -158 320c0 112.667 40.667 204.667 122 276s181.666 107 300.999 107c104 0 186.333 -27 247 -81s91 -123.333 91 -208c0 -78 -24.833 -147.5 -74.5 -208.5s-141.167 -119.5 -274.5 -175.5z
M775.001 791c197.333 78 296 184 296 318c0 66.667 -22.833 122 -68.5 166s-104.167 66 -175.5 66c-78 0 -143.167 -23 -195.5 -69s-78.5 -100.333 -78.5 -163c0 -42.667 14 -86.667 42 -132s88 -107.333 180 -186zM637.001 661
c-120 -44 -210.168 -100.332 -270.501 -168.999s-90.5 -136.334 -90.5 -203.001c0 -64.667 27.333 -121.667 82 -171s122.334 -74 203.001 -74c91.333 0 167.833 26.833 229.5 80.5s92.5 116.5 92.5 188.5c0 46 -15 93 -45 141s-97 117 -201 207z" />
    <glyph glyph-name="nine" unicode="9" horiz-adv-x="1139" 
d="M918 678c-110 -91.333 -209.333 -137.001 -298 -137.001c-85.333 0 -155.333 33.833 -210 101.5s-82 151.834 -82 252.501c0 128.667 49 243.334 147 344.001c112 116 231.667 174 359 174c97.333 0 178.666 -40.5 243.999 -121.5s98 -194.833 98 -341.5
c0 -164.667 -40 -327.667 -120 -489s-178.333 -283.333 -295 -366s-230.334 -124 -341.001 -124c-82 0 -147.5 20.667 -196.5 62s-73.5 92 -73.5 152c0 44 13 80 39 108s57.667 42 95 42c34.667 0 63.167 -10.833 85.5 -32.5s33.5 -48.5 33.5 -80.5
c0 -15.333 -2.66699 -30 -8 -44c-4 -10 -14.333 -25.667 -31 -47c-12 -14.667 -18 -28.334 -18 -41.001c0 -14 5.83301 -25.167 17.5 -33.5s30.167 -12.5 55.5 -12.5c60.667 0 122.334 19.5 185.001 58.5s118.834 100.5 168.501 184.5s98.167 214.333 145.5 391zM823 1344
c-46.667 0 -89.5 -16.833 -128.5 -50.5s-77.833 -102.667 -116.5 -207s-58 -198.5 -58 -282.5c0 -54 13.667 -95.833 41 -125.5s64.333 -44.5 111 -44.5c86.667 0 161.667 49.5 225 148.5s95 211.833 95 338.5c0 73.333 -15.5 128.833 -46.5 166.5s-71.833 56.5 -122.5 56.5
z" />
    <glyph glyph-name="colon" unicode=":" horiz-adv-x="569" 
d="M389 965c34 0 63 -12 87 -36s36 -53 36 -87c0 -34.667 -12 -64 -36 -88s-52.667 -36 -86 -36c-34 0 -62.833 12 -86.5 36s-35.5 53.333 -35.5 88c0 34 11.833 63 35.5 87s52.167 36 85.5 36zM175 218c33.333 0 62 -12 86 -36s36 -53 36 -87c0 -34.667 -12 -64 -36 -88
s-52.667 -36 -86 -36c-34 0 -62.833 12 -86.5 36s-35.5 53.333 -35.5 88c0 34 11.833 63 35.5 87s52.5 36 86.5 36z" />
    <glyph glyph-name="semicolon" unicode=";" horiz-adv-x="569" 
d="M450 965c33.333 0 62 -12 86 -36s36 -53 36 -87c0 -34.667 -12 -64 -36 -88s-52.667 -36 -86 -36c-34 0 -62.833 12 -86.5 36s-35.5 53.333 -35.5 88c0 34 11.833 63 35.5 87s52.5 36 86.5 36zM30 -310l-31.999 56c75.333 34 134.666 73.667 177.999 119
c32.667 34.667 49 63.334 49 86.001c0 13.333 -11.333 21 -34 23c-30 2.66699 -53.167 13.667 -69.5 33s-24.5 44.333 -24.5 75c0 36.667 12.167 67.167 36.5 91.5s53.5 36.5 87.5 36.5c37.333 0 68 -14 92 -42s36 -66.667 36 -116c0 -70.667 -26 -137.834 -78 -201.501
s-132.333 -117.167 -241 -160.5z" />
    <glyph glyph-name="semicolon" unicode="&#x37e;" horiz-adv-x="569" 
d="M450 965c33.333 0 62 -12 86 -36s36 -53 36 -87c0 -34.667 -12 -64 -36 -88s-52.667 -36 -86 -36c-34 0 -62.833 12 -86.5 36s-35.5 53.333 -35.5 88c0 34 11.833 63 35.5 87s52.5 36 86.5 36zM30 -310l-31.999 56c75.333 34 134.666 73.667 177.999 119
c32.667 34.667 49 63.334 49 86.001c0 13.333 -11.333 21 -34 23c-30 2.66699 -53.167 13.667 -69.5 33s-24.5 44.333 -24.5 75c0 36.667 12.167 67.167 36.5 91.5s53.5 36.5 87.5 36.5c37.333 0 68 -14 92 -42s36 -66.667 36 -116c0 -70.667 -26 -137.834 -78 -201.501
s-132.333 -117.167 -241 -160.5z" />
    <glyph glyph-name="less" unicode="&#x3c;" horiz-adv-x="1241" 
d="M1268 170l-1101 464v120l1101 463v-144l-922 -378l922 -380v-145z" />
    <glyph glyph-name="equal" unicode="=" horiz-adv-x="1241" 
d="M165 1001h1104v-134h-1104v134zM165 526h1104v-133h-1104v133z" />
    <glyph glyph-name="greater" unicode="&#x3e;" horiz-adv-x="1241" 
d="M167 1217l1101 -464v-120l-1101 -463v144l922 379l-922 380v144z" />
    <glyph glyph-name="question" unicode="?" horiz-adv-x="909" 
d="M620 643l52.9971 -31.001c-52.667 -146.667 -130 -220 -232 -220c-52.667 0 -95.667 18.167 -129 54.5s-50 85.833 -50 148.5c0 40 7.83301 79.833 23.5 119.5s40.834 80.667 75.501 123s97.334 101.833 188.001 178.5c96 81.333 154.167 137.333 174.5 168
s30.5 64.334 30.5 101.001c0 45.333 -16.167 83.833 -48.5 115.5s-72.833 47.5 -121.5 47.5c-74.667 0 -140 -29.5 -196 -88.5s-84 -130.833 -84 -215.5c0 -23.333 2.66699 -48.333 8 -75l-59 -12c-8.66699 33.333 -13 62.333 -13 87c0 64 16 125.5 48 184.5
s74.833 104.667 128.5 137s110.5 48.5 170.5 48.5c78.667 0 144.334 -26.833 197.001 -80.5s79 -121.5 79 -203.5c0 -48 -8.5 -92.167 -25.5 -132.5s-44 -79.5 -81 -117.5s-99.5 -84.667 -187.5 -140c-82.667 -52 -139.167 -99.5 -169.5 -142.5s-45.5 -85.833 -45.5 -128.5
c0 -32.667 9.83301 -59.667 29.5 -81s42.5 -32 68.5 -32c66.667 0 122.667 62.333 168 187zM354.997 217.999c33.333 0 61.668 -12 85.001 -36s35 -53 35 -87c0 -34.667 -11.833 -64 -35.5 -88s-51.834 -36 -84.501 -36c-33.333 0 -62 12 -86 36s-36 53.333 -36 88
c0 34 11.833 63 35.5 87s52.5 36 86.5 36z" />
    <glyph glyph-name="at" unicode="@" horiz-adv-x="1530" 
d="M1260 1121l-121.004 -411.001l-44 -153c-8.66699 -36.667 -13 -66.334 -13 -89.001s5.83301 -40.167 17.5 -52.5s26.834 -18.5 45.501 -18.5c44.667 0 93.5 21.167 146.5 63.5s98.833 109.333 137.5 201s58 186.834 58 285.501c0 92.667 -23.5 179.834 -70.5 261.501
s-110.167 143.834 -189.5 186.501s-171.666 64 -276.999 64c-130 0 -250.167 -33.333 -360.5 -100s-197.5 -159.5 -261.5 -278.5s-96 -252.167 -96 -399.5c0 -139.333 27.167 -259 81.5 -359s132.833 -179.333 235.5 -238s216.334 -88 341.001 -88
c149.333 0 284.166 41 404.499 123s208.5 193.667 264.5 335h60c-46.667 -152 -137.667 -277 -273 -375s-289.333 -147 -462 -147c-214 0 -391.333 71.167 -532 213.5s-211 322.166 -211 539.499c0 153.333 35.833 294 107.5 422s169.167 228.333 292.5 301
s257.333 109 402 109c122 0 228.5 -24.333 319.5 -73s162 -117.834 213 -207.501s76.5 -190.167 76.5 -301.5c0 -150.667 -43.333 -288.5 -130 -413.5s-198.334 -187.5 -335.001 -187.5c-45.333 0 -79.166 10.333 -101.499 31s-33.5 50 -33.5 88c0 31.333 5.33301 72 16 122
c-79.333 -96.667 -144.666 -161.167 -195.999 -193.5s-97.666 -48.5 -138.999 -48.5c-42 0 -78.167 17.5 -108.5 52.5s-45.5 82.5 -45.5 142.5c0 86.667 26.833 180 80.5 280s118.5 178.167 194.5 234.5s141.333 84.5 196 84.5c39.333 0 71 -9.66699 95 -29
s40.333 -48.666 49 -87.999l28 93zM960.996 1087c-72 0 -146.999 -66.166 -224.999 -198.499s-117 -242.5 -117 -330.5c0 -38.667 9.5 -68.834 28.5 -90.501s42.833 -32.5 71.5 -32.5c36 0 76.667 19 122 57c61.333 52 113.666 123.667 156.999 215s65 175 65 251
c0 42 -9.5 74 -28.5 96s-43.5 33 -73.5 33z" />
    <glyph glyph-name="A" unicode="A" horiz-adv-x="1442" 
d="M961 1479l80.999 0.000976562l180 -1304c4.66699 -34.667 18.5 -60 41.5 -76s58.5 -24 106.5 -24h50l-20 -75h-600l20 75h53c57.333 0 94.833 6 112.5 18s26.5 30.667 26.5 56c0 10 -1 21.667 -3 35l-41 299h-534l-131 -206c-23.333 -36.667 -35 -73.334 -35 -110.001
c0 -29.333 10.833 -52 32.5 -68s56.834 -24 105.501 -24h49l-21 -75h-526l20 75c53.333 4 99.333 19 138 45s78 70.333 118 133zM872.999 1175l-383 -604h466z" />
    <glyph glyph-name="B" unicode="B" horiz-adv-x="1479" 
d="M331 1479h728.001c98.667 0 177.167 -13.333 235.5 -40s102.666 -64.334 132.999 -113.001s45.5 -107.667 45.5 -177c0 -101.333 -35.833 -182.666 -107.5 -243.999s-179.5 -103 -323.5 -125c121.333 -24.667 211.833 -67.5 271.5 -128.5s89.5 -132.833 89.5 -215.5
c0 -121.333 -48 -219 -144 -293c-122.667 -95.333 -275.334 -143 -458.001 -143h-809l22 75h124c48.667 0 79.334 23.667 92.001 71l313 1158c4.66699 16 7 32 7 48c0 18 -6.33301 31.167 -19 39.5s-40 12.5 -82 12.5h-136zM623.001 802l254.001 -0.000976562
c70.667 0 134.667 16.5 192 49.5s101.833 79.333 133.5 139s47.5 125.5 47.5 197.5c0 76.667 -27.667 135.334 -83 176.001c-38 28 -110.667 42 -218 42c-78.667 0 -126.834 -5.66699 -144.501 -17s-33.5 -43.333 -47.5 -96zM603.002 727.999l-154 -573.998
c-2 -7.33301 -3 -14 -3 -20c0 -18.667 7 -32.334 21 -41.001c19.333 -12 49.333 -18 90 -18h206c138 0 244 42.667 318 128c60.667 68.667 91 160.667 91 276c0 75.333 -25.333 135.666 -76 180.999s-120 68 -208 68h-285z" />
    <glyph glyph-name="C" unicode="C" horiz-adv-x="1479" 
d="M1374 1348l104.997 99h67l-108 -541h-64c-0.666992 111.333 -10.334 198.666 -29.001 261.999c-25.333 88.667 -66.166 156.834 -122.499 204.501s-125.166 71.5 -206.499 71.5c-101.333 0 -197.666 -40 -288.999 -120s-166.666 -207.667 -225.999 -383
c-50 -150.667 -75 -297.667 -75 -441c0 -144 36 -254.667 108 -332s168.667 -116 290 -116c105.333 0 201 32.833 287 98.5s155.667 165.5 209 299.5l64 -25c-54 -139.333 -122.667 -244.333 -206 -315c-109.333 -92.667 -241 -139 -395 -139
c-171.333 0 -313.333 56.833 -426 170.5s-169 257.167 -169 430.5c0 162.667 40.667 321 122 475s183 270.5 305 349.5s252 118.5 390 118.5c66.667 0 128.667 -12.5 186 -37.5s118.333 -68.167 183 -129.5z" />
    <glyph glyph-name="D" unicode="D" horiz-adv-x="1593" 
d="M338 1479l666.999 -0.00195312c186.667 0 331.5 -52 434.5 -156s154.5 -250 154.5 -438c0 -124 -22.5 -244.167 -67.5 -360.5s-101.167 -210.166 -168.5 -281.499s-156.833 -129.666 -268.5 -174.999s-224.167 -68 -337.5 -68h-757l20 75h80c44.667 0 77 7.5 97 22.5
s35 41.833 45 80.5l308 1145c1.33301 7.33301 2 15 2 23c0 18 -8.16699 32.167 -24.5 42.5s-47.166 15.5 -92.499 15.5h-110zM715.999 74.998c96.667 0 181.166 17.833 253.499 53.5s137 91 194 166s102.5 173.5 136.5 295.5c45.333 160 68 300 68 420
c0 152 -42 260.333 -126 325c-60.667 47.333 -159.667 71 -297 71c-80 0 -128.333 -4.83301 -145 -14.5s-31 -36.5 -43 -80.5l-307 -1142c-4 -14 -6 -26.667 -6 -38c0 -17.333 6.33301 -31 19 -41s32.334 -15 59.001 -15h194z" />
    <glyph glyph-name="E" unicode="E" horiz-adv-x="1479" 
d="M350 1479l1181 -0.00195312l-114 -477h-71c11.333 64 17 116 17 156c0 84 -22.667 146 -68 186s-117.333 60 -216 60h-205c-28 0 -49.333 -7.16699 -64 -21.5s-28.334 -45.5 -41.001 -93.5l-131 -489h104c158 0 263.667 88 317 264h75l-179 -670h-73
c14 61.333 21 106.333 21 135c0 64.667 -16.667 113.834 -50 147.501s-80.333 50.5 -141 50.5h-92l-148 -558c-3.33301 -11.333 -5 -22.333 -5 -33c0 -19.333 5.33301 -33.333 16 -42c16 -12.667 36 -19 60 -19h235c122 0 227.667 33.833 317 101.5
s166.666 180.167 231.999 337.5h72l-157 -514h-1204l9 75h78c68.667 0 109.667 24.667 123 74l311 1159c3.33301 12.667 5 24.667 5 36c0 18.667 -7.83301 33.334 -23.5 44.001s-44.834 16 -87.501 16h-123z" />
    <glyph glyph-name="F" unicode="F" horiz-adv-x="1366" 
d="M330 1479l1217 0.000976562l-85 -475h-70c4.66699 46 7 81.667 7 107c0 100.667 -24.167 174.667 -72.5 222s-122.5 71 -222.5 71h-247c-28 0 -48.5 -5.33301 -61.5 -16s-23.167 -29.667 -30.5 -57l-141 -528h141c87.333 0 157.833 20.5 211.5 61.5
s96.167 110.833 127.5 209.5h74l-180 -677h-72c14 53.333 21 98.666 21 135.999c0 64.667 -16.333 114 -49 148s-77 51 -133 51h-161l-152 -582c-1.33301 -5.33301 -2 -11.333 -2 -18c0 -17.333 6 -30.333 18 -39c18 -12 42.667 -18 74 -18h164l-19 -75h-685l15 75h94
c40 0 68.667 7.33301 86 22s32.666 47.667 45.999 99l299 1110c4.66699 16 7 31.667 7 47c0 18 -6.16699 31 -18.5 39s-38.5 12 -78.5 12h-141z" />
    <glyph glyph-name="G" unicode="G" horiz-adv-x="1593" 
d="M1395 1357l88.002 103h68l-87 -524h-69c-3.33301 166.667 -40.5 292.667 -111.5 378s-163.167 128 -276.5 128c-107.333 0 -208.833 -42.833 -304.5 -128.5s-173.834 -221.5 -234.501 -407.5c-50 -154.667 -75 -299.334 -75 -434.001c0 -138 32.667 -243.5 98 -316.5
s153 -109.5 263 -109.5c62.667 0 117.667 10 165 30s89.666 51.667 126.999 95s61.666 85.666 72.999 126.999l58 213l10 30l1 15c0 17.333 -7.16699 31.5 -21.5 42.5s-36.166 16.5 -65.499 16.5h-102l18 72h542l-8 -72h-55c-54 0 -87.667 -25.333 -101 -76l-142 -539h-65
l-11 170c-74.667 -70.667 -149.667 -121.5 -225 -152.5s-156.333 -46.5 -243 -46.5c-160.667 0 -292.667 54 -396 162s-155 249.667 -155 425c0 160.667 42.667 317.834 128 471.501s194 273.334 326 359.001s267.667 128.5 407 128.5c71.333 0 135.833 -11.833 193.5 -35.5
s118.5 -65.167 182.5 -124.5z" />
    <glyph glyph-name="H" unicode="H" horiz-adv-x="1706" 
d="M376 1479l633.998 -0.00390625l-16 -75h-88c-40.667 0 -70.5 -7.16699 -89.5 -21.5s-33.5 -40.166 -43.5 -77.499l-134 -491h651l135 503c2.66699 10 4 19.667 4 29c0 17.333 -8.83301 31.333 -26.5 42s-50.167 16 -97.5 16h-92l19 75h632l-13 -75h-80
c-39.333 0 -68.833 -7.16699 -88.5 -21.5s-34.167 -38.166 -43.5 -71.499l-305 -1141c-3.33301 -12 -5 -23.667 -5 -35c0 -19.333 8.16699 -34.166 24.5 -44.499s47.833 -15.5 94.5 -15.5h71l-17 -75h-615l19 75h73c42 0 73.5 7.33301 94.5 22s36.167 39 45.5 73l146 549
h-649l-151 -556c-3.33301 -12.667 -5 -22 -5 -28c0 -17.333 8.66699 -31.666 26 -42.999s49.333 -17 96 -17h103l-17 -75h-623l20 75h48c74.667 0 118.334 23.667 131.001 71l310 1150c6 22 9 38.333 9 49c0 18.667 -8.16699 33.167 -24.5 43.5s-46.166 15.5 -89.499 15.5
h-90z" />
    <glyph glyph-name="I" unicode="I" horiz-adv-x="834" 
d="M347 1479l668.999 -0.000976562l-15 -75h-102c-34 0 -60 -7.16699 -78 -21.5s-31.333 -38.5 -40 -72.5l-302 -1127c-2.66699 -11.333 -4 -25.666 -4 -42.999c0 -21.333 7.83301 -37.5 23.5 -48.5s43.834 -16.5 84.501 -16.5h124l-17 -75h-682l19 75h96
c78 0 124 26 138 78l307 1169c2.66699 8.66699 4 17 4 25c0 18 -7 32 -21 42s-38 15 -72 15h-148z" />
    <glyph glyph-name="J" unicode="J" horiz-adv-x="1251" 
d="M773 1479l638.999 -0.000976562l-13 -75h-81c-58.667 0 -95 -26 -109 -78l-241 -902c-43.333 -161.333 -102.666 -274.666 -177.999 -339.999c-92 -79.333 -213.667 -119 -365 -119c-120 0 -213.167 29.167 -279.5 87.5s-99.5 134.833 -99.5 229.5
c0 92.667 23.333 166.5 70 221.5s103.667 82.5 171 82.5c47.333 0 85.833 -13.667 115.5 -41s44.5 -61 44.5 -101c0 -37.333 -11.833 -68 -35.5 -92s-54.167 -36 -91.5 -36c-28 0 -59 10 -93 30c-21.333 12 -37 18 -47 18c-15.333 0 -28.833 -8.83301 -40.5 -26.5
s-17.5 -44.5 -17.5 -80.5c0 -58.667 24.333 -108.334 73 -149.001s112.667 -61 192 -61c88 0 160.833 25.833 218.5 77.5s100.167 128.834 127.5 231.501l257 956c2.66699 10 4 20 4 30c0 20.667 -7.33301 36.167 -22 46.5s-41 15.5 -79 15.5h-139z" />
    <glyph glyph-name="K" unicode="K" horiz-adv-x="1518" 
d="M331 1479l628.001 0.00292969l-17 -75h-106c-62.667 0 -100.667 -25 -114 -75l-173 -636l674 552c37.333 31.333 56 58.333 56 81c0 23.333 -9.16699 42.166 -27.5 56.499s-46.833 21.5 -85.5 21.5h-59l17 75h596l-17 -75c-62 0 -112.333 -7.5 -151 -22.5
s-87.667 -46.833 -147 -95.5l-494 -408l343 -728c24 -50 78.333 -75 163 -75h80l-17 -75h-673l19 75h85c44 0 74.5 5.16699 91.5 15.5s25.5 23.166 25.5 38.499c0 14.667 -5.33301 33 -16 55l-265 560l-233 -191l-109 -403c-2 -6 -3 -12.333 -3 -19
c0 -16.667 6 -29.334 18 -38.001c17.333 -12 39.666 -18 66.999 -18h148l-15 -75h-654l19 75h90c61.333 0 99 25 113 75l320 1179c1.33301 6 2 12.333 2 19c0 16.667 -8 30.167 -24 40.5s-43 15.5 -81 15.5h-94z" />
    <glyph glyph-name="L" unicode="L" horiz-adv-x="1366" 
d="M339 1479h704.001l-17 -75h-123c-44 0 -75.167 -6.5 -93.5 -19.5s-32.5 -38.167 -42.5 -75.5l-302 -1137c-4 -15.333 -6 -28 -6 -38c0 -18.667 6.66699 -33.167 20 -43.5s35.333 -15.5 66 -15.5h194c104 0 199 32.5 285 97.5s167.333 176.167 244 333.5h64l-145 -506
h-1140l11 75h64c68 0 109.333 28 124 84l306 1150c3.33301 12.667 5 25 5 37c0 18.667 -7.83301 33 -23.5 43s-43.834 15 -84.501 15h-132z" />
    <glyph glyph-name="M" unicode="M" horiz-adv-x="1933" 
d="M360 1479l499.001 0.000976562l111 -1133l711 1133h457l-17 -75h-70c-42.667 0 -73.834 -6.33301 -93.501 -19s-32.834 -31.334 -39.501 -56.001l-315 -1179c-2 -6 -3 -12 -3 -18c0 -16.667 7.33301 -29.667 22 -39c18.667 -12 47.667 -18 87 -18h113l-18 -75h-651l17 75
h98c40 0 69.5 6.83301 88.5 20.5s32.833 36.834 41.5 69.501l324 1211l-863 -1376h-54l-140 1376l-277 -1030c-14.667 -54.667 -22 -94.334 -22 -119.001c0 -31.333 7.33301 -58.166 22 -80.499s36.167 -39.833 64.5 -52.5s69.5 -19 123.5 -19l-20 -75h-556l19 75
c64.667 2.66699 119.834 23 165.501 61s76.167 85.667 91.5 143l280 1050c1.33301 6 2 12 2 18c0 17.333 -7.66699 31.166 -23 41.499s-43 15.5 -83 15.5h-113z" />
    <glyph glyph-name="N" unicode="N" horiz-adv-x="1669" 
d="M350 1479l419.001 0.000976562l515 -1135l229 869c4.66699 16.667 7 33.334 7 50.001c0 44.667 -13.833 79.334 -41.5 104.001s-68.5 37 -122.5 37h-42l17 75h517l-18 -75c-114 -6 -186 -64.333 -216 -175l-330 -1229h-67l-581 1273l-254 -958
c-12 -44 -18 -76.667 -18 -98c0 -30.667 6.66699 -56.334 20 -77.001s31 -35 53 -43c41.333 -14.667 82.666 -22 123.999 -22h34l-18 -75h-559l19 75c77.333 10 131 29.167 161 57.5s57.667 89.166 83 182.499l267 987c2 6 3 11.667 3 17c0 23.333 -11 41.666 -33 54.999
c-32 20 -73.667 30 -125 30h-58z" />
    <glyph glyph-name="O" unicode="O" horiz-adv-x="1593" 
d="M1035 1517c163.333 0 297.831 -54.667 403.498 -164s158.5 -251.666 158.5 -426.999c0 -170 -40.5 -328.833 -121.5 -476.5s-190.5 -264.334 -328.5 -350.001s-279.333 -128.5 -424 -128.5c-159.333 0 -291.666 54.833 -396.999 164.5s-158 251.167 -158 424.5
c0 168 41 327.333 123 478s190.333 268.167 325 352.5s274.334 126.5 419.001 126.5zM1042 1447c-79.333 0 -153.667 -18.5 -223 -55.5s-136 -100.667 -200 -191s-116.833 -206.166 -158.5 -347.499s-62.5 -279.333 -62.5 -414c0 -131.333 29.167 -230.5 87.5 -297.5
s139.166 -100.5 242.499 -100.5c107.333 0 205.833 35 295.5 105s166.834 186.667 231.501 350c78 195.333 117 382.333 117 561c0 125.333 -30 221.666 -90 288.999s-140 101 -240 101z" />
    <glyph glyph-name="P" unicode="P" horiz-adv-x="1366" 
d="M333 1479l570 0.00195312c143.333 0 252.833 -14.333 328.5 -43s133.5 -72 173.5 -130s60 -123.667 60 -197c0 -128 -47 -229.667 -141 -305c-121.333 -97.333 -293.666 -146 -516.999 -146c-52.667 0 -130.334 4 -233.001 12l-137 -509
c-2.66699 -8.66699 -4 -17.334 -4 -26.001c0 -18.667 7.5 -33.334 22.5 -44.001s39.833 -16 74.5 -16h124l-18 -75h-639l18 75h76c68.667 0 109.667 23.667 123 71l316 1170c2 8.66699 3 17.667 3 27c0 20 -7.5 35.167 -22.5 45.5s-43.5 15.5 -85.5 15.5h-111zM592 743.002
c71.333 -8.66699 132.333 -13 183 -13c154 0 268 36 342 108c82.667 81.333 124 190.333 124 327c0 80 -24.667 139.833 -74 179.5s-136.333 59.5 -261 59.5c-58.667 0 -97.667 -5.5 -117 -16.5s-32.333 -29.833 -39 -56.5z" />
    <glyph glyph-name="Q" unicode="Q" horiz-adv-x="1593" 
d="M1108 75c5.33301 -156 17.998 -254.334 37.998 -295.001s46 -61 78 -61c60.667 0 104.667 47.333 132 142l32 -8c-20 -88 -52.167 -151.167 -96.5 -189.5s-103.166 -57.5 -176.499 -57.5c-71.333 0 -125.333 21 -162 63s-55 106.667 -55 194
c0 40.667 3.66699 86.334 11 137.001c-32.667 -9.33301 -64 -16.5 -94 -21.5s-59 -7.5 -87 -7.5c-102.667 0 -196.667 25.167 -282 75.5s-152 121.666 -200 213.999s-72 195.833 -72 310.5c0 159.333 41.833 315 125.5 467s192.334 269.833 326.001 353.5
s272.5 125.5 416.5 125.5c164.667 0 299.667 -54.5 405 -163.5s158 -251.167 158 -426.5c0 -163.333 -40.833 -321.666 -122.5 -474.999s-206.5 -279 -374.5 -377zM1091 211.999c76 78.667 143.166 199.5 201.499 362.5s87.5 322.5 87.5 478.5
c0 130.667 -29.833 228.667 -89.5 294s-142.167 98 -247.5 98c-117.333 0 -225.166 -44.333 -323.499 -133s-175.166 -220.167 -230.499 -394.5s-83 -334.5 -83 -480.5c0 -66 5.5 -119 16.5 -159s30.167 -78.667 57.5 -116c-4.66699 38 -7 68.667 -7 92
c0 84 28.5 152.833 85.5 206.5s132.5 80.5 226.5 80.5c54 0 101 -11.167 141 -33.5s73.667 -56 101 -101s48.666 -109.833 63.999 -194.5zM923.997 86.999c14 61.333 21.001 112.999 21.001 154.999c0 72.667 -16.667 128.334 -50 167.001s-78.666 58 -135.999 58
c-64.667 0 -118.5 -21.833 -161.5 -65.5s-64.5 -98.5 -64.5 -164.5c0 -69.333 28 -127 84 -173c37.333 -12 74.666 -18 111.999 -18c30 0 61.167 3.5 93.5 10.5s66.166 17.167 101.499 30.5z" />
    <glyph glyph-name="R" unicode="R" horiz-adv-x="1518" 
d="M328 1479l682 -0.00292969c168 0 291.5 -31.5 370.5 -94.5s118.5 -146.833 118.5 -251.5c0 -79.333 -22 -145.666 -66 -198.999s-111 -96 -201 -128c-62 -22 -156 -40 -282 -54c71.333 -21.333 124.333 -48.333 159 -81s59 -72.667 73 -120
c10.667 -36 16 -126.333 16 -271c0.666992 -84 5.66699 -135.667 15 -155c9.33301 -20 25.333 -30 48 -30c48.667 0 97 59.667 145 179l53 -18c-64.667 -180.667 -161.334 -271 -290.001 -271c-59.333 0 -107.166 20.5 -143.499 61.5s-54.5 102.167 -54.5 183.5
c0 42.667 4.66699 91.334 14 146.001c11.333 69.333 17 116.333 17 141c0 75.333 -18.5 129.833 -55.5 163.5s-100.5 50.5 -190.5 50.5h-143l-157 -582c-1.33301 -5.33301 -2 -10.666 -2 -15.999c0 -18 6.33301 -31.333 19 -40c18 -12 43.333 -18 76 -18h149l-17 -75h-679
l18 75h122c52 0 84.667 24.667 98 74l317 1173c2 8 3 15.333 3 22c0 18 -8.33301 32.5 -25 43.5s-43 16.5 -79 16.5h-146zM632 801.997h200.001c106.667 0 191.334 14.667 254.001 44s107.667 68.333 135 117c38 66.667 57 139.667 57 219c0 72 -24.833 127 -74.5 165
s-131.834 57 -246.501 57c-72 0 -118.833 -5.66699 -140.5 -17s-36.834 -32.333 -45.501 -63z" />
    <glyph glyph-name="S" unicode="S" horiz-adv-x="1366" 
d="M1214 1354c25.333 18 62.001 49.002 110.001 93.002h68l-109 -511h-69c0 98 -9 175.667 -27 233c-26 83.333 -69.333 148.5 -130 195.5s-132.667 70.5 -216 70.5c-94 0 -171.333 -27.167 -232 -81.5s-91 -121.166 -91 -200.499c0 -40.667 8.16699 -76.834 24.5 -108.501
s40.333 -58.334 72 -80.001s93.5 -49.167 185.5 -82.5c130.667 -48 217 -83 259 -105c66.667 -34.667 117.5 -79.834 152.5 -135.501s52.5 -122.167 52.5 -199.5c0 -86.667 -22.167 -165.667 -66.5 -237s-110.5 -129.166 -198.5 -173.499s-184 -66.5 -288 -66.5
c-77.333 0 -149.166 12.667 -215.499 38s-133.5 67.666 -201.5 126.999l-120 -97h-65l109 531h70c0 -128.667 16 -228 48 -298s82.5 -125.5 151.5 -166.5s144.5 -61.5 226.5 -61.5c106.667 0 196.167 30.833 268.5 92.5s108.5 134.167 108.5 217.5
c0 40.667 -9.16699 78 -27.5 112s-47.833 64.667 -88.5 92c-28.667 20 -99 51 -211 93c-136 51.333 -226 92.833 -270 124.5s-78.167 72.167 -102.5 121.5s-36.5 106.333 -36.5 171c0 123.333 47.167 229 141.5 317s209.166 132 344.499 132
c125.333 0 249.666 -52.333 372.999 -157z" />
    <glyph glyph-name="T" unicode="T" horiz-adv-x="1403" 
d="M379 1479h1221l-129 -543h-75c19.333 92 29 166.667 29 224c0 88 -19.5 152.167 -58.5 192.5s-99.5 60.5 -181.5 60.5c-48 0 -80.667 -6.16699 -98 -18.5s-31 -36.833 -41 -73.5l-312 -1163c-2 -6.66699 -3 -13.667 -3 -21c0 -20 7.66699 -35.333 23 -46s41 -16 77 -16
h151l-20 -75h-729l19 75h139c40 0 69.833 6.83301 89.5 20.5s33.167 34.5 40.5 62.5l310 1151c4 14 6 27.333 6 40c0 19.333 -8 34.833 -24 46.5s-42.333 17.5 -79 17.5c-61.333 0 -119.333 -16 -174 -48s-108.667 -84.667 -162 -158c-31.333 -42 -83 -132.333 -155 -271
h-70z" />
    <glyph glyph-name="U" unicode="U" horiz-adv-x="1669" 
d="M318 1479l660.999 0.000976562l-18 -75h-127c-24 0 -44.833 -6.83301 -62.5 -20.5s-29.5 -31.5 -35.5 -53.5l-220 -813c-12.667 -46.667 -19 -94 -19 -142c0 -98.667 29.833 -176.667 89.5 -234s142.834 -86 249.501 -86c126 0 228.333 34.333 307 103
c98 85.333 168.333 214.666 211 387.999l152 621c8 32 12 59.333 12 82c0 48.667 -14.833 86.667 -44.5 114s-69.5 41 -119.5 41h-47l17 75h533l-17 -75c-64.667 -1.33301 -113.667 -16.333 -147 -45c-41.333 -35.333 -70.333 -86 -87 -152l-174 -690
c-34 -134 -79.5 -239.167 -136.5 -315.5s-125.833 -133.833 -206.5 -172.5s-179 -58 -295 -58c-168.667 0 -294.667 35.333 -378 106s-125 168 -125 292c0 76 12 159.333 36 250l189 702c2 10 3 21.333 3 34c0 15.333 -6 27.333 -18 36s-31.333 13 -58 13h-142z" />
    <glyph glyph-name="V" unicode="V" horiz-adv-x="1442" 
d="M214 1479l588 0.00390625l-16 -75h-70c-46 0 -77.833 -6.33301 -95.5 -19s-26.5 -32.334 -26.5 -59.001c0 -22.667 3 -53 9 -91l157 -983l576 932c29.333 47.333 44 88.666 44 123.999c0 31.333 -10.833 55.166 -32.5 71.499s-56.5 24.5 -104.5 24.5h-42l15 75h499
l-16 -75c-90 -10.667 -159 -54.334 -207 -131.001l-808 -1308h-88l-218 1345c-5.33301 34.667 -17.5 59 -36.5 73s-50.5 21 -94.5 21h-45z" />
    <glyph glyph-name="W" unicode="W" horiz-adv-x="1896" 
d="M255 1479l495.003 -0.000976562l-17 -75h-62c-32.667 0 -55.334 -6.16699 -68.001 -18.5s-19 -33.5 -19 -63.5v-12l77 -962l441 855c-2.66699 94.667 -10.334 150.334 -23.001 167.001c-17.333 22.667 -50.333 34 -99 34h-88l17 75h598l-18 -75h-83
c-37.333 0 -65 -6.66699 -83 -20s-27 -30.666 -27 -51.999l1 -14l78 -970l467 914c11.333 22 17 43.333 17 64c0 24 -8.83301 43 -26.5 57s-42.834 21 -75.501 21h-42l14 75h406l-14 -75c-41.333 -6 -75 -20 -101 -42c-36.667 -31.333 -68.667 -74 -96 -128l-646 -1269h-69
l-93 1084l-554 -1084h-68l-116 1336c-3.33301 41.333 -12.5 68.166 -27.5 80.499s-49.5 19.833 -103.5 22.5z" />
    <glyph glyph-name="X" unicode="X" horiz-adv-x="1442" 
d="M264 1479l631.001 0.00195312l-13 -75h-54c-49.333 0 -83.5 -6 -102.5 -18s-28.5 -26.667 -28.5 -44c0 -11.333 3.66699 -26 11 -44l174 -410l336 355c24.667 25.333 37 52.666 37 81.999c0 24.667 -8.83301 44 -26.5 58s-44.5 21 -80.5 21h-55l20 75h549l-19 -75h-42
c-28.667 0 -63.834 -10 -105.501 -30s-77.167 -45.333 -106.5 -76l-469 -493l258 -607c21.333 -49.333 45.333 -81.833 72 -97.5s78.334 -24.167 155.001 -25.5l-16 -75h-625l12 75h52c56 0 94.833 6.16699 116.5 18.5s32.5 27.166 32.5 44.499c0 12 -3.66699 26.667 -11 44
l-202 467l-325 -346c-50 -52.667 -75 -97 -75 -133c0 -26.667 11.833 -48.167 35.5 -64.5s68.5 -26.5 134.5 -30.5l-19 -75h-560l19 75c48 6 88.333 18 121 36c58 32.667 102.333 65 133 97l502 525l-236 553c-20 47.333 -42.833 78.833 -68.5 94.5
s-69.834 23.5 -132.501 23.5h-40z" />
    <glyph glyph-name="Y" unicode="Y" horiz-adv-x="1403" 
d="M274 1479h577.001l-14 -75h-79c-45.333 0 -76.333 -5.16699 -93 -15.5s-25 -23.833 -25 -40.5c0 -8.66699 2.33301 -18 7 -28l239 -577l381 479c36.667 46.667 55 82.667 55 108c0 43.333 -56.333 68 -169 74l24 75h455l-19 -75c-72 -10 -136 -50.333 -192 -121
l-489 -615l-137 -516c-1.33301 -5.33301 -2 -11 -2 -17c0 -18 7.33301 -31.667 22 -41c19.333 -12.667 48 -19 86 -19h110l-19 -75h-666l17 75h103c72 0 114 21 126 63l138 502l-293 705c-16.667 39.333 -53.334 59 -110.001 59h-51z" />
    <glyph glyph-name="Z" unicode="Z" horiz-adv-x="1366" 
d="M475 1479l988.002 0.000976562v-52l-1132 -1352h245c116.667 0 212.167 14.667 286.5 44s142.666 76.166 204.999 140.499s120.166 154.5 173.499 270.5l61 -25l-150 -505h-1104v43l1137 1361h-253c-124 0 -223.667 -27.667 -299 -83
c-91.333 -67.333 -178.333 -184 -261 -350l-63 23z" />
    <glyph glyph-name="bracketleft" unicode="[" 
d="M492 1479l393.001 0.000976562l-20 -75h-151c-28 0 -49.833 -7 -65.5 -21s-28.5 -39.667 -38.5 -77l-396 -1498c-2.66699 -10.667 -4 -21.334 -4 -32.001c0 -20.667 7.16699 -36.667 21.5 -48s37.166 -17 68.499 -17h115l-17 -71h-392z" />
    <glyph glyph-name="backslash" unicode="\" horiz-adv-x="1241" 
d="M653 1442l188 -1474h-134l-188 1474h134z" />
    <glyph glyph-name="bracketright" unicode="]" 
d="M351 1479h390l-494 -1839h-393l19 70h146c30.667 0 54.5 7.5 71.5 22.5s30.833 42.167 41.5 81.5l404 1510c1.33301 6 2 12.333 2 19c0 18.667 -6.5 33.5 -19.5 44.5s-32.5 16.5 -58.5 16.5h-129z" />
    <glyph glyph-name="asciicircum" unicode="^" horiz-adv-x="1241" 
d="M735 1413l431 -727h-129l-319 558l-321 -558h-129l437 727h30z" />
    <glyph glyph-name="underscore" unicode="_" horiz-adv-x="1024" 
d="M-12 -154h1048v-102h-1048v102z" />
    <glyph glyph-name="grave" unicode="`" 
d="M719 1110l-22 -22.001l-310 183c-70.667 42 -106 84.667 -106 128c0 20.667 8.16699 39.334 24.5 56.001s34.5 25 54.5 25c32 0 64.333 -19.333 97 -58z" />
    <glyph glyph-name="a" unicode="a" horiz-adv-x="1176" 
d="M715 157c-40 -61.333 -86.334 -107.666 -139.001 -138.999s-104.667 -47 -156 -47c-99.333 0 -183.333 36.167 -252 108.5s-103 164.166 -103 275.499c0 101.333 26.833 200.5 80.5 297.5s122.5 173.333 206.5 229s165.667 83.5 245 83.5c64 0 120.5 -18.833 169.5 -56.5
s82.167 -87.5 99.5 -149.5l58 177l157 18l-219 -762c-6 -20.667 -9 -41.334 -9 -62.001c0 -18.667 3.83301 -33 11.5 -43s16.834 -15 27.501 -15c20 0 42.667 13.667 68 41c49.333 52.667 95.666 123.334 138.999 212.001l58 -26c-104.667 -218.667 -211.667 -328 -321 -328
c-35.333 0 -64.666 13.5 -87.999 40.5s-35 61.833 -35 104.5zM609.999 886c-52.667 0 -105.831 -21.165 -159.498 -63.498s-101 -112.833 -142 -211.5s-61.5 -200.334 -61.5 -305.001c0 -82.667 17 -143.834 51 -183.501s82.333 -59.5 145 -59.5
c56 0 108.167 19.667 156.5 59s96.166 116.5 143.499 231.5s71 217.167 71 306.5c0 64 -20.333 117.667 -61 161s-88.334 65 -143.001 65z" />
    <glyph glyph-name="b" unicode="b" horiz-adv-x="1139" 
d="M638 1498l-204.001 -699.001c98.667 110.667 202.334 166 311.001 166c82.667 0 152 -31 208 -93s84 -143 84 -243c0 -116 -27.667 -226.167 -83 -330.5s-127.5 -185 -216.5 -242s-181.5 -85.5 -277.5 -85.5c-97.333 0 -174.333 28 -231 84s-85 130.667 -85 224
c0 54 8 108 24 162l256 884c2 6.66699 3 13.334 3 20.001c0 18 -10.167 32.333 -30.5 43s-60.5 16 -120.5 16l18 75zM681.999 868.999c-50 0 -98.667 -20.001 -146 -60.001c-60 -50 -113.5 -129.667 -160.5 -239s-70.5 -213.333 -70.5 -312
c0 -75.333 15.333 -131.166 46 -167.499s73.667 -54.5 129 -54.5c54.667 0 108.167 21.333 160.5 64s100.5 117.5 144.5 224.5s66 211.5 66 313.5c0 78 -15.333 136 -46 174s-71.667 57 -123 57z" />
    <glyph glyph-name="c" unicode="c" horiz-adv-x="909" 
d="M762 246l50 -38.0039c-64 -85.333 -128.333 -146.166 -193 -182.499s-133.334 -54.5 -206.001 -54.5c-96 0 -175.833 34.5 -239.5 103.5s-95.5 159.167 -95.5 270.5c0 104.667 27.167 206.834 81.5 306.501s124.166 176.834 209.499 231.501s172.333 82 261 82
c74.667 0 133.334 -19.167 176.001 -57.5s64 -88.166 64 -149.499c0 -47.333 -11 -84.166 -33 -110.499s-49.333 -39.5 -82 -39.5c-28 0 -51.833 9.5 -71.5 28.5s-29.5 41.833 -29.5 68.5c0 45.333 24 75.333 72 90c25.333 8 38 19.667 38 35s-11.167 30.833 -33.5 46.5
s-50.833 23.5 -85.5 23.5c-57.333 0 -114.833 -22 -172.5 -66s-106.667 -113.333 -147 -208s-60.5 -195.334 -60.5 -302.001c0 -90.667 18.333 -158.167 55 -202.5s85.334 -66.5 146.001 -66.5c97.333 0 196 63.667 296 191z" />
    <glyph glyph-name="d" unicode="d" horiz-adv-x="1251" 
d="M1247 1498l-370 -1280c-10.667 -36.667 -16 -68 -16 -94c0 -15.333 4.16699 -27.333 12.5 -36s19.833 -13 34.5 -13c59.333 0 137.666 86 234.999 258l57 -28c-62.667 -121.333 -123.667 -207.333 -183 -258s-113 -76 -161 -76c-43.333 0 -76.666 15.5 -99.999 46.5
s-36.333 77.5 -39 139.5c-92.667 -124 -195.667 -186 -309 -186c-56.667 0 -110.167 15 -160.5 45s-89.5 72.5 -117.5 127.5s-42 116.5 -42 184.5c0 103.333 27.667 208 83 314s122.833 186.333 202.5 241s160.167 82 241.5 82c56 0 106.333 -14 151 -42
s83.667 -70.333 117 -127l150 531c2 7.33301 3 14 3 20c0 17.333 -7 31.166 -21 41.499s-35.667 15.5 -65 15.5h-104l20 75zM640 880.001c-61.333 0 -121 -27.332 -179 -81.999s-106.667 -145.334 -146 -272.001c-30 -96 -45 -177.667 -45 -245
c0 -68 16.833 -121.667 50.5 -161s75.834 -59 126.501 -59c59.333 0 118.5 28.333 177.5 85s107.333 141.834 145 255.501s56.5 204.167 56.5 271.5c0 63.333 -17.333 113.666 -52 150.999s-79.334 56 -134.001 56z" />
    <glyph glyph-name="e" unicode="e" horiz-adv-x="909" 
d="M252 364c-3.33301 -31.333 -5.00098 -57.667 -5.00098 -79c0 -73.333 17.833 -129.5 53.5 -168.5s84.167 -58.5 145.5 -58.5c48 0 95.333 12.5 142 37.5s105 75.167 175 150.5l46 -42c-126 -155.333 -259.333 -233 -400 -233c-96 0 -177 36 -243 108s-99 164 -99 276
c0 98.667 27.667 195.5 83 290.5s129.166 172 221.499 231s178.5 88.5 258.5 88.5c68.667 0 124.834 -19.833 168.501 -59.5s65.5 -88.167 65.5 -145.5c0 -48.667 -17.167 -97.167 -51.5 -145.5s-89.666 -91.5 -165.999 -129.5s-207.833 -78.333 -394.5 -121z
M265.999 428.999c127.333 28 217.999 57 271.999 87s94.833 67.333 122.5 112s41.5 91.667 41.5 141c0 39.333 -10.167 70 -30.5 92s-48.166 33 -83.499 33c-64 0 -125.833 -36.5 -185.5 -109.5s-105.167 -191.5 -136.5 -355.5z" />
    <glyph glyph-name="f" unicode="f" 
d="M501 936l212 0.000976562l-23 -84h-210l-180 -760c-42 -176.667 -86 -319.334 -132 -428.001c-39.333 -10.667 -77.666 -23.334 -114.999 -38.001c-45.333 -17.333 -74 -26 -86 -26c-10 0 -15 5 -15 15c0 7.33301 9.66699 32 29 74c50.667 111.333 90 207.833 118 289.5
s58.667 193.167 92 334.5l129 539h-160l21 84h156c38 132.667 83.833 246.834 137.5 342.501s104 159 151 190s94.833 46.5 143.5 46.5c44 0 79 -12 105 -36s39 -54 39 -90c0 -32 -8.5 -57.833 -25.5 -77.5s-39.167 -29.5 -66.5 -29.5c-22 0 -40.167 6.83301 -54.5 20.5
s-25.833 39.167 -34.5 76.5c-6.66699 28.667 -19.334 43 -38.001 43c-24.667 0 -46.667 -18 -66 -54c-38 -72.667 -80.333 -216.667 -127 -432z" />
    <glyph glyph-name="g" unicode="g" horiz-adv-x="1100" 
d="M784 936c78 66 151.667 99.0029 221 99.0029c38 0 68.167 -9.33301 90.5 -28s33.5 -42 33.5 -70c0 -24 -7.33301 -43.833 -22 -59.5s-33 -23.5 -55 -23.5c-27.333 0 -50 15 -68 45c-12 19.333 -21.667 31.666 -29 36.999c-8 4.66699 -18.667 7 -32 7
c-28.667 0 -56.334 -13.333 -83.001 -40c90.667 -60.667 136 -137 136 -229c0 -93.333 -37.833 -174 -113.5 -242s-172.5 -102 -290.5 -102c-25.333 0 -60 2.66699 -104 8c-41.333 4.66699 -72.666 7 -93.999 7c-56 0 -98.833 -10 -128.5 -30s-44.5 -43.333 -44.5 -70
c0 -14.667 5 -27.834 15 -39.501s26.333 -20.167 49 -25.5c15.333 -3.33301 59.333 -6.66602 132 -9.99902c155.333 -7.33301 262.833 -20 322.5 -38s103.167 -44.333 130.5 -79s41 -75 41 -121c0 -54 -19.167 -106.5 -57.5 -157.5s-99.5 -92.833 -183.5 -125.5
s-181.333 -49 -292 -49c-96 0 -176.667 10.667 -242 32s-112.333 49.5 -141 84.5s-43 69.5 -43 103.5c0 43.333 20.5 82.333 61.5 117s110.5 68.667 208.5 102c-42 17.333 -73.5 38.666 -94.5 63.999s-31.5 55 -31.5 89c0 51.333 23 97.166 69 137.499
s109 64.166 189 71.499c-92 56 -138 129.667 -138 221c0 54.667 17.667 108.334 53 161.001s87.833 96.167 157.5 130.5s142.167 51.5 217.5 51.5c28 0 55.333 -2.33301 82 -7s52.667 -12 78 -22zM632 905.003c-69.333 0 -130 -30 -182 -90s-78 -134 -78 -222
c0 -63.333 16.833 -113.166 50.5 -149.499s77.5 -54.5 131.5 -54.5c66 0 124 29.667 174 89s75 136.666 75 231.999c0 60 -16 107.5 -48 142.5s-73 52.5 -123 52.5zM413 18.0029c-119.333 0 -203.5 -17.833 -252.5 -53.5s-73.5 -80.5 -73.5 -134.5
c0 -48.667 22.5 -88.667 67.5 -120s119.167 -47 222.5 -47c132.667 0 231.667 24.333 297 73c50.667 37.333 76 81.333 76 132c0 42 -24.5 77.5 -73.5 106.5s-136.833 43.5 -263.5 43.5z" />
    <glyph glyph-name="h" unicode="h" horiz-adv-x="1251" 
d="M678 1498l-239.997 -827.996c137.333 196.667 272.333 295 405 295c60 0 108.333 -18.167 145 -54.5s55 -85.5 55 -147.5c0 -53.333 -10.333 -112.333 -31 -177l-126 -394c-8.66699 -26.667 -13 -51.667 -13 -75c0 -14.667 3.83301 -26.167 11.5 -34.5
s17.5 -12.5 29.5 -12.5c27.333 0 56.666 16.333 87.999 49c49.333 52 94 124.333 134 217l59 -19c-42 -109.333 -94.167 -192.5 -156.5 -249.5s-120.833 -85.5 -175.5 -85.5c-43.333 0 -77.666 14.5 -102.999 43.5s-38 70.833 -38 125.5c0 26.667 5 55.667 15 87l126 398
c10.667 35.333 16 70.666 16 105.999c0 38.667 -9.33301 68.5 -28 89.5s-42.334 31.5 -71.001 31.5c-36 0 -77.333 -16 -124 -48c-70.667 -49.333 -135.334 -118.833 -194.001 -208.5s-100.334 -179.834 -125.001 -270.501l-91 -336l-168 -10l381 1326
c3.33301 11.333 5 22.666 5 33.999c0 17.333 -8.5 30.666 -25.5 39.999s-50.833 14 -101.5 14h-58l21 75z" />
    <glyph glyph-name="i" unicode="i" 
d="M506 1475c30.667 0 56.334 -10.832 77.001 -32.499s31 -48.5 31 -80.5c0 -31.333 -10.333 -57.5 -31 -78.5s-46 -31.5 -76 -31.5c-31.333 0 -57.833 10.667 -79.5 32s-32.5 47.666 -32.5 78.999c0 32 10.667 58.667 32 80s47.666 32 78.999 32zM527 954.001
l-222.001 -783c-6 -20 -9 -37.333 -9 -52c0 -16.667 3.83301 -29.167 11.5 -37.5s17.834 -12.5 30.501 -12.5c24 0 52.333 15.333 85 46c54 51.333 106.333 123.333 157 216l53 -31c-48.667 -106 -106.667 -187.333 -174 -244s-128 -85 -182 -85
c-36 0 -66.667 14.167 -92 42.5s-38 65.5 -38 111.5c0 45.333 7.33301 93.333 22 144l148 511c2.66699 8.66699 4 17 4 25c0 18 -7.66699 32 -23 42c-20.667 13.333 -51.667 20 -93 20h-63l20 69z" />
    <glyph glyph-name="j" unicode="j" horiz-adv-x="645" 
d="M498 1475c30.667 0 56.834 -10.833 78.501 -32.5s32.5 -47.834 32.5 -78.501s-10.833 -56.834 -32.5 -78.501s-47.834 -32.5 -78.501 -32.5s-56.834 10.833 -78.501 32.5s-32.5 47.834 -32.5 78.501s10.833 56.834 32.5 78.501s47.834 32.5 78.501 32.5zM205 936
l347.001 18l-201 -834c-44 -182.667 -106.667 -319.334 -188 -410.001c-66 -73.333 -137.667 -110 -215 -110c-48 0 -86 12.333 -114 37s-42 56 -42 94c0 32 9.83301 58.167 29.5 78.5s44.167 30.5 73.5 30.5c23.333 0 42 -7 56 -21s21 -31.667 21 -53
c0 -9.33301 -0.666992 -20.333 -2 -33l-2 -19c0 -12.667 2.83301 -22 8.5 -28s13.5 -9 23.5 -9c24 0 44.667 15.667 62 47c39.333 70 81.666 198 126.999 384l162 661c2.66699 12 4 23.667 4 35c0 20.667 -6.66699 36.334 -20 47.001s-33.333 16 -60 16h-86z" />
    <glyph glyph-name="k" unicode="k" horiz-adv-x="1139" 
d="M658 1494l-239 -834.997c88 115.333 166.667 195.166 236 239.499s135.333 66.5 198 66.5c58.667 0 106.667 -17.167 144 -51.5s56 -75.5 56 -123.5c0 -62 -31.5 -123.5 -94.5 -184.5s-165.167 -112.5 -306.5 -154.5c44 -19.333 75.667 -46 95 -80
c14.667 -25.333 27 -80.333 37 -165c5.33301 -46.667 10.666 -76.334 15.999 -89.001c8 -18.667 19.667 -28 35 -28c44.667 0 112.667 72.667 204 218l52 -30c-114.667 -196.667 -222 -295 -322 -295c-44 0 -79.167 16.667 -105.5 50s-39.5 82.333 -39.5 147v166
c0 39.333 -11.667 66.333 -35 81c-26.667 -6 -46.667 -9 -60 -9c-22 0 -38.5 4.16699 -49.5 12.5s-16.5 19.166 -16.5 32.499c0 12 4.33301 21.5 13 28.5s21.667 10.5 39 10.5c7.33301 0 20 -1.33301 38 -4c17.333 -2.66699 32 -4 44 -4c76.667 0 147 29 211 87
s96 116.667 96 176c0 36 -10.833 65.167 -32.5 87.5s-48.167 33.5 -79.5 33.5c-49.333 0 -104.666 -23.5 -165.999 -70.5s-125.333 -125.833 -192 -236.5c-49.333 -82 -88.666 -174 -117.999 -276l-85 -294l-169 -9l383 1325c2.66699 9.33301 4 18.666 4 27.999
c0 18.667 -7.83301 33.334 -23.5 44.001s-42.834 16 -81.501 16h-66l17 75z" />
    <glyph glyph-name="l" unicode="l" 
d="M310 1479l374 19.002l-368 -1285c-12.667 -42.667 -19 -73.667 -19 -93c0 -18.667 3.33301 -32.334 10 -41.001s15.334 -13 26.001 -13c55.333 0 129.333 86.333 222 259l56 -30c-108.667 -216 -219.334 -324 -332.001 -324c-40 0 -72.333 13.667 -97 41
s-37 65.333 -37 114c0 37.333 9.66699 90.333 29 159l296 1034c3.33301 13.333 5 23.666 5 30.999c0 16 -7.33301 28.333 -22 37c-19.333 11.333 -50 17 -92 17h-72z" />
    <glyph glyph-name="m" unicode="m" horiz-adv-x="1821" 
d="M1026 672c66.667 94 131.999 164.498 195.999 211.498s126.667 70.5 188 70.5c54 0 97.5 -16.833 130.5 -50.5s49.5 -78.5 49.5 -134.5c0 -57.333 -10.333 -118 -31 -182l-135 -422c-3.33301 -10.667 -5 -21.667 -5 -33c0 -13.333 3.83301 -24.166 11.5 -32.499
s17.5 -12.5 29.5 -12.5c20.667 0 44 12.333 70 37c36 34 84.333 102 145 204l55 -34c-67.333 -119.333 -131.333 -204.666 -192 -255.999c-45.333 -37.333 -92.666 -56 -141.999 -56c-40 0 -71.833 13.833 -95.5 41.5s-35.5 68.834 -35.5 123.501c0 21.333 3.66699 44 11 68
l141 447c10 29.333 15 58 15 86c0 30 -8.83301 54.333 -26.5 73s-39.834 28 -66.501 28c-32.667 0 -68.667 -13.333 -108 -40c-58.667 -40.667 -108.667 -95 -150 -163c-63.333 -104 -106.666 -197.333 -129.999 -280l-106 -366l-167 -10l179 626
c14.667 51.333 22 91.666 22 120.999c0 38.667 -8.16699 67.167 -24.5 85.5s-39.833 27.5 -70.5 27.5c-36 0 -71.333 -12 -106 -36c-48 -33.333 -98.5 -92.833 -151.5 -178.5s-93.167 -175.5 -120.5 -269.5l-108 -366l-163 -10l221 784c2.66699 10 4 19.667 4 29
c0 19.333 -7.33301 34.333 -22 45s-39.667 16 -75 16h-52l20 72l322 18l-74 -292c120 194.667 246 292 378 292c56 0 99.167 -16.667 129.5 -50s45.5 -83.333 45.5 -150c0 -22.667 -2 -50 -6 -82z" />
    <glyph glyph-name="n" unicode="n" horiz-adv-x="1251" 
d="M526 954l-86.0039 -325.001c153.333 217.333 296.666 326 429.999 326c51.333 0 93.166 -17.167 125.499 -51.5s48.5 -81.166 48.5 -140.499c0 -50 -11.333 -109.333 -34 -178l-107 -333l-26 -83c-4 -18.667 -6 -34 -6 -46c0 -14 4 -25.833 12 -35.5
s17.333 -14.5 28 -14.5c28.667 0 65.334 22 110.001 66s84.667 110.333 120 199l62 -21c-43.333 -109.333 -97.666 -192.5 -162.999 -249.5s-126.333 -85.5 -183 -85.5c-39.333 0 -72.166 14.667 -98.499 44s-39.5 67 -39.5 113c0 38.667 7.66699 81 23 127l118 363
c13.333 40 20 79 20 117c0 32 -8.33301 57.333 -25 76s-38 28 -64 28c-59.333 0 -134.166 -49 -224.499 -147s-160.166 -232.667 -209.499 -404l-87 -299l-165 -8l221 778c3.33301 12 5 23.667 5 35c0 20 -6.33301 35 -19 45c-17.333 12.667 -41.666 19 -72.999 19h-89
l19 67z" />
    <glyph glyph-name="o" unicode="o" horiz-adv-x="1024" 
d="M588 965c102.667 0 189.833 -38.1689 261.5 -114.502s107.5 -173.166 107.5 -290.499c0 -101.333 -25.5 -199.5 -76.5 -294.5s-116.5 -167.833 -196.5 -218.5s-163 -76 -249 -76c-102.667 0 -190.5 38.833 -263.5 116.5s-109.5 174.834 -109.5 291.501
c0 97.333 26 193.5 78 288.5s118.5 168.333 199.5 220s163.833 77.5 248.5 77.5zM591.999 896.998c-50 0 -100.499 -21.167 -151.499 -63.5s-97 -116.5 -138 -222.5s-61.5 -212 -61.5 -318c0 -82 17.667 -145 53 -189s80.333 -66 135 -66c52 0 102.667 20.667 152 62
s95 116.833 137 226.5s63 217.167 63 322.5c0 78 -17.833 138.833 -53.5 182.5s-80.834 65.5 -135.501 65.5z" />
    <glyph glyph-name="p" unicode="p" horiz-adv-x="1176" 
d="M298 163l-108 -377.001c-4.66699 -15.333 -7 -27.666 -7 -36.999c0 -18 7.5 -32.5 22.5 -43.5s41.167 -16.5 78.5 -16.5h62l-19 -74h-489l21 74h35c69.333 0 113.333 32.333 132 97l286 993c2.66699 8 4 16.333 4 25c0 19.333 -7.5 34.5 -22.5 45.5
s-39.833 16.5 -74.5 16.5h-73l22 70l338 18l-51 -203c56.667 80.667 111 136.5 163 167.5s107.333 46.5 166 46.5c82.667 0 153.167 -33 211.5 -99s87.5 -152 87.5 -258c0 -106.667 -27.167 -211.667 -81.5 -315s-122.333 -182.833 -204 -238.5
s-162.834 -83.5 -243.501 -83.5c-123.333 0 -208.666 64 -255.999 192zM729 873.999c-56.667 0 -115.668 -28.834 -177.001 -86.501s-110.666 -140.667 -147.999 -249s-56 -198.166 -56 -269.499c0 -64.667 16.833 -115.5 50.5 -152.5s78.5 -55.5 134.5 -55.5
c55.333 0 108.833 21.333 160.5 64s99.5 117.167 143.5 223.5s66 210.833 66 313.5c0 65.333 -16.5 117 -49.5 155s-74.5 57 -124.5 57z" />
    <glyph glyph-name="q" unicode="q" horiz-adv-x="1139" 
d="M1013 964h65l-338 -1180c-4 -14 -6 -26.667 -6 -38c0 -16.667 7.33301 -30.5 22 -41.5s36.334 -16.5 65.001 -16.5h70l-22 -73h-484l22 73h41c68 0 111 32 129 96l103 358c-52.667 -64 -102.334 -108.5 -149.001 -133.5s-97 -37.5 -151 -37.5
c-89.333 0 -162.5 31.667 -219.5 95s-85.5 148 -85.5 254c0 108.667 27.833 214 83.5 316s129.167 182.333 220.5 241s181.333 88 270 88c54 0 100.5 -11.5 139.5 -34.5s77.167 -64.167 114.5 -123.5zM641 902c-50 0 -103.17 -23.332 -159.503 -69.999
s-106.666 -121.834 -150.999 -225.501s-66.5 -207.5 -66.5 -311.5c0 -74 15.833 -130.167 47.5 -168.5s72.834 -57.5 123.501 -57.5s103.334 23 158.001 69s104.5 124.167 149.5 234.5s67.5 218.5 67.5 324.5c0 62 -16 111.667 -48 149s-72.333 56 -121 56z" />
    <glyph glyph-name="r" unicode="r" horiz-adv-x="909" 
d="M275 0l-167 -13l179 642c19.333 68.667 29 115.667 29 141c0 32 -10.167 56.167 -30.5 72.5s-53.5 24.5 -99.5 24.5h-44l21 69l334 18l-94 -404c60 138 106 230.667 138 278s66.667 82 104 104s74 33 110 33c43.333 0 79.5 -14 108.5 -42s43.5 -62.667 43.5 -104
c0 -38.667 -10.5 -69.834 -31.5 -93.501s-46.833 -35.5 -77.5 -35.5c-24.667 0 -45.667 8.66699 -63 26s-26 38.333 -26 63c0 10 3.33301 23.667 10 41c4 10.667 6 19.334 6 26.001c0 9.33301 -2.33301 16.333 -7 21s-12 7 -22 7c-18 0 -38.667 -9.66699 -62 -29
c-44 -38 -87.333 -105 -130 -201c-77.333 -174 -132 -315 -164 -423z" />
    <glyph glyph-name="s" unicode="s" horiz-adv-x="909" 
d="M546 965c95.333 0 168.665 -19.335 219.998 -58.002s77 -86.667 77 -144c0 -36.667 -10.167 -66.5 -30.5 -89.5s-45.166 -34.5 -74.499 -34.5c-27.333 0 -50.333 9.33301 -69 28s-28 41.334 -28 68.001c0 17.333 7 36.333 21 57c11.333 15.333 17 27.333 17 36
c0 17.333 -11.167 33.166 -33.5 47.499s-55.833 21.5 -100.5 21.5c-69.333 0 -124.833 -18.167 -166.5 -54.5s-62.5 -80.166 -62.5 -131.499c0 -35.333 12 -63.666 36 -84.999s87.667 -48.333 191 -81c90 -28 152.333 -62 187 -102c34 -40.667 51 -89.667 51 -147
c0 -87.333 -37.333 -163.333 -112 -228s-172 -97 -292 -97c-103.333 0 -183.333 22.5 -240 67.5s-85 100.833 -85 167.5c0 40.667 11.167 73.5 33.5 98.5s49.5 37.5 81.5 37.5c28.667 0 52.334 -9.33301 71.001 -28s28 -41.667 28 -69c0 -13.333 -2.5 -25.333 -7.5 -36
s-15.833 -24 -32.5 -40c-14.667 -14.667 -22 -28.334 -22 -41.001c0 -22.667 15.167 -43.667 45.5 -63s74.166 -29 131.499 -29c73.333 0 133.166 19.5 179.499 58.5s69.5 85.5 69.5 139.5c0 38.667 -12.333 70.334 -37 95.001
c-25.333 24.667 -79.666 50.334 -162.999 77.001c-100 32 -166 65.667 -198 101c-32.667 35.333 -49 79.666 -49 132.999c0 86.667 35.333 162.5 106 227.5s156.334 97.5 257.001 97.5z" />
    <glyph glyph-name="t" unicode="t" horiz-adv-x="721" 
d="M433 1259l164 0.000976562l-95 -323h172l-21 -84h-174l-175 -614c-10 -34.667 -15 -65.334 -15 -92.001c0 -25.333 5.33301 -44.5 16 -57.5s24 -19.5 40 -19.5c68.667 0 152.667 86.333 252 259l56 -31c-115.333 -217.333 -238.333 -326 -369 -326
c-48.667 0 -87 14.833 -115 44.5s-42 68.167 -42 115.5c0 40.667 6.66699 84 20 130l169 591h-183l25 84h182z" />
    <glyph glyph-name="u" unicode="u" horiz-adv-x="1251" 
d="M552 954l-199.001 -616.999c-21.333 -66.667 -32 -121 -32 -163c0 -30.667 8.5 -54.834 25.5 -72.501s39.833 -26.5 68.5 -26.5c58 0 130.167 43.5 216.5 130.5s157.166 214.833 212.499 383.5l113 347h162l-239 -740c-10.667 -32.667 -16 -60.667 -16 -84
c0 -17.333 3.83301 -30.333 11.5 -39s18.834 -13 33.501 -13c60 0 136.333 86.667 229 260l57 -20c-52 -115.333 -108.667 -199 -170 -251s-119.666 -78 -174.999 -78c-40 0 -71.667 12.167 -95 36.5s-35 57.833 -35 100.5c0 35.333 7.66699 85 23 149
c-84 -109.333 -157.667 -184.333 -221 -225s-123.333 -61 -180 -61c-58 0 -104 16.5 -138 49.5s-51 76.167 -51 129.5c0 44 14.333 110 43 198l135 422c3.33301 10.667 5 21 5 31c0 18 -8 32.333 -24 43c-21.333 13.333 -52 20 -92 20h-55l20 72z" />
    <glyph glyph-name="v" unicode="v" horiz-adv-x="1063" 
d="M140 867l20 69.002l347 18l-130 -457c-27.333 -98 -41 -179.333 -41 -244c0 -62.667 14 -110.667 42 -144s62.667 -50 104 -50c52.667 0 108.667 24 168 72s114 125.667 164 233s75 208.333 75 303c0 27.333 -3 48.666 -9 63.999s-18.333 32.666 -37 51.999
c-25.333 27.333 -41 46.333 -47 57s-9 23 -9 37c0 25.333 8 46.333 24 63s35.333 25 58 25c30.667 0 57.5 -17.167 80.5 -51.5s34.5 -84.5 34.5 -150.5c0 -102 -21 -213.333 -63 -334c-54.667 -156.667 -132 -276 -232 -358c-80 -66.667 -163.333 -100 -250 -100
c-74 0 -135.833 27.833 -185.5 83.5s-74.5 131.5 -74.5 227.5c0 65.333 14 145.333 42 240l77 263c2.66699 8 4 16 4 24c0 18 -8.66699 31.333 -26 40c-24.667 12 -70 18 -136 18z" />
    <glyph glyph-name="w" unicode="w" horiz-adv-x="1593" 
d="M749 268c-70.667 -108 -140.167 -184.501 -208.5 -229.501s-133.833 -67.5 -196.5 -67.5c-56.667 0 -104.167 19.167 -142.5 57.5s-57.5 86.5 -57.5 144.5c0 32 9.33301 74.667 28 128l13 39l142 434c2.66699 8 4 16 4 24c0 19.333 -9.5 35.166 -28.5 47.499
s-50.5 18.5 -94.5 18.5h-35l24 72l346 18l-216 -671c-12.667 -38 -19 -75 -19 -111c0 -33.333 9.16699 -59.666 27.5 -78.999s41.833 -29 70.5 -29c65.333 0 132.666 40 201.999 120c90 102.667 163.667 255.334 221 458.001l84 294h162l-137 -477
c-8.66699 -30.667 -18.667 -75 -30 -133l-5 -35c-1.33301 -15.333 -2 -31.333 -2 -48c0 -61.333 11.5 -106.166 34.5 -134.499s53.833 -42.5 92.5 -42.5c47.333 0 99 23.333 155 70s108.5 123.5 157.5 230.5s73.5 204.5 73.5 292.5c0 24.667 -3.16699 45.167 -9.5 61.5
s-21.166 38.833 -44.499 67.5c-25.333 31.333 -40.333 51.5 -45 60.5s-7 18.5 -7 28.5c0 22 8.83301 42.167 26.5 60.5s37.167 27.5 58.5 27.5c27.333 0 52.833 -16.833 76.5 -50.5s35.5 -79.834 35.5 -138.501c0 -106.667 -21.333 -223.334 -64 -350.001
c-52 -154 -122 -268.333 -210 -343s-175.333 -112 -262 -112c-47.333 0 -88 10.333 -122 31s-58.333 48.334 -73 83.001s-23 95.667 -25 183z" />
    <glyph glyph-name="x" unicode="x" horiz-adv-x="1024" 
d="M578 614c84 134 137.664 215.004 160.997 243.004c34 42 65.5 70.5 94.5 85.5s57.833 22.5 86.5 22.5c36.667 0 66 -10.5 88 -31.5s33 -49.167 33 -84.5c0 -34 -8.83301 -61 -26.5 -81s-40.167 -30 -67.5 -30c-33.333 0 -59 19.333 -77 58c-12 24.667 -25.333 37 -40 37
c-15.333 0 -31 -8.66699 -47 -26s-77.333 -111 -184 -281l71 -317c10 -46 21.167 -76 33.5 -90s27.5 -21 45.5 -21c52.667 0 120.334 66 203.001 198l49 -28c-59.333 -106.667 -117.833 -182.834 -175.5 -228.501s-107.834 -68.5 -150.501 -68.5
c-46 0 -80.167 16.167 -102.5 48.5s-52.166 139.166 -89.499 320.499c-90 -162 -161.333 -267.667 -214 -317c-37.333 -34.667 -81.333 -52 -132 -52c-40 0 -72.333 12.167 -97 36.5s-37 54.833 -37 91.5c0 29.333 9.33301 53.833 28 73.5s41.334 29.5 68.001 29.5
c20 0 36.833 -4.66699 50.5 -14s25.167 -26.333 34.5 -51c8 -20.667 14.5 -33.5 19.5 -38.5s11.5 -7.5 19.5 -7.5c14.667 0 29 8.33301 43 25c30 35.333 95 138.333 195 309l-72 330c-5.33301 25.333 -13.666 44.166 -24.999 56.499s-26 18.5 -44 18.5
c-50.667 0 -102.667 -63.667 -156 -191l-51 30c46.667 114 92.5 191.833 137.5 233.5s90.5 62.5 136.5 62.5c43.333 0 77 -16.833 101 -50.5s54 -133.834 90 -300.501z" />
    <glyph glyph-name="y" unicode="y" horiz-adv-x="1024" 
d="M623 238c69.333 105.333 123.673 207.33 163.006 305.997c25.333 62 38 115 38 159c0 18.667 -4.66699 48.334 -14 89.001c-7.33301 32.667 -11 57.334 -11 74.001c0 28.667 8.5 52.334 25.5 71.001s37.5 28 61.5 28c25.333 0 46 -9.16699 62 -27.5s24 -43.833 24 -76.5
c0 -32 -12 -81.667 -36 -149c-32.667 -92 -77.334 -187.667 -134.001 -287l-235 -412c-52.667 -92.667 -113.334 -177.334 -182.001 -254.001c-50 -55.333 -101.167 -95.666 -153.5 -120.999s-98.833 -38 -139.5 -38c-50.667 0 -92.834 14 -126.501 42
s-50.5 61.667 -50.5 101c0 32 10.333 59.167 31 81.5s44.667 33.5 72 33.5c25.333 0 47.166 -9.16699 65.499 -27.5s27.5 -39.5 27.5 -63.5l-2 -35l-1 -12c0 -11.333 4 -20.333 12 -27c8 -7.33301 19 -11 33 -11c37.333 0 79.666 21 126.999 63
c73.333 64.667 146.333 159.667 219 285l-65 340c-36.667 191.333 -74.334 323.333 -113.001 396c-22.667 41.333 -43.667 62 -63 62c-35.333 0 -74 -61 -116 -183l-61 25c38 106.667 82 186 132 238c36 38 73.333 57 112 57c40 0 71.667 -17.667 95 -53
c34 -50 74.333 -167.333 121 -352z" />
    <glyph glyph-name="z" unicode="z" horiz-adv-x="948" 
d="M162 188c88.667 14 149.334 20.9941 182.001 20.9941c25.333 0 50.333 -2.66699 75 -8c16.667 -3.33301 44.667 -13 84 -29c46.667 -18.667 78.167 -30 94.5 -34s33.833 -6 52.5 -6c37.333 0 70.833 12.167 100.5 36.5s61.834 72.833 96.501 145.5l48 -33
c-42 -98.667 -94.833 -175 -158.5 -229s-121.5 -81 -173.5 -81c-24.667 0 -51.5 4 -80.5 12s-80.5 28 -154.5 60c-68 29.333 -112.167 47.333 -132.5 54s-44.833 12.334 -73.5 17.001c-6.66699 -18 -11.667 -38.667 -15 -62c-4.66699 -36 -10.334 -58.5 -17.001 -67.5
s-17.334 -13.5 -32.001 -13.5s-25.5 3.33301 -32.5 10s-10.5 17 -10.5 31c0 25.333 7.5 57.333 22.5 96s40.833 81.834 77.5 129.501s79.167 91.167 127.5 130.5s121.5 87.333 219.5 144c131.333 76 219.666 132 264.999 168s78 69.333 98 100
c-44.667 -15.333 -89.334 -23 -134.001 -23c-34 0 -88.667 10.667 -164 32c-73.333 21.333 -125.333 32 -156 32c-40 0 -74.667 -10.667 -104 -32s-60.666 -63.666 -93.999 -126.999l-51 30c48 94.667 100.833 163.834 158.5 207.501s114.5 65.5 170.5 65.5
c25.333 0 51.833 -3.16699 79.5 -9.5s66.5 -20.166 116.5 -41.499c78.667 -33.333 132.334 -50 161.001 -50c42 0 68.667 23 80 69c6 21.333 14.333 32 25 32c10 0 19.333 -4.16699 28 -12.5s13 -17.833 13 -28.5c0 -36 -18 -82 -54 -138
c-57.333 -90 -134.666 -173.333 -231.999 -250c-57.333 -45.333 -154.333 -107 -291 -185c-82.667 -46.667 -135.334 -79.167 -158.001 -97.5s-41.667 -40.166 -57 -65.499z" />
    <glyph glyph-name="braceleft" unicode="{" 
d="M500 -363l-10.002 -36.001c-90 12 -161.167 46.667 -213.5 104s-78.5 125 -78.5 203c0 31.333 5.16699 64.666 15.5 99.999s32.5 89.333 66.5 162c32.667 68.667 52.334 113.667 59.001 135s10 41.333 10 60c0 44 -15.667 81.833 -47 113.5s-76 51.5 -134 59.5l11 42
c64.667 8 121.167 28.5 169.5 61.5s83.333 70.833 105 113.5s34.167 109.334 37.5 200.001c2.66699 86 14.834 156.667 36.501 212s55.667 107.833 102 157.5s100.833 91 163.5 124s133 55.833 211 68.5l-10 -38c-72.667 -16 -131.167 -39.833 -175.5 -71.5
s-77.833 -70.167 -100.5 -115.5s-35.667 -107.333 -39 -186c-3.33301 -82 -9 -138.667 -17 -170c-12.667 -53.333 -36.167 -104.166 -70.5 -152.499s-79.833 -91.5 -136.5 -129.5s-122 -69 -196 -93c68.667 -27.333 122 -66.5 160 -117.5s57 -105.5 57 -163.5
c0 -28 -4.5 -58.167 -13.5 -90.5s-28.833 -79.833 -59.5 -142.5c-35.333 -74 -57.333 -124.667 -66 -152s-13 -52.333 -13 -75c0 -93.333 58.667 -154.333 176 -183z" />
    <glyph glyph-name="bar" unicode="|" horiz-adv-x="1241" 
d="M650 1479h134v-1864h-134v1864z" />
    <glyph glyph-name="braceright" unicode="}" 
d="M-169 -363c76.667 16.667 139.83 44.667 189.497 84s83.834 86.666 102.501 141.999c11.333 32.667 19.333 94 24 184c5.33301 97.333 21.833 173.5 49.5 228.5s74.5 109.167 140.5 162.5s142.667 94.333 230 123c-73.333 28.667 -128.166 67.167 -164.499 115.5
s-54.5 102.166 -54.5 161.499c0 28.667 5.33301 60.834 16 96.501s35.667 92.834 75 171.501c40 82 60 145.333 60 190c0 92.667 -58.333 153.667 -175 183l10 38c95.333 -16 167.833 -51.5 217.5 -106.5s74.5 -120.833 74.5 -197.5c0 -34.667 -5.16699 -70.5 -15.5 -107.5
s-31.833 -87.167 -64.5 -150.5c-46.667 -93.333 -70 -159.333 -70 -198c0 -46.667 15.333 -85.834 46 -117.501s75.667 -51.5 135 -59.5l-12 -42c-66 -8.66699 -124.667 -31 -176 -67s-87.333 -78.333 -108 -127c-11.333 -27.333 -19.666 -85.333 -24.999 -174
c-6.66699 -107.333 -22.334 -187.666 -47.001 -240.999c-40 -86 -103.667 -159 -191 -219s-179.666 -96.333 -276.999 -109z" />
    <glyph glyph-name="asciitilde" unicode="~" horiz-adv-x="1241" 
d="M1212 849l53 -0.000976562c-2 -96 -27.833 -171.5 -77.5 -226.5s-111.5 -82.5 -185.5 -82.5c-34 0 -70 5.5 -108 16.5s-128.333 46.167 -271 105.5c-101.333 42 -173.666 63 -216.999 63c-99.333 0 -160.333 -61 -183 -183h-53c5.33301 102 31.666 179 78.999 231
s105.333 78 174 78c34.667 0 70.667 -5.66699 108 -17c69.333 -20 162.333 -55.333 279 -106c62.667 -27.333 112.667 -46.333 150 -57c21.333 -5.33301 44.333 -8 69 -8c49.333 0 90.5 15.833 123.5 47.5s52.833 77.834 59.5 138.501z" />
    <glyph glyph-name="nbspace" unicode="&#xa0;" horiz-adv-x="588" 
 />
    <glyph glyph-name="exclamdown" unicode="&#xa1;" 
d="M516 894c-34 0 -62.833 12 -86.5 36s-35.5 53.333 -35.5 88c0 34 11.833 63.167 35.5 87.5s52.5 36.5 86.5 36.5c33.333 0 61.833 -12 85.5 -36s35.5 -53.333 35.5 -88s-11.833 -64 -35.5 -88s-52.167 -36 -85.5 -36zM402 729l64 0.000976562l-129 -526
c-17.333 -82 -37 -197 -59 -345c-16 -110 -33.667 -180.5 -53 -211.5s-50.333 -46.5 -93 -46.5c-30 0 -55.333 10.5 -76 31.5s-31 47.5 -31 79.5c0 20.667 3.83301 43.5 11.5 68.5s34.5 89.167 80.5 192.5c119.333 271.333 214.333 523.666 285 756.999z" />
    <glyph glyph-name="cent" unicode="&#xa2;" horiz-adv-x="1139" 
d="M891 1517l69 -0.00195312l-156 -563c62 0 113 -19 153 -57s60 -87 60 -147c0 -44.667 -10.833 -80 -32.5 -106s-48.5 -39 -80.5 -39c-28 0 -52.167 9.33301 -72.5 28s-30.5 40.667 -30.5 66c0 42 20.667 70.667 62 86c22 8 35.667 14.667 41 20s8 12.666 8 21.999
c0 16.667 -10.5 31.834 -31.5 45.501s-52.167 20.834 -93.5 21.501l-237 -830c26.667 -8.66699 50.667 -13 72 -13c95.333 0 191 62.667 287 188l51 -35c-114 -157.333 -245 -236 -393 -236l-43 2l-119 -398h-70l122 410c-72.667 27.333 -129.5 71.833 -170.5 133.5
s-61.5 133.5 -61.5 215.5c0 80.667 18.833 169.334 56.5 266.001s98.667 177.667 183 243s174.5 103.333 270.5 114zM712 881.998c-75.333 -21.333 -141.667 -80.333 -199 -177c-67.333 -114 -101 -244.333 -101 -391c0 -96.667 26 -168.667 78 -216z" />
    <glyph glyph-name="sterling" unicode="&#xa3;" horiz-adv-x="1139" 
d="M603 750h326.001l-22 -83h-304c-2 -153.333 -27 -291.666 -75 -414.999c57.333 -35.333 104.333 -59 141 -71s72.667 -18 108 -18c60 0 111.333 13.333 154 40s82.667 74 120 142l66 -25c-63.333 -130.667 -127.333 -221.5 -192 -272.5s-130.667 -76.5 -198 -76.5
c-38.667 0 -79.334 10.667 -122.001 32c-28 14 -68.333 45 -121 93l-34 29c-82 -102.667 -169.333 -154 -262 -154c-61.333 0 -109.333 17.5 -144 52.5s-52 84.167 -52 147.5c0 64 19.833 114.667 59.5 152s92.5 56 158.5 56c67.333 0 142.333 -26.333 225 -79
c10 42 15 86 15 132c0 86.667 -7.33301 165 -22 235h-302l23 83h268c-14 94.667 -21 159.334 -21 194.001c0 128.667 46.167 239 138.5 331s203.5 138 333.5 138c110.667 0 191.667 -31.667 243 -95s77 -132.333 77 -207c0 -54.667 -12.833 -97.167 -38.5 -127.5
s-58.167 -45.5 -97.5 -45.5c-34.667 0 -63.5 11.667 -86.5 35s-34.5 53.666 -34.5 90.999c0 22.667 4 42 12 58s23.333 33.667 46 53c19.333 16.667 31 28.167 35 34.5s6 14.5 6 24.5c0 32 -12.167 57.5 -36.5 76.5s-61.833 28.5 -112.5 28.5
c-89.333 0 -160.333 -32.667 -213 -98s-79 -167.333 -79 -306c0 -42.667 4.66699 -104.334 14 -185.001zM386.001 181c-42.667 40 -78.167 66.834 -106.5 80.501s-56.833 20.5 -85.5 20.5c-38.667 0 -69 -11 -91 -33s-33 -51.667 -33 -89c0 -36.667 10 -65.334 30 -86.001
s47.667 -31 83 -31c74 0 141.667 46 203 138z" />
    <glyph glyph-name="currency" unicode="&#xa4;" horiz-adv-x="1241" 
d="M126 1076l90.002 91.001l131 -130c41.333 31.333 84.666 54.666 129.999 69.999s92.666 23 141.999 23c98.667 0 191 -31 277 -93l130 130l90 -91l-130 -130c62 -87.333 93 -180.333 93 -279c0 -100 -31 -189.667 -93 -269l130 -129l-90 -90l-130 129
c-43.333 -31.333 -88.333 -54.833 -135 -70.5s-94.667 -23.5 -144 -23.5c-99.333 0 -189.333 31.333 -270 94l-131 -129l-90 90l131 129c-61.333 95.333 -92 189 -92 281c0 92.667 30.667 181.667 92 267zM622.002 1001c-91.333 0 -169.164 -32.167 -233.497 -96.5
s-96.5 -142.166 -96.5 -233.499c0 -90.667 32.167 -168.167 96.5 -232.5s142.166 -96.5 233.499 -96.5s169.166 32.167 233.499 96.5s96.5 141.833 96.5 232.5c0 91.333 -32.333 169.166 -97 233.499s-142.334 96.5 -233.001 96.5z" />
    <glyph glyph-name="yen" unicode="&#xa5;" horiz-adv-x="1139" 
d="M811 696h414.999l-13 -74h-468l-59 -228h466l-14 -74h-470l-43 -167c-4 -16 -6 -26.667 -6 -32c0 -14 6 -24.333 18 -31c16.667 -10 43.334 -15 80.001 -15h94l-15 -75h-613l19 75h104c38 0 64.5 5.33301 79.5 16s26.5 31.334 34.5 62.001l44 167h-435l14 74h439l57 228
h-451l14 74h413l-215 571c-14 37.333 -46.667 56 -98 56h-54l17 70h552l-15 -70h-92c-40 0 -66.833 -4.33301 -80.5 -13s-20.5 -20.334 -20.5 -35.001c0 -9.33301 2 -20 6 -32l202 -547l329 477c21.333 30.667 32 55 32 73c0 44 -56.667 69.667 -170 77l22 70h431l-18 -70
c-64 -8 -116 -41.333 -156 -100z" />
    <glyph glyph-name="brokenbar" unicode="&#xa6;" horiz-adv-x="1241" 
d="M650 1479h134v-820h-134v820zM650 434h134v-819h-134v819z" />
    <glyph glyph-name="section" unicode="&#xa7;" horiz-adv-x="1024" 
d="M590 187c47.333 -82.667 71.0029 -162.001 71.0029 -238.001c0 -100.667 -33.333 -184 -100 -250s-153 -99 -259 -99c-78 0 -138.333 16.667 -181 50s-64 75 -64 125c0 36 10.833 66.167 32.5 90.5s47.167 36.5 76.5 36.5s54.666 -10.5 75.999 -31.5s32 -45.5 32 -73.5
c0 -26.667 -12.667 -48.334 -38 -65.001c-21.333 -13.333 -32 -24.333 -32 -33c0 -10.667 7.66699 -20.5 23 -29.5s41 -13.5 77 -13.5c73.333 0 130.166 18.833 170.499 56.5s60.5 87.834 60.5 150.501c0 36 -6 69.667 -18 101s-42 83 -90 155
c-90.667 136.667 -146.834 231 -168.501 283s-32.5 103 -32.5 153c0 76.667 21.667 145 65 205s118.666 115.667 225.999 167c-27.333 52 -45.833 94.833 -55.5 128.5s-14.5 68.834 -14.5 105.501c0 104 33 189.5 99 256.5s150.333 100.5 253 100.5
c84 0 147.5 -16.5 190.5 -49.5s64.5 -75.167 64.5 -126.5c0 -38.667 -10.667 -69.834 -32 -93.501s-47.666 -35.5 -78.999 -35.5c-29.333 0 -54.166 9.66699 -74.499 29s-30.5 43 -30.5 71c0 30.667 15 55.334 45 74.001c16 10 24 19.667 24 29c0 10 -6.66699 18.667 -20 26
c-20 10 -49 15 -87 15c-70.667 0 -126.334 -19.333 -167.001 -58s-61 -89 -61 -151c0 -32.667 7.33301 -67.5 22 -104.5s50.667 -97.5 108 -181.5c73.333 -108 121.333 -189.833 144 -245.5s34 -108.5 34 -158.5c0 -78 -21.167 -146.333 -63.5 -205
s-117.833 -114 -226.5 -166zM542.003 882.999c-66.667 -33.333 -112.166 -68 -136.499 -104s-36.5 -79 -36.5 -129c0 -37.333 9 -77.5 27 -120.5s75.333 -142.167 172 -297.5c61.333 28.667 104.666 61 129.999 97s38 79 38 129c0 41.333 -10.167 87 -30.5 137
s-74.833 146 -163.5 288z" />
    <glyph glyph-name="dieresis" unicode="&#xa8;" 
d="M351 1382c28.667 0 53.002 -10.167 73.002 -30.5s30 -44.833 30 -73.5c0 -30 -10 -55.167 -30 -75.5s-44.333 -30.5 -73 -30.5s-53.334 10.167 -74.001 30.5s-31 45.166 -31 74.499c0 28.667 10.167 53.334 30.5 74.001s45.166 31 74.499 31zM748.002 1382
c28 0 52.001 -10.167 72.001 -30.5s30 -45.5 30 -75.5c0 -29.333 -10 -54.333 -30 -75s-44.333 -31 -73 -31s-53.334 10.333 -74.001 31s-31 45.667 -31 75s10.333 54.333 31 75s45.667 31 75 31z" />
    <glyph glyph-name="copyright" unicode="&#xa9;" horiz-adv-x="1530" 
d="M861 1413c128.667 0 248.667 -32.167 360 -96.5s199.166 -152.166 263.499 -263.499s96.5 -231.333 96.5 -360c0 -128 -32.167 -247.667 -96.5 -359s-152.166 -199.166 -263.499 -263.499s-231.333 -96.5 -360 -96.5c-128 0 -247.667 32.167 -359 96.5
s-199.166 152.166 -263.499 263.499s-96.5 231 -96.5 359c0 128.667 32.167 248.667 96.5 360s152.166 199.166 263.499 263.499s231 96.5 359 96.5zM861 1350c-117.333 0 -226.833 -29.332 -328.5 -87.999s-181.834 -138.834 -240.501 -240.501s-88 -211.167 -88 -328.5
s29.333 -226.833 88 -328.5s138.834 -181.834 240.501 -240.501s211.167 -88 328.5 -88s226.833 29.333 328.5 88s181.834 138.834 240.501 240.501s88 211.167 88 328.5c0 118 -29.333 227.667 -88 329s-138.834 181.333 -240.501 240s-211.167 88 -328.5 88zM1217 1155
l20.001 -283.003h-40c-48 159.333 -150.667 239 -308 239c-98 0 -176.5 -34 -235.5 -102s-88.5 -168 -88.5 -300c0 -135.333 30.333 -237.666 91 -306.999s141.667 -104 243 -104c132.667 0 238.667 54.667 318 164l38 -19c-93.333 -137.333 -223.333 -206 -390 -206
c-88 0 -168 19.833 -240 59.5s-128.167 94.667 -168.5 165s-60.5 146.833 -60.5 229.5c0 128.667 47.667 238.334 143 329.001s214 136 356 136c52.667 0 117.334 -12.667 194.001 -38c16.667 -5.33301 29 -8 37 -8c11.333 0 20.666 2.83301 27.999 8.5
s14.666 17.834 21.999 36.501h41z" />
    <glyph glyph-name="ordfeminine" unicode="&#xaa;" horiz-adv-x="864" 
d="M636 997c-52.667 -60 -108.667 -89.999 -168 -89.999c-56 0 -103.167 20.167 -141.5 60.5s-57.5 92.166 -57.5 155.499c0 100 36.5 190.667 109.5 272s148.833 122 227.5 122c30 0 55.833 -6.16699 77.5 -18.5s43.5 -35.833 65.5 -70.5l25 70l127 14l-146 -469
c-4 -12 -6 -23.333 -6 -34c0 -18.667 5.33301 -28 16 -28c10 0 22.667 8.33301 38 25c31.333 33.333 60.666 77 87.999 131l58 -24c-70.667 -137.333 -144.667 -206 -222 -206c-53.333 0 -83.666 30 -90.999 90zM619 1453c-46 0 -87.667 -28.999 -125 -86.999
c-56 -86 -84 -178.667 -84 -278c0 -40 7 -69 21 -87s34 -27 60 -27c27.333 0 54.833 12.167 82.5 36.5s56.5 73.166 86.5 146.499s45 135.333 45 186c0 32 -8.83301 58.333 -26.5 79s-37.5 31 -59.5 31z" />
    <glyph glyph-name="guillemotleft" unicode="&#xab;" horiz-adv-x="872" 
d="M418 985h83l-225 -450l57 -401h-83l-154 427zM862 985h86l-227 -446l53 -405h-80l-153 426z" />
    <glyph glyph-name="logicalnot" unicode="&#xac;" horiz-adv-x="1241" 
d="M165 1001h1104v-608h-132v474h-972v134z" />
    <glyph glyph-name="registered" unicode="&#xae;" horiz-adv-x="1530" 
d="M861 1413c128.667 0 248.667 -32.167 360 -96.5s199.166 -152.166 263.499 -263.499s96.5 -231.333 96.5 -360c0 -128 -32.167 -247.667 -96.5 -359s-152.166 -199.166 -263.499 -263.499s-231.333 -96.5 -360 -96.5c-128 0 -247.667 32.167 -359 96.5
s-199.166 152.166 -263.499 263.499s-96.5 231 -96.5 359c0 128.667 32.167 248.667 96.5 360s152.166 199.166 263.499 263.499s231 96.5 359 96.5zM861 1350c-117.333 0 -226.833 -29.332 -328.5 -87.999s-181.834 -138.834 -240.501 -240.501s-88 -211.167 -88 -328.5
s29.333 -226.833 88 -328.5s138.834 -181.834 240.501 -240.501s211.167 -88 328.5 -88s226.833 29.333 328.5 88s181.834 138.834 240.501 240.501s88 211.167 88 328.5c0 118 -29.333 227.667 -88 329s-138.834 181.333 -240.501 240s-211.167 88 -328.5 88zM463 1136
l390.997 -0.000976562c95.333 0 169.5 -21.667 222.5 -65s79.5 -98 79.5 -164c0 -56.667 -18.667 -103.667 -56 -141s-93.666 -65 -168.999 -83l212 -303c24.667 -34.667 45.5 -57.667 62.5 -69s36.833 -17.666 59.5 -18.999v-34h-186l-298 411h-77v-289
c0 -34 7.5 -57.167 22.5 -69.5s47.167 -18.5 96.5 -18.5v-34h-372v34c32.667 0 55.834 4 69.501 12s23.834 20 30.501 36c4 10 6 40.667 6 92v568c0 38.667 -6.5 64.667 -19.5 78s-37.833 20.333 -74.5 21v37zM703.997 713h30c89.333 0 154.833 16.667 196.5 50
s62.5 78.333 62.5 135c0 54 -19.333 99.5 -58 136.5s-87 55.5 -145 55.5c-26 0 -54.667 -5 -86 -15v-362z" />
    <glyph glyph-name="overscore" unicode="&#xaf;" horiz-adv-x="1024" 
d="M290 1694h1048v-102h-1048v102z" />
    <glyph glyph-name="degree" unicode="&#xb0;" horiz-adv-x="819" 
d="M566 1414c86.667 0 160.334 -30.5 221.001 -91.5s91 -134.5 91 -220.5s-30.333 -159.5 -91 -220.5s-134.334 -91.5 -221.001 -91.5c-86 0 -159.333 30.5 -220 91.5s-91 134.5 -91 220.5s30.333 159.5 91 220.5s134 91.5 220 91.5zM567 1298
c-52.667 0 -97.667 -18.667 -135 -56s-56 -82.333 -56 -135s18.667 -97.667 56 -135s82.333 -56 135 -56s97.667 18.667 135 56s56 82.333 56 135s-18.667 97.667 -56 135s-82.333 56 -135 56z" />
    <glyph glyph-name="plusminus" unicode="&#xb1;" horiz-adv-x="1124" 
d="M23 141v81h498v418h-498v82h498v497h80v-497h500v-82h-500v-418h501l-1 -81h-1078z" />
    <glyph glyph-name="twosuperior" unicode="&#xb2;" 
d="M275 816h263.998c26 0 45.833 5.66699 59.5 17s28.834 37 45.501 77h49l-70 -207h-477l23 77c92.667 84.667 172.667 152 240 202c92 68 149 118 171 150s33 66.333 33 103c0 38 -12.167 69.167 -36.5 93.5s-56.166 36.5 -95.499 36.5
c-34.667 0 -63.667 -8.83301 -87 -26.5s-35 -36.167 -35 -55.5c0 -14 11 -27 33 -39c28 -15.333 42 -34.333 42 -57c0 -20 -6.83301 -36.833 -20.5 -50.5s-31.167 -20.5 -52.5 -20.5c-24.667 0 -45.667 10.167 -63 30.5s-26 46.5 -26 78.5c0 49.333 23.833 93 71.5 131
s111.167 57 190.5 57c68.667 0 122.5 -17.833 161.5 -53.5s58.5 -81.5 58.5 -137.5c0 -31.333 -7.16699 -61 -21.5 -89s-37.333 -55 -69 -81s-85.5 -57.667 -161.5 -95c-98 -47.333 -173.667 -94.333 -227 -141z" />
    <glyph glyph-name="threesuperior" unicode="&#xb3;" 
d="M556 1057c47.333 -17.333 82.6641 -40.167 105.997 -68.5s35 -62.5 35 -102.5c0 -58.667 -23.833 -107.167 -71.5 -145.5s-116.167 -57.5 -205.5 -57.5c-76.667 0 -136 16.5 -178 49.5s-63 72.167 -63 117.5c0 29.333 7.83301 53.166 23.5 71.499
s34.834 27.5 57.501 27.5c19.333 0 35.166 -6.33301 47.499 -19s18.5 -29 18.5 -49c0 -20.667 -9.33301 -40 -28 -58c-12.667 -12 -19 -22 -19 -30c0 -14 8.33301 -26.667 25 -38c23.333 -14.667 51.333 -22 84 -22c48.667 0 88.334 16.667 119.001 50s46 81 46 143
c0 34.667 -9 61 -27 79c-18.667 18 -44 27 -76 27l-36 -2l-31 -3c-16 0 -27 2.16699 -33 6.5s-9 10.5 -9 18.5c0 20.667 11.333 31 34 31l22 -1l29 -1c68 0 118.333 15.333 151 46c32.667 30 49 73.333 49 130c0 32.667 -9.66699 59 -29 79s-43.666 30 -72.999 30
s-54.666 -7 -75.999 -21c-16.667 -10.667 -25 -21.334 -25 -32.001c0 -4.66699 3.66699 -12.667 11 -24c9.33301 -16 14 -31 14 -45c0 -19.333 -5.83301 -35.166 -17.5 -47.499s-26.167 -18.5 -43.5 -18.5c-21.333 0 -39.5 7.83301 -54.5 23.5s-22.5 35.5 -22.5 59.5
c0 37.333 22.167 72 66.5 104s103.833 48 178.5 48c65.333 0 116.5 -15.833 153.5 -47.5s55.5 -71.834 55.5 -120.501c0 -49.333 -17.333 -89.666 -52 -120.999s-86.667 -53.666 -156 -66.999z" />
    <glyph glyph-name="acute" unicode="&#xb4;" 
d="M384 1088l-22.001 23l232 275c53.333 63.333 94.333 95 123 95c20.667 0 39.334 -8.33301 56.001 -25s25 -35 25 -55c0 -44 -34.667 -86.667 -104 -128z" />
    <glyph glyph-name="mu1" unicode="&#xb5;" horiz-adv-x="1180" 
d="M365 881l152.001 0.00292969l-147 -510c-22 -76.667 -34.5 -122.167 -37.5 -136.5s-4.5 -29.5 -4.5 -45.5c0 -40 9 -69.833 27 -89.5s41.667 -29.5 71 -29.5c28.667 0 67.334 18 116.001 54s106.334 108 173.001 216c15.333 33.333 33.666 87 54.999 161l111 380h151
l-167 -578l-28 -95c-3.33301 -19.333 -5 -38 -5 -56c0 -26.667 5.5 -46.5 16.5 -59.5s24.833 -19.5 41.5 -19.5c18.667 0 37 7.33301 55 22c24 20 51 60 81 120h36c-18.667 -58 -57.834 -112.333 -117.501 -163s-104.834 -76 -135.501 -76c-36 0 -66.833 13.167 -92.5 39.5
s-38.5 62.166 -38.5 107.499c0 20 1.66699 46.333 5 79c-52 -76 -107.167 -132.667 -165.5 -170s-110.5 -56 -156.5 -56c-40.667 0 -75.667 10 -105 30c-18.667 13.333 -37.667 39.333 -57 78c-18.667 -62 -31.5 -111.833 -38.5 -149.5s-14.833 -106.834 -23.5 -207.501
c-6 -64.667 -18.833 -108.834 -38.5 -132.501s-43.167 -35.5 -70.5 -35.5c-22 0 -38.667 6.33301 -50 19c-16 17.333 -24 37 -24 59c0 16 3.16699 32.667 9.5 50s28.833 63.333 67.5 138c22 42.667 42.667 90.167 62 142.5s45.333 134.833 78 247.5z" />
    <glyph glyph-name="paragraph" unicode="&#xb6;" horiz-adv-x="1331" 
d="M1169 1479l-0.000976562 -41.001h-42c-36.667 0 -62.667 -5.16699 -78 -15.5s-26.166 -26 -32.499 -47s-9.5 -69.833 -9.5 -146.5v-1614h-75v1805h-193v-1805h-76v1080c-132 5.33301 -230 22.333 -294 51s-114 73 -150 133s-54 130 -54 210s16.333 145 49 195
c42.667 66.667 97 115.834 163 147.501s151 47.5 255 47.5h537z" />
    <glyph glyph-name="middot" unicode="&#xb7;" 
d="M653 840c28 0 52.001 -10.1689 72.001 -30.502s30 -45.166 30 -74.499c0 -30 -10 -55.167 -30 -75.5s-44.333 -30.5 -73 -30.5s-53.334 10.333 -74.001 31s-31 45.667 -31 75c0 28.667 10.333 53.334 31 74.001s45.667 31 75 31z" />
    <glyph glyph-name="cedilla" unicode="&#xb8;" 
d="M148 12l52.001 -0.00292969l-38 -45c75.333 -34 113 -83.333 113 -148c0 -35.333 -10.667 -65.666 -32 -90.999c-28.667 -34.667 -72.5 -62.834 -131.5 -84.501s-142.5 -35.5 -250.5 -41.5l20 77c85.333 4.66699 145.166 17.334 179.499 38.001s51.5 43.334 51.5 68.001
c0 16 -5.33301 29.833 -16 41.5s-34.667 25.834 -72 42.501z" />
    <glyph glyph-name="onesuperior" unicode="&#xb9;" 
d="M394 1347c90 10 170.001 32.333 240.001 67h36l-168 -602c-4 -14 -6 -25 -6 -33c0 -17.333 12 -26 36 -26h77l-9 -50h-365l14 50h55c42 0 67.333 16.667 76 50l122 445l1 11c0 14 -4.33301 24.833 -13 32.5s-22.334 11.5 -41.001 11.5h-69z" />
    <glyph glyph-name="ordmasculine" unicode="&#xba;" horiz-adv-x="762" 
d="M593 1517c71.333 0 131.167 -24.002 179.5 -72.002s72.5 -107.333 72.5 -178c0 -95.333 -35.167 -179.166 -105.5 -251.499s-152.5 -108.5 -246.5 -108.5c-71.333 0 -131.5 24.333 -180.5 73s-73.5 108.334 -73.5 179.001c0 92 36 174.667 108 248s154 110 246 110z
M595.001 1463c-30.667 0 -61.498 -12.834 -92.498 -38.501s-59.333 -69.667 -85 -132s-38.5 -124.166 -38.5 -185.499c0 -46.667 10.5 -82.834 31.5 -108.501s47.5 -38.5 79.5 -38.5c31.333 0 62.166 12.667 92.499 38s58.666 70.333 84.999 135s39.5 127.334 39.5 188.001
c0 44.667 -10.5 79.5 -31.5 104.5s-47.833 37.5 -80.5 37.5z" />
    <glyph glyph-name="guillemotright" unicode="&#xbb;" horiz-adv-x="872" 
d="M174 985h79l154 -424l-321 -427h-86l228 449zM613 985h85l152 -425l-318 -426h-85l226 455z" />
    <glyph glyph-name="onequarter" unicode="&#xbc;" horiz-adv-x="1706" 
d="M394 1347c90 10 170.001 32.333 240.001 67h36l-168 -602c-4 -14 -6 -25 -6 -33c0 -17.333 12 -26 36 -26h77l-9 -50h-365l14 50h55c42 0 67.333 16.667 76 50l122 445l1 11c0 14 -4.33301 24.833 -13 32.5s-22.334 11.5 -41.001 11.5h-69zM1347 1394h87l-957 -1394h-85z
M976.001 249l503 460h43l-126 -468h94l-17 -63h-98l-23 -79c-1.33301 -5.33301 -2 -11 -2 -17c0 -11.333 3 -19.333 9 -24c8.66699 -6.66699 21 -10 37 -10h41l-13 -48h-320l10 48h37c30 0 53.333 8.83301 70 26.5s30 52.167 40 103.5h-304zM1352 514l-297 -273h223z" />
    <glyph glyph-name="onehalf" unicode="&#xbd;" horiz-adv-x="1706" 
d="M394 1347c90 10 170.001 32.333 240.001 67h36l-168 -602c-4 -14 -6 -25 -6 -33c0 -17.333 12 -26 36 -26h77l-9 -50h-365l14 50h55c42 0 67.333 16.667 76 50l122 445l1 11c0 14 -4.33301 24.833 -13 32.5s-22.334 11.5 -41.001 11.5h-69zM1347 1394h87l-957 -1394h-85z
M1138 113h263.998c26 0 45.833 5.66699 59.5 17s28.834 37 45.501 77h49l-70 -207h-477l23 77c92.667 84.667 172.667 152 240 202c92 68 149 118 171 150s33 66.333 33 103c0 38 -12.167 69.167 -36.5 93.5s-56.166 36.5 -95.499 36.5
c-34.667 0 -63.667 -8.83301 -87 -26.5s-35 -36.167 -35 -55.5c0 -14 11 -27 33 -39c28 -15.333 42 -34.333 42 -57c0 -20 -6.83301 -36.833 -20.5 -50.5s-31.167 -20.5 -52.5 -20.5c-24.667 0 -45.667 10.167 -63 30.5s-26 46.5 -26 78.5c0 49.333 23.833 93 71.5 131
s111.167 57 190.5 57c68.667 0 122.5 -17.833 161.5 -53.5s58.5 -81.5 58.5 -137.5c0 -31.333 -7.16699 -61 -21.5 -89s-37.333 -55 -69 -81s-85.5 -57.667 -161.5 -95c-98 -47.333 -173.667 -94.333 -227 -141z" />
    <glyph glyph-name="threequarters" unicode="&#xbe;" horiz-adv-x="1706" 
d="M556 1057c47.333 -17.333 82.6641 -40.167 105.997 -68.5s35 -62.5 35 -102.5c0 -58.667 -23.833 -107.167 -71.5 -145.5s-116.167 -57.5 -205.5 -57.5c-76.667 0 -136 16.5 -178 49.5s-63 72.167 -63 117.5c0 29.333 7.83301 53.166 23.5 71.499
s34.834 27.5 57.501 27.5c19.333 0 35.166 -6.33301 47.499 -19s18.5 -29 18.5 -49c0 -20.667 -9.33301 -40 -28 -58c-12.667 -12 -19 -22 -19 -30c0 -14 8.33301 -26.667 25 -38c23.333 -14.667 51.333 -22 84 -22c48.667 0 88.334 16.667 119.001 50s46 81 46 143
c0 34.667 -9 61 -27 79c-18.667 18 -44 27 -76 27l-36 -2l-31 -3c-16 0 -27 2.16699 -33 6.5s-9 10.5 -9 18.5c0 20.667 11.333 31 34 31l22 -1l29 -1c68 0 118.333 15.333 151 46c32.667 30 49 73.333 49 130c0 32.667 -9.66699 59 -29 79s-43.666 30 -72.999 30
s-54.666 -7 -75.999 -21c-16.667 -10.667 -25 -21.334 -25 -32.001c0 -4.66699 3.66699 -12.667 11 -24c9.33301 -16 14 -31 14 -45c0 -19.333 -5.83301 -35.166 -17.5 -47.499s-26.167 -18.5 -43.5 -18.5c-21.333 0 -39.5 7.83301 -54.5 23.5s-22.5 35.5 -22.5 59.5
c0 37.333 22.167 72 66.5 104s103.833 48 178.5 48c65.333 0 116.5 -15.833 153.5 -47.5s55.5 -71.834 55.5 -120.501c0 -49.333 -17.333 -89.666 -52 -120.999s-86.667 -53.666 -156 -66.999zM1369 1394h87l-957 -1394h-85zM975.998 248.999l503 460h43l-126 -468h94
l-17 -63h-98l-23 -79c-1.33301 -5.33301 -2 -11 -2 -17c0 -11.333 3 -19.333 9 -24c8.66699 -6.66699 21 -10 37 -10h41l-13 -48h-320l10 48h37c30 0 53.333 8.83301 70 26.5s30 52.167 40 103.5h-304zM1352 513.999l-297 -273h223z" />
    <glyph glyph-name="questiondown" unicode="&#xbf;" horiz-adv-x="909" 
d="M661 901c-33.333 0 -61.666 11.833 -84.999 35.5s-35 52.167 -35 85.5c0 34 11.667 63 35 87s51.666 36 84.999 36c34 0 62.833 -12 86.5 -36s35.5 -52.667 35.5 -86c0 -34 -11.833 -62.833 -35.5 -86.5s-52.5 -35.5 -86.5 -35.5zM397 476l-53.999 30.998
c28.667 80.667 62.334 137.5 101.001 170.5s82.334 49.5 131.001 49.5c52.667 0 95.667 -18.167 129 -54.5s50 -86.166 50 -149.499c0 -39.333 -7.83301 -78.833 -23.5 -118.5s-40.834 -80.667 -75.501 -123s-97.334 -101.5 -188.001 -177.5
c-96 -81.333 -154.167 -137.5 -174.5 -168.5s-30.5 -64.833 -30.5 -101.5c0 -45.333 16.167 -83.833 48.5 -115.5s72.833 -47.5 121.5 -47.5c74.667 0 140 29.5 196 88.5s84 130.833 84 215.5c0 21.333 -2.66699 46.333 -8 75l59 12c8.66699 -33.333 13 -62.666 13 -87.999
c0 -64 -16 -125.333 -48 -184s-74.667 -104 -128 -136s-110.333 -48 -171 -48c-78.667 0 -144.334 26.667 -197.001 80s-79 121 -79 203c0 48 8.33301 92.167 25 132.5s43.667 79.5 81 117.5s100 85 188 141c82.667 51.333 139.167 98.5 169.5 141.5s45.5 86.167 45.5 129.5
c0 32 -9.83301 58.667 -29.5 80s-42.5 32 -68.5 32c-66 0 -121.667 -62.333 -167 -187z" />
    <glyph glyph-name="Agrave" unicode="&#xc0;" horiz-adv-x="1442" 
d="M961 1479l80.999 0.000976562l180 -1304c4.66699 -34.667 18.5 -60 41.5 -76s58.5 -24 106.5 -24h50l-20 -75h-600l20 75h53c57.333 0 94.833 6 112.5 18s26.5 30.667 26.5 56c0 10 -1 21.667 -3 35l-41 299h-534l-131 -206c-23.333 -36.667 -35 -73.334 -35 -110.001
c0 -29.333 10.833 -52 32.5 -68s56.834 -24 105.501 -24h49l-21 -75h-526l20 75c53.333 4 99.333 19 138 45s78 70.333 118 133zM872.999 1175l-383 -604h466zM1232 1614l-22 -22.001l-310 183c-70.667 42 -106 84.667 -106 128c0 20.667 8.16699 39.334 24.5 56.001
s34.5 25 54.5 25c32 0 64.333 -19.333 97 -58z" />
    <glyph glyph-name="Aacute" unicode="&#xc1;" horiz-adv-x="1442" 
d="M961 1479l80.999 0.000976562l180 -1304c4.66699 -34.667 18.5 -60 41.5 -76s58.5 -24 106.5 -24h50l-20 -75h-600l20 75h53c57.333 0 94.833 6 112.5 18s26.5 30.667 26.5 56c0 10 -1 21.667 -3 35l-41 299h-534l-131 -206c-23.333 -36.667 -35 -73.334 -35 -110.001
c0 -29.333 10.833 -52 32.5 -68s56.834 -24 105.501 -24h49l-21 -75h-526l20 75c53.333 4 99.333 19 138 45s78 70.333 118 133zM872.999 1175l-383 -604h466zM896.999 1592l-22.001 23l232 275c53.333 63.333 94.333 95 123 95c20.667 0 39.334 -8.33301 56.001 -25
s25 -35 25 -55c0 -44 -34.667 -86.667 -104 -128z" />
    <glyph glyph-name="Acircumflex" unicode="&#xc2;" horiz-adv-x="1442" 
d="M961 1479l80.999 0.000976562l180 -1304c4.66699 -34.667 18.5 -60 41.5 -76s58.5 -24 106.5 -24h50l-20 -75h-600l20 75h53c57.333 0 94.833 6 112.5 18s26.5 30.667 26.5 56c0 10 -1 21.667 -3 35l-41 299h-534l-131 -206c-23.333 -36.667 -35 -73.334 -35 -110.001
c0 -29.333 10.833 -52 32.5 -68s56.834 -24 105.501 -24h49l-21 -75h-526l20 75c53.333 4 99.333 19 138 45s78 70.333 118 133zM872.999 1175l-383 -604h466zM1025 1945h95l203 -329h-35l-230 182l-297 -182h-45z" />
    <glyph glyph-name="Atilde" unicode="&#xc3;" horiz-adv-x="1442" 
d="M961 1479l80.999 0.000976562l180 -1304c4.66699 -34.667 18.5 -60 41.5 -76s58.5 -24 106.5 -24h50l-20 -75h-600l20 75h53c57.333 0 94.833 6 112.5 18s26.5 30.667 26.5 56c0 10 -1 21.667 -3 35l-41 299h-534l-131 -206c-23.333 -36.667 -35 -73.334 -35 -110.001
c0 -29.333 10.833 -52 32.5 -68s56.834 -24 105.501 -24h49l-21 -75h-526l20 75c53.333 4 99.333 19 138 45s78 70.333 118 133zM872.999 1175l-383 -604h466zM694.999 1668c4.66699 78 24.167 135.833 58.5 173.5s77.833 56.5 130.5 56.5c46 0 112 -16 198 -48
c71.333 -27.333 123 -41 155 -41c52 0 85 29 99 87h34c-2.66699 -72.667 -21.834 -128.5 -57.501 -167.5s-81.5 -58.5 -137.5 -58.5c-20 0 -44.167 3.33301 -72.5 10s-84.833 25 -169.5 55c-47.333 16.667 -82.666 25 -105.999 25c-54.667 0 -87 -30.667 -97 -92h-35z" />
    <glyph glyph-name="Adieresis" unicode="&#xc4;" horiz-adv-x="1442" 
d="M961 1479l80.999 0.000976562l180 -1304c4.66699 -34.667 18.5 -60 41.5 -76s58.5 -24 106.5 -24h50l-20 -75h-600l20 75h53c57.333 0 94.833 6 112.5 18s26.5 30.667 26.5 56c0 10 -1 21.667 -3 35l-41 299h-534l-131 -206c-23.333 -36.667 -35 -73.334 -35 -110.001
c0 -29.333 10.833 -52 32.5 -68s56.834 -24 105.501 -24h49l-21 -75h-526l20 75c53.333 4 99.333 19 138 45s78 70.333 118 133zM872.999 1175l-383 -604h466zM851.999 1885c28.667 0 53.002 -10.167 73.002 -30.5s30 -44.833 30 -73.5c0 -30 -10 -55.167 -30 -75.5
s-44.333 -30.5 -73 -30.5s-53.334 10.167 -74.001 30.5s-31 45.166 -31 74.499c0 28.667 10.167 53.334 30.5 74.001s45.166 31 74.499 31zM1249 1885c28 0 52.001 -10.167 72.001 -30.5s30 -45.5 30 -75.5c0 -29.333 -10 -54.333 -30 -75s-44.333 -31 -73 -31
s-53.334 10.333 -74.001 31s-31 45.667 -31 75s10.333 54.333 31 75s45.667 31 75 31z" />
    <glyph glyph-name="Aring" unicode="&#xc5;" horiz-adv-x="1442" 
d="M961 1479l80.999 0.000976562l180 -1304c4.66699 -34.667 18.5 -60 41.5 -76s58.5 -24 106.5 -24h50l-20 -75h-600l20 75h53c57.333 0 94.833 6 112.5 18s26.5 30.667 26.5 56c0 10 -1 21.667 -3 35l-41 299h-534l-131 -206c-23.333 -36.667 -35 -73.334 -35 -110.001
c0 -29.333 10.833 -52 32.5 -68s56.834 -24 105.501 -24h49l-21 -75h-526l20 75c53.333 4 99.333 19 138 45s78 70.333 118 133zM872.999 1175l-383 -604h466zM1027 1948c52.667 0 97.667 -18.6689 135 -56.002s56 -82.666 56 -135.999s-18.667 -98.666 -56 -135.999
s-82.333 -56 -135 -56s-97.667 18.667 -135 56s-56 82.666 -56 135.999c0 52.667 19 97.834 57 135.501s82.667 56.5 134 56.5zM1027 1880c-34.667 0 -64.167 -12.167 -88.5 -36.5s-36.5 -53.833 -36.5 -88.5c0 -34 12.167 -63.167 36.5 -87.5s53.833 -36.5 88.5 -36.5
c34 0 63.167 12.167 87.5 36.5s36.5 53.5 36.5 87.5c0 34.667 -12.167 64.167 -36.5 88.5s-53.5 36.5 -87.5 36.5z" />
    <glyph glyph-name="AE" unicode="&#xc6;" horiz-adv-x="1782" 
d="M763 1479h1218l-104 -474h-71c8.66699 63.333 13 112 13 146c0 88 -21.5 152.167 -64.5 192.5s-107.5 60.5 -193.5 60.5h-142c-37.333 0 -64.5 -5.16699 -81.5 -15.5s-28.167 -26.166 -33.5 -47.499l-151 -542h27c98 0 174.833 19.667 230.5 59
s100.834 107.333 135.501 204h71l-190 -669h-73c16.667 55.333 25 101 25 137c0 42 -7.5 77.5 -22.5 106.5s-35.667 51.333 -62 67s-60.833 23.5 -103.5 23.5h-58l-149 -547c-5.33301 -18.667 -8 -35.334 -8 -50.001c0 -17.333 5.66699 -30 17 -38
c16 -11.333 38.667 -17 68 -17h175c109.333 0 203.833 31 283.5 93s151.834 172 216.501 330h76l-143 -498h-1154l22 75h93c73.333 0 117.666 27 132.999 81l97 359h-433l-217 -282c-30 -39.333 -45 -72.333 -45 -99c0 -18.667 6.5 -33.167 19.5 -43.5
s32.5 -15.5 58.5 -15.5h45l-20 -75h-387l20 75c42.667 13.333 79.5 31.833 110.5 55.5s66.833 62.167 107.5 115.5l814 1059c12 16 18 34 18 54c0 14 -6.5 25 -19.5 33s-36.833 12 -71.5 12h-117zM1103 1392l-611 -791h390z" />
    <glyph glyph-name="Ccedilla" unicode="&#xc7;" horiz-adv-x="1479" 
d="M1374 1348l104.997 99h67l-108 -541h-64c-0.666992 111.333 -10.334 198.666 -29.001 261.999c-25.333 88.667 -66.166 156.834 -122.499 204.501s-125.166 71.5 -206.499 71.5c-101.333 0 -197.666 -40 -288.999 -120s-166.666 -207.667 -225.999 -383
c-50 -150.667 -75 -297.667 -75 -441c0 -144 36 -254.667 108 -332s168.667 -116 290 -116c105.333 0 201 32.833 287 98.5s155.667 165.5 209 299.5l64 -25c-54 -139.333 -122.667 -244.333 -206 -315c-109.333 -92.667 -241 -139 -395 -139
c-171.333 0 -313.333 56.833 -426 170.5s-169 257.167 -169 430.5c0 162.667 40.667 321 122 475s183 270.5 305 349.5s252 118.5 390 118.5c66.667 0 128.667 -12.5 186 -37.5s118.333 -68.167 183 -129.5zM795.997 12l52.001 -0.00292969l-38 -45
c75.333 -34 113 -83.333 113 -148c0 -35.333 -10.667 -65.666 -32 -90.999c-28.667 -34.667 -72.5 -62.834 -131.5 -84.501s-142.5 -35.5 -250.5 -41.5l20 77c85.333 4.66699 145.166 17.334 179.499 38.001s51.5 43.334 51.5 68.001c0 16 -5.33301 29.833 -16 41.5
s-34.667 25.834 -72 42.501z" />
    <glyph glyph-name="Egrave" unicode="&#xc8;" horiz-adv-x="1479" 
d="M350 1479l1181 -0.00195312l-114 -477h-71c11.333 64 17 116 17 156c0 84 -22.667 146 -68 186s-117.333 60 -216 60h-205c-28 0 -49.333 -7.16699 -64 -21.5s-28.334 -45.5 -41.001 -93.5l-131 -489h104c158 0 263.667 88 317 264h75l-179 -670h-73
c14 61.333 21 106.333 21 135c0 64.667 -16.667 113.834 -50 147.501s-80.333 50.5 -141 50.5h-92l-148 -558c-3.33301 -11.333 -5 -22.333 -5 -33c0 -19.333 5.33301 -33.333 16 -42c16 -12.667 36 -19 60 -19h235c122 0 227.667 33.833 317 101.5
s166.666 180.167 231.999 337.5h72l-157 -514h-1204l9 75h78c68.667 0 109.667 24.667 123 74l311 1159c3.33301 12.667 5 24.667 5 36c0 18.667 -7.83301 33.334 -23.5 44.001s-44.834 16 -87.501 16h-123zM1250 1614l-22 -22.001l-310 183
c-70.667 42 -106 84.667 -106 128c0 20.667 8.16699 39.334 24.5 56.001s34.5 25 54.5 25c32 0 64.333 -19.333 97 -58z" />
    <glyph glyph-name="Eacute" unicode="&#xc9;" horiz-adv-x="1479" 
d="M350 1479l1181 -0.00195312l-114 -477h-71c11.333 64 17 116 17 156c0 84 -22.667 146 -68 186s-117.333 60 -216 60h-205c-28 0 -49.333 -7.16699 -64 -21.5s-28.334 -45.5 -41.001 -93.5l-131 -489h104c158 0 263.667 88 317 264h75l-179 -670h-73
c14 61.333 21 106.333 21 135c0 64.667 -16.667 113.834 -50 147.501s-80.333 50.5 -141 50.5h-92l-148 -558c-3.33301 -11.333 -5 -22.333 -5 -33c0 -19.333 5.33301 -33.333 16 -42c16 -12.667 36 -19 60 -19h235c122 0 227.667 33.833 317 101.5
s166.666 180.167 231.999 337.5h72l-157 -514h-1204l9 75h78c68.667 0 109.667 24.667 123 74l311 1159c3.33301 12.667 5 24.667 5 36c0 18.667 -7.83301 33.334 -23.5 44.001s-44.834 16 -87.501 16h-123zM915.003 1592l-22.001 23l232 275
c53.333 63.333 94.333 95 123 95c20.667 0 39.334 -8.33301 56.001 -25s25 -35 25 -55c0 -44 -34.667 -86.667 -104 -128z" />
    <glyph glyph-name="Ecircumflex" unicode="&#xca;" horiz-adv-x="1479" 
d="M350 1479l1181 -0.00195312l-114 -477h-71c11.333 64 17 116 17 156c0 84 -22.667 146 -68 186s-117.333 60 -216 60h-205c-28 0 -49.333 -7.16699 -64 -21.5s-28.334 -45.5 -41.001 -93.5l-131 -489h104c158 0 263.667 88 317 264h75l-179 -670h-73
c14 61.333 21 106.333 21 135c0 64.667 -16.667 113.834 -50 147.501s-80.333 50.5 -141 50.5h-92l-148 -558c-3.33301 -11.333 -5 -22.333 -5 -33c0 -19.333 5.33301 -33.333 16 -42c16 -12.667 36 -19 60 -19h235c122 0 227.667 33.833 317 101.5
s166.666 180.167 231.999 337.5h72l-157 -514h-1204l9 75h78c68.667 0 109.667 24.667 123 74l311 1159c3.33301 12.667 5 24.667 5 36c0 18.667 -7.83301 33.334 -23.5 44.001s-44.834 16 -87.501 16h-123zM1001 1945h95l203 -329h-35l-230 182l-297 -182h-45z" />
    <glyph glyph-name="Edieresis" unicode="&#xcb;" horiz-adv-x="1479" 
d="M350 1479l1181 -0.00195312l-114 -477h-71c11.333 64 17 116 17 156c0 84 -22.667 146 -68 186s-117.333 60 -216 60h-205c-28 0 -49.333 -7.16699 -64 -21.5s-28.334 -45.5 -41.001 -93.5l-131 -489h104c158 0 263.667 88 317 264h75l-179 -670h-73
c14 61.333 21 106.333 21 135c0 64.667 -16.667 113.834 -50 147.501s-80.333 50.5 -141 50.5h-92l-148 -558c-3.33301 -11.333 -5 -22.333 -5 -33c0 -19.333 5.33301 -33.333 16 -42c16 -12.667 36 -19 60 -19h235c122 0 227.667 33.833 317 101.5
s166.666 180.167 231.999 337.5h72l-157 -514h-1204l9 75h78c68.667 0 109.667 24.667 123 74l311 1159c3.33301 12.667 5 24.667 5 36c0 18.667 -7.83301 33.334 -23.5 44.001s-44.834 16 -87.501 16h-123zM845.003 1885c28.667 0 53.002 -10.167 73.002 -30.5
s30 -44.833 30 -73.5c0 -30 -10 -55.167 -30 -75.5s-44.333 -30.5 -73 -30.5s-53.334 10.167 -74.001 30.5s-31 45.166 -31 74.499c0 28.667 10.167 53.334 30.5 74.001s45.166 31 74.499 31zM1242 1885c28 0 52.001 -10.167 72.001 -30.5s30 -45.5 30 -75.5
c0 -29.333 -10 -54.333 -30 -75s-44.333 -31 -73 -31s-53.334 10.333 -74.001 31s-31 45.667 -31 75s10.333 54.333 31 75s45.667 31 75 31z" />
    <glyph glyph-name="Igrave" unicode="&#xcc;" horiz-adv-x="834" 
d="M347 1479l668.999 -0.000976562l-15 -75h-102c-34 0 -60 -7.16699 -78 -21.5s-31.333 -38.5 -40 -72.5l-302 -1127c-2.66699 -11.333 -4 -25.666 -4 -42.999c0 -21.333 7.83301 -37.5 23.5 -48.5s43.834 -16.5 84.501 -16.5h124l-17 -75h-682l19 75h96
c78 0 124 26 138 78l307 1169c2.66699 8.66699 4 17 4 25c0 18 -7 32 -21 42s-38 15 -72 15h-148zM939.999 1614l-22 -22.001l-310 183c-70.667 42 -106 84.667 -106 128c0 20.667 8.16699 39.334 24.5 56.001s34.5 25 54.5 25c32 0 64.333 -19.333 97 -58z" />
    <glyph glyph-name="Iacute" unicode="&#xcd;" horiz-adv-x="834" 
d="M347 1479l668.999 -0.000976562l-15 -75h-102c-34 0 -60 -7.16699 -78 -21.5s-31.333 -38.5 -40 -72.5l-302 -1127c-2.66699 -11.333 -4 -25.666 -4 -42.999c0 -21.333 7.83301 -37.5 23.5 -48.5s43.834 -16.5 84.501 -16.5h124l-17 -75h-682l19 75h96
c78 0 124 26 138 78l307 1169c2.66699 8.66699 4 17 4 25c0 18 -7 32 -21 42s-38 15 -72 15h-148zM604.999 1592l-22.001 23l232 275c53.333 63.333 94.333 95 123 95c20.667 0 39.334 -8.33301 56.001 -25s25 -35 25 -55c0 -44 -34.667 -86.667 -104 -128z" />
    <glyph glyph-name="Icircumflex" unicode="&#xce;" horiz-adv-x="834" 
d="M347 1479l668.999 -0.000976562l-15 -75h-102c-34 0 -60 -7.16699 -78 -21.5s-31.333 -38.5 -40 -72.5l-302 -1127c-2.66699 -11.333 -4 -25.666 -4 -42.999c0 -21.333 7.83301 -37.5 23.5 -48.5s43.834 -16.5 84.501 -16.5h124l-17 -75h-682l19 75h96
c78 0 124 26 138 78l307 1169c2.66699 8.66699 4 17 4 25c0 18 -7 32 -21 42s-38 15 -72 15h-148zM751.999 1945h95l203 -329h-35l-230 182l-297 -182h-45z" />
    <glyph glyph-name="Idieresis" unicode="&#xcf;" horiz-adv-x="834" 
d="M347 1479l668.999 -0.000976562l-15 -75h-102c-34 0 -60 -7.16699 -78 -21.5s-31.333 -38.5 -40 -72.5l-302 -1127c-2.66699 -11.333 -4 -25.666 -4 -42.999c0 -21.333 7.83301 -37.5 23.5 -48.5s43.834 -16.5 84.501 -16.5h124l-17 -75h-682l19 75h96
c78 0 124 26 138 78l307 1169c2.66699 8.66699 4 17 4 25c0 18 -7 32 -21 42s-38 15 -72 15h-148zM571.999 1885c28.667 0 53.002 -10.167 73.002 -30.5s30 -44.833 30 -73.5c0 -30 -10 -55.167 -30 -75.5s-44.333 -30.5 -73 -30.5s-53.334 10.167 -74.001 30.5
s-31 45.166 -31 74.499c0 28.667 10.167 53.334 30.5 74.001s45.166 31 74.499 31zM969.001 1885c28 0 52.001 -10.167 72.001 -30.5s30 -45.5 30 -75.5c0 -29.333 -10 -54.333 -30 -75s-44.333 -31 -73 -31s-53.334 10.333 -74.001 31s-31 45.667 -31 75
s10.333 54.333 31 75s45.667 31 75 31z" />
    <glyph glyph-name="Eth" unicode="&#xd0;" horiz-adv-x="1593" 
d="M376 694l-231.001 -0.00195312l29 91h226l145 538c1.33301 7.33301 2 15 2 23c0 18 -8.16699 32.167 -24.5 42.5s-47.166 15.5 -92.499 15.5h-110l18 75h667c186.667 0 331.5 -52 434.5 -156s154.5 -250 154.5 -438c0 -124 -22.5 -244.167 -67.5 -360.5
s-101.167 -210.166 -168.5 -281.499s-156.833 -129.666 -268.5 -174.999s-224.167 -68 -337.5 -68h-757l20 75h80c44.667 0 77 7.5 97 22.5s35 41.833 45 80.5zM587.999 693.998l-138.001 -525c-4 -14 -6 -26.667 -6 -38c0 -17.333 6.33301 -31 19 -41
s32.334 -15 59.001 -15h194c96.667 0 181.167 17.833 253.5 53.5s137 91 194 166s102.5 173.5 136.5 295.5c45.333 160 68 300 68 420c0 152 -42 260.333 -126 325c-60.667 47.333 -159.667 71 -297 71c-80 0 -128.333 -4.66699 -145 -14s-31 -36.333 -43 -81l-145 -526h274
l-23 -91h-275z" />
    <glyph glyph-name="Ntilde" unicode="&#xd1;" horiz-adv-x="1669" 
d="M350 1479l419.001 0.000976562l515 -1135l229 869c4.66699 16.667 7 33.334 7 50.001c0 44.667 -13.833 79.334 -41.5 104.001s-68.5 37 -122.5 37h-42l17 75h517l-18 -75c-114 -6 -186 -64.333 -216 -175l-330 -1229h-67l-581 1273l-254 -958
c-12 -44 -18 -76.667 -18 -98c0 -30.667 6.66699 -56.334 20 -77.001s31 -35 53 -43c41.333 -14.667 82.666 -22 123.999 -22h34l-18 -75h-559l19 75c77.333 10 131 29.167 161 57.5s57.667 89.166 83 182.499l267 987c2 6 3 11.667 3 17c0 23.333 -11 41.666 -33 54.999
c-32 20 -73.667 30 -125 30h-58zM862.001 1668c4.66699 78 24.167 135.833 58.5 173.5s77.833 56.5 130.5 56.5c46 0 112 -16 198 -48c71.333 -27.333 123 -41 155 -41c52 0 85 29 99 87h34c-2.66699 -72.667 -21.834 -128.5 -57.501 -167.5s-81.5 -58.5 -137.5 -58.5
c-20 0 -44.167 3.33301 -72.5 10s-84.833 25 -169.5 55c-47.333 16.667 -82.666 25 -105.999 25c-54.667 0 -87 -30.667 -97 -92h-35z" />
    <glyph glyph-name="Ograve" unicode="&#xd2;" horiz-adv-x="1593" 
d="M1035 1517c163.333 0 297.831 -54.667 403.498 -164s158.5 -251.666 158.5 -426.999c0 -170 -40.5 -328.833 -121.5 -476.5s-190.5 -264.334 -328.5 -350.001s-279.333 -128.5 -424 -128.5c-159.333 0 -291.666 54.833 -396.999 164.5s-158 251.167 -158 424.5
c0 168 41 327.333 123 478s190.333 268.167 325 352.5s274.334 126.5 419.001 126.5zM1042 1447c-79.333 0 -153.667 -18.5 -223 -55.5s-136 -100.667 -200 -191s-116.833 -206.166 -158.5 -347.499s-62.5 -279.333 -62.5 -414c0 -131.333 29.167 -230.5 87.5 -297.5
s139.166 -100.5 242.499 -100.5c107.333 0 205.833 35 295.5 105s166.834 186.667 231.501 350c78 195.333 117 382.333 117 561c0 125.333 -30 221.666 -90 288.999s-140 101 -240 101zM1319 1614l-22 -22.001l-310 183c-70.667 42 -106 84.667 -106 128
c0 20.667 8.16699 39.334 24.5 56.001s34.5 25 54.5 25c32 0 64.333 -19.333 97 -58z" />
    <glyph glyph-name="Oacute" unicode="&#xd3;" horiz-adv-x="1593" 
d="M1035 1517c163.333 0 297.831 -54.667 403.498 -164s158.5 -251.666 158.5 -426.999c0 -170 -40.5 -328.833 -121.5 -476.5s-190.5 -264.334 -328.5 -350.001s-279.333 -128.5 -424 -128.5c-159.333 0 -291.666 54.833 -396.999 164.5s-158 251.167 -158 424.5
c0 168 41 327.333 123 478s190.333 268.167 325 352.5s274.334 126.5 419.001 126.5zM1042 1447c-79.333 0 -153.667 -18.5 -223 -55.5s-136 -100.667 -200 -191s-116.833 -206.166 -158.5 -347.499s-62.5 -279.333 -62.5 -414c0 -131.333 29.167 -230.5 87.5 -297.5
s139.166 -100.5 242.499 -100.5c107.333 0 205.833 35 295.5 105s166.834 186.667 231.501 350c78 195.333 117 382.333 117 561c0 125.333 -30 221.666 -90 288.999s-140 101 -240 101zM983.997 1592l-22.001 23l232 275c53.333 63.333 94.333 95 123 95
c20.667 0 39.334 -8.33301 56.001 -25s25 -35 25 -55c0 -44 -34.667 -86.667 -104 -128z" />
    <glyph glyph-name="Ocircumflex" unicode="&#xd4;" horiz-adv-x="1593" 
d="M1035 1517c163.333 0 297.831 -54.667 403.498 -164s158.5 -251.666 158.5 -426.999c0 -170 -40.5 -328.833 -121.5 -476.5s-190.5 -264.334 -328.5 -350.001s-279.333 -128.5 -424 -128.5c-159.333 0 -291.666 54.833 -396.999 164.5s-158 251.167 -158 424.5
c0 168 41 327.333 123 478s190.333 268.167 325 352.5s274.334 126.5 419.001 126.5zM1042 1447c-79.333 0 -153.667 -18.5 -223 -55.5s-136 -100.667 -200 -191s-116.833 -206.166 -158.5 -347.499s-62.5 -279.333 -62.5 -414c0 -131.333 29.167 -230.5 87.5 -297.5
s139.166 -100.5 242.499 -100.5c107.333 0 205.833 35 295.5 105s166.834 186.667 231.501 350c78 195.333 117 382.333 117 561c0 125.333 -30 221.666 -90 288.999s-140 101 -240 101zM1083 1945h95l203 -329h-35l-230 182l-297 -182h-45z" />
    <glyph glyph-name="Otilde" unicode="&#xd5;" horiz-adv-x="1593" 
d="M1035 1517c163.333 0 297.831 -54.667 403.498 -164s158.5 -251.666 158.5 -426.999c0 -170 -40.5 -328.833 -121.5 -476.5s-190.5 -264.334 -328.5 -350.001s-279.333 -128.5 -424 -128.5c-159.333 0 -291.666 54.833 -396.999 164.5s-158 251.167 -158 424.5
c0 168 41 327.333 123 478s190.333 268.167 325 352.5s274.334 126.5 419.001 126.5zM1042 1447c-79.333 0 -153.667 -18.5 -223 -55.5s-136 -100.667 -200 -191s-116.833 -206.166 -158.5 -347.499s-62.5 -279.333 -62.5 -414c0 -131.333 29.167 -230.5 87.5 -297.5
s139.166 -100.5 242.499 -100.5c107.333 0 205.833 35 295.5 105s166.834 186.667 231.501 350c78 195.333 117 382.333 117 561c0 125.333 -30 221.666 -90 288.999s-140 101 -240 101zM769.997 1668c4.66699 78 24.167 135.833 58.5 173.5s77.833 56.5 130.5 56.5
c46 0 112 -16 198 -48c71.333 -27.333 123 -41 155 -41c52 0 85 29 99 87h34c-2.66699 -72.667 -21.834 -128.5 -57.501 -167.5s-81.5 -58.5 -137.5 -58.5c-20 0 -44.167 3.33301 -72.5 10s-84.833 25 -169.5 55c-47.333 16.667 -82.666 25 -105.999 25
c-54.667 0 -87 -30.667 -97 -92h-35z" />
    <glyph glyph-name="Odieresis" unicode="&#xd6;" horiz-adv-x="1593" 
d="M1035 1517c163.333 0 297.831 -54.667 403.498 -164s158.5 -251.666 158.5 -426.999c0 -170 -40.5 -328.833 -121.5 -476.5s-190.5 -264.334 -328.5 -350.001s-279.333 -128.5 -424 -128.5c-159.333 0 -291.666 54.833 -396.999 164.5s-158 251.167 -158 424.5
c0 168 41 327.333 123 478s190.333 268.167 325 352.5s274.334 126.5 419.001 126.5zM1042 1447c-79.333 0 -153.667 -18.5 -223 -55.5s-136 -100.667 -200 -191s-116.833 -206.166 -158.5 -347.499s-62.5 -279.333 -62.5 -414c0 -131.333 29.167 -230.5 87.5 -297.5
s139.166 -100.5 242.499 -100.5c107.333 0 205.833 35 295.5 105s166.834 186.667 231.501 350c78 195.333 117 382.333 117 561c0 125.333 -30 221.666 -90 288.999s-140 101 -240 101zM928.997 1885c28.667 0 53.002 -10.167 73.002 -30.5s30 -44.833 30 -73.5
c0 -30 -10 -55.167 -30 -75.5s-44.333 -30.5 -73 -30.5s-53.334 10.167 -74.001 30.5s-31 45.166 -31 74.499c0 28.667 10.167 53.334 30.5 74.001s45.166 31 74.499 31zM1326 1885c28 0 52.001 -10.167 72.001 -30.5s30 -45.5 30 -75.5c0 -29.333 -10 -54.333 -30 -75
s-44.333 -31 -73 -31s-53.334 10.333 -74.001 31s-31 45.667 -31 75s10.333 54.333 31 75s45.667 31 75 31z" />
    <glyph glyph-name="multiply" unicode="&#xd7;" horiz-adv-x="1241" 
d="M305 1200l413 -413l413 413l94 -94l-413 -413l412 -413l-94 -94l-412 413l-412 -412l-94 94l412 412l-413 413z" />
    <glyph glyph-name="Oslash" unicode="&#xd8;" horiz-adv-x="1593" 
d="M1445 1346c101.333 -109.333 152.001 -249.332 152.001 -419.999c0 -170 -40.667 -328.833 -122 -476.5s-190.833 -264.334 -328.5 -350.001s-278.834 -128.5 -423.501 -128.5c-144 0 -265.667 44.667 -365 134l-92 -105h-104l141 161c-90 106.667 -135 239.667 -135 399
c0 168 41 327.167 123 477.5s190.167 267.833 324.5 352.5s273.5 127 417.5 127c138.667 0 257 -39 355 -117l69 79h104zM413.001 287.001l896.003 1023c-60.667 91.333 -150.334 137 -269.001 137c-78 0 -151.833 -18.5 -221.5 -55.5s-136.334 -100.5 -200.001 -190.5
s-116.334 -205.833 -158.001 -347.5s-62.5 -278.167 -62.5 -409.5c0 -63.333 5 -115.666 15 -156.999zM1347 1234l-903.001 -1030c56.667 -108.667 151.334 -163 284.001 -163c124.667 0 234.667 45.333 330 136s171.5 225 228.5 403s85.5 336.333 85.5 475
c0 70.667 -8.33301 130.334 -25 179.001z" />
    <glyph glyph-name="Ugrave" unicode="&#xd9;" horiz-adv-x="1669" 
d="M318 1479l660.999 0.000976562l-18 -75h-127c-24 0 -44.833 -6.83301 -62.5 -20.5s-29.5 -31.5 -35.5 -53.5l-220 -813c-12.667 -46.667 -19 -94 -19 -142c0 -98.667 29.833 -176.667 89.5 -234s142.834 -86 249.501 -86c126 0 228.333 34.333 307 103
c98 85.333 168.333 214.666 211 387.999l152 621c8 32 12 59.333 12 82c0 48.667 -14.833 86.667 -44.5 114s-69.5 41 -119.5 41h-47l17 75h533l-17 -75c-64.667 -1.33301 -113.667 -16.333 -147 -45c-41.333 -35.333 -70.333 -86 -87 -152l-174 -690
c-34 -134 -79.5 -239.167 -136.5 -315.5s-125.833 -133.833 -206.5 -172.5s-179 -58 -295 -58c-168.667 0 -294.667 35.333 -378 106s-125 168 -125 292c0 76 12 159.333 36 250l189 702c2 10 3 21.333 3 34c0 15.333 -6 27.333 -18 36s-31.333 13 -58 13h-142zM1358 1614
l-22 -22.001l-310 183c-70.667 42 -106 84.667 -106 128c0 20.667 8.16699 39.334 24.5 56.001s34.5 25 54.5 25c32 0 64.333 -19.333 97 -58z" />
    <glyph glyph-name="Uacute" unicode="&#xda;" horiz-adv-x="1669" 
d="M318 1479l660.999 0.000976562l-18 -75h-127c-24 0 -44.833 -6.83301 -62.5 -20.5s-29.5 -31.5 -35.5 -53.5l-220 -813c-12.667 -46.667 -19 -94 -19 -142c0 -98.667 29.833 -176.667 89.5 -234s142.834 -86 249.501 -86c126 0 228.333 34.333 307 103
c98 85.333 168.333 214.666 211 387.999l152 621c8 32 12 59.333 12 82c0 48.667 -14.833 86.667 -44.5 114s-69.5 41 -119.5 41h-47l17 75h533l-17 -75c-64.667 -1.33301 -113.667 -16.333 -147 -45c-41.333 -35.333 -70.333 -86 -87 -152l-174 -690
c-34 -134 -79.5 -239.167 -136.5 -315.5s-125.833 -133.833 -206.5 -172.5s-179 -58 -295 -58c-168.667 0 -294.667 35.333 -378 106s-125 168 -125 292c0 76 12 159.333 36 250l189 702c2 10 3 21.333 3 34c0 15.333 -6 27.333 -18 36s-31.333 13 -58 13h-142zM1022 1592
l-22.001 23l232 275c53.333 63.333 94.333 95 123 95c20.667 0 39.334 -8.33301 56.001 -25s25 -35 25 -55c0 -44 -34.667 -86.667 -104 -128z" />
    <glyph glyph-name="Ucircumflex" unicode="&#xdb;" horiz-adv-x="1669" 
d="M318 1479l660.999 0.000976562l-18 -75h-127c-24 0 -44.833 -6.83301 -62.5 -20.5s-29.5 -31.5 -35.5 -53.5l-220 -813c-12.667 -46.667 -19 -94 -19 -142c0 -98.667 29.833 -176.667 89.5 -234s142.834 -86 249.501 -86c126 0 228.333 34.333 307 103
c98 85.333 168.333 214.666 211 387.999l152 621c8 32 12 59.333 12 82c0 48.667 -14.833 86.667 -44.5 114s-69.5 41 -119.5 41h-47l17 75h533l-17 -75c-64.667 -1.33301 -113.667 -16.333 -147 -45c-41.333 -35.333 -70.333 -86 -87 -152l-174 -690
c-34 -134 -79.5 -239.167 -136.5 -315.5s-125.833 -133.833 -206.5 -172.5s-179 -58 -295 -58c-168.667 0 -294.667 35.333 -378 106s-125 168 -125 292c0 76 12 159.333 36 250l189 702c2 10 3 21.333 3 34c0 15.333 -6 27.333 -18 36s-31.333 13 -58 13h-142zM1133 1945
h95l203 -329h-35l-230 182l-297 -182h-45z" />
    <glyph glyph-name="Udieresis" unicode="&#xdc;" horiz-adv-x="1669" 
d="M318 1479l660.999 0.000976562l-18 -75h-127c-24 0 -44.833 -6.83301 -62.5 -20.5s-29.5 -31.5 -35.5 -53.5l-220 -813c-12.667 -46.667 -19 -94 -19 -142c0 -98.667 29.833 -176.667 89.5 -234s142.834 -86 249.501 -86c126 0 228.333 34.333 307 103
c98 85.333 168.333 214.666 211 387.999l152 621c8 32 12 59.333 12 82c0 48.667 -14.833 86.667 -44.5 114s-69.5 41 -119.5 41h-47l17 75h533l-17 -75c-64.667 -1.33301 -113.667 -16.333 -147 -45c-41.333 -35.333 -70.333 -86 -87 -152l-174 -690
c-34 -134 -79.5 -239.167 -136.5 -315.5s-125.833 -133.833 -206.5 -172.5s-179 -58 -295 -58c-168.667 0 -294.667 35.333 -378 106s-125 168 -125 292c0 76 12 159.333 36 250l189 702c2 10 3 21.333 3 34c0 15.333 -6 27.333 -18 36s-31.333 13 -58 13h-142zM1001 1885
c28.667 0 53.002 -10.167 73.002 -30.5s30 -44.833 30 -73.5c0 -30 -10 -55.167 -30 -75.5s-44.333 -30.5 -73 -30.5s-53.334 10.167 -74.001 30.5s-31 45.166 -31 74.499c0 28.667 10.167 53.334 30.5 74.001s45.166 31 74.499 31zM1398 1885
c28 0 52.001 -10.167 72.001 -30.5s30 -45.5 30 -75.5c0 -29.333 -10 -54.333 -30 -75s-44.333 -31 -73 -31s-53.334 10.333 -74.001 31s-31 45.667 -31 75s10.333 54.333 31 75s45.667 31 75 31z" />
    <glyph glyph-name="Yacute" unicode="&#xdd;" horiz-adv-x="1403" 
d="M274 1479h577.001l-14 -75h-79c-45.333 0 -76.333 -5.16699 -93 -15.5s-25 -23.833 -25 -40.5c0 -8.66699 2.33301 -18 7 -28l239 -577l381 479c36.667 46.667 55 82.667 55 108c0 43.333 -56.333 68 -169 74l24 75h455l-19 -75c-72 -10 -136 -50.333 -192 -121
l-489 -615l-137 -516c-1.33301 -5.33301 -2 -11 -2 -17c0 -18 7.33301 -31.667 22 -41c19.333 -12.667 48 -19 86 -19h110l-19 -75h-666l17 75h103c72 0 114 21 126 63l138 502l-293 705c-16.667 39.333 -53.334 59 -110.001 59h-51zM913.001 1592l-22.001 23l232 275
c53.333 63.333 94.333 95 123 95c20.667 0 39.334 -8.33301 56.001 -25s25 -35 25 -55c0 -44 -34.667 -86.667 -104 -128z" />
    <glyph glyph-name="Thorn" unicode="&#xde;" horiz-adv-x="1366" 
d="M493 387l-59.998 -225.997c-2.66699 -8.66699 -4 -17.334 -4 -26.001c0 -18.667 7.5 -33.334 22.5 -44.001s39.833 -16 74.5 -16h124l-18 -75h-639l18 75h76c68.667 0 109.667 23.667 123 71l316 1170c2 8.66699 3 17.667 3 27c0 20 -7.5 35.167 -22.5 45.5
s-43.5 15.5 -85.5 15.5h-111l19 75h663l-21 -75h-97c-36.667 0 -62.834 -2.66699 -78.501 -8s-28.834 -14.333 -39.501 -27c-6.66699 -8.66699 -14.334 -29 -23.001 -61l-29 -114h119c143.333 0 252.833 -14.333 328.5 -43s133.5 -71.834 173.5 -129.501
s60 -123.167 60 -196.5c0 -128 -47.333 -229.667 -142 -305c-121.333 -96.667 -293.666 -145 -516.999 -145c-52 0 -129.667 4 -233 12zM512.002 460.003c70.667 -8.66699 131.667 -13.001 183 -13.001c154 0 268 36 342 108c82.667 82 124 191 124 327
c0 90.667 -32 155.334 -96 194.001c-48.667 29.333 -141.667 44 -279 44h-97z" />
    <glyph glyph-name="germandbls" unicode="&#xdf;" horiz-adv-x="1139" 
d="M818 841c74 -31.333 130.671 -76.832 170.004 -136.499s59 -129.5 59 -209.5c0 -145.333 -47.667 -269 -143 -371s-199.333 -153 -312 -153c-70.667 0 -124.167 16.167 -160.5 48.5s-54.5 76.166 -54.5 131.499c0 46 11.667 83.5 35 112.5s49.333 43.5 78 43.5
c23.333 0 43.166 -8.83301 59.499 -26.5s24.5 -39.167 24.5 -64.5c0 -34.667 -20 -60.667 -60 -78c-28 -12.667 -42 -26 -42 -40c0 -12 5.83301 -22.667 17.5 -32s27.167 -14 46.5 -14c44 0 91.5 20.5 142.5 61.5s96.333 108.833 136 203.5s59.5 184.667 59.5 270
c0 42.667 -9.83301 81.5 -29.5 116.5s-43.667 59.667 -72 74s-73.833 21.5 -136.5 21.5l20 70c80 10 139 28.333 177 55c52 36 93.833 84.333 125.5 145s47.5 121.334 47.5 182.001c0 58.667 -14.333 104.167 -43 136.5s-67.334 48.5 -116.001 48.5
c-42 0 -81.333 -13.5 -118 -40.5s-81.834 -93.167 -135.501 -198.5s-98.834 -226 -135.501 -362l-195 -717c-50.667 -188.667 -98.334 -343.334 -143.001 -464.001c-43.333 -5.33301 -90.666 -18 -141.999 -38c-27.333 -10.667 -49 -16 -65 -16
c-14.667 0 -22 4.33301 -22 13c0 9.33301 8 26.666 24 51.999c25.333 40.667 54 102 86 184c51.333 134 100.333 285.333 147 454l165 588c44.667 158 95 281.167 151 369.5s115.5 151.833 178.5 190.5s129.5 58 199.5 58c96.667 0 175.667 -28.667 237 -86
s92 -128.333 92 -213c0 -83.333 -25.667 -156.666 -77 -219.999s-143.333 -113 -276 -149z" />
    <glyph glyph-name="agrave" unicode="&#xe0;" horiz-adv-x="1176" 
d="M715 157c-40 -61.333 -86.334 -107.666 -139.001 -138.999s-104.667 -47 -156 -47c-99.333 0 -183.333 36.167 -252 108.5s-103 164.166 -103 275.499c0 101.333 26.833 200.5 80.5 297.5s122.5 173.333 206.5 229s165.667 83.5 245 83.5c64 0 120.5 -18.833 169.5 -56.5
s82.167 -87.5 99.5 -149.5l58 177l157 18l-219 -762c-6 -20.667 -9 -41.334 -9 -62.001c0 -18.667 3.83301 -33 11.5 -43s16.834 -15 27.501 -15c20 0 42.667 13.667 68 41c49.333 52.667 95.666 123.334 138.999 212.001l58 -26c-104.667 -218.667 -211.667 -328 -321 -328
c-35.333 0 -64.666 13.5 -87.999 40.5s-35 61.833 -35 104.5zM609.999 886c-52.667 0 -105.831 -21.165 -159.498 -63.498s-101 -112.833 -142 -211.5s-61.5 -200.334 -61.5 -305.001c0 -82.667 17 -143.834 51 -183.501s82.333 -59.5 145 -59.5
c56 0 108.167 19.667 156.5 59s96.166 116.5 143.499 231.5s71 217.167 71 306.5c0 64 -20.333 117.667 -61 161s-88.334 65 -143.001 65zM866.002 1110l-22 -22.001l-310 183c-70.667 42 -106 84.667 -106 128c0 20.667 8.16699 39.334 24.5 56.001s34.5 25 54.5 25
c32 0 64.333 -19.333 97 -58z" />
    <glyph glyph-name="aacute" unicode="&#xe1;" horiz-adv-x="1176" 
d="M715 157c-40 -61.333 -86.334 -107.666 -139.001 -138.999s-104.667 -47 -156 -47c-99.333 0 -183.333 36.167 -252 108.5s-103 164.166 -103 275.499c0 101.333 26.833 200.5 80.5 297.5s122.5 173.333 206.5 229s165.667 83.5 245 83.5c64 0 120.5 -18.833 169.5 -56.5
s82.167 -87.5 99.5 -149.5l58 177l157 18l-219 -762c-6 -20.667 -9 -41.334 -9 -62.001c0 -18.667 3.83301 -33 11.5 -43s16.834 -15 27.501 -15c20 0 42.667 13.667 68 41c49.333 52.667 95.666 123.334 138.999 212.001l58 -26c-104.667 -218.667 -211.667 -328 -321 -328
c-35.333 0 -64.666 13.5 -87.999 40.5s-35 61.833 -35 104.5zM609.999 886c-52.667 0 -105.831 -21.165 -159.498 -63.498s-101 -112.833 -142 -211.5s-61.5 -200.334 -61.5 -305.001c0 -82.667 17 -143.834 51 -183.501s82.333 -59.5 145 -59.5
c56 0 108.167 19.667 156.5 59s96.166 116.5 143.499 231.5s71 217.167 71 306.5c0 64 -20.333 117.667 -61 161s-88.334 65 -143.001 65zM584.002 1088l-22.001 23l232 275c53.333 63.333 94.333 95 123 95c20.667 0 39.334 -8.33301 56.001 -25s25 -35 25 -55
c0 -44 -34.667 -86.667 -104 -128z" />
    <glyph glyph-name="acircumflex" unicode="&#xe2;" horiz-adv-x="1176" 
d="M715 157c-40 -61.333 -86.334 -107.666 -139.001 -138.999s-104.667 -47 -156 -47c-99.333 0 -183.333 36.167 -252 108.5s-103 164.166 -103 275.499c0 101.333 26.833 200.5 80.5 297.5s122.5 173.333 206.5 229s165.667 83.5 245 83.5c64 0 120.5 -18.833 169.5 -56.5
s82.167 -87.5 99.5 -149.5l58 177l157 18l-219 -762c-6 -20.667 -9 -41.334 -9 -62.001c0 -18.667 3.83301 -33 11.5 -43s16.834 -15 27.501 -15c20 0 42.667 13.667 68 41c49.333 52.667 95.666 123.334 138.999 212.001l58 -26c-104.667 -218.667 -211.667 -328 -321 -328
c-35.333 0 -64.666 13.5 -87.999 40.5s-35 61.833 -35 104.5zM609.999 886c-52.667 0 -105.831 -21.165 -159.498 -63.498s-101 -112.833 -142 -211.5s-61.5 -200.334 -61.5 -305.001c0 -82.667 17 -143.834 51 -183.501s82.333 -59.5 145 -59.5
c56 0 108.167 19.667 156.5 59s96.166 116.5 143.499 231.5s71 217.167 71 306.5c0 64 -20.333 117.667 -61 161s-88.334 65 -143.001 65zM726.002 1442h95l203 -329h-35l-230 182l-297 -182h-45z" />
    <glyph glyph-name="atilde" unicode="&#xe3;" horiz-adv-x="1176" 
d="M715 157c-40 -61.333 -86.334 -107.666 -139.001 -138.999s-104.667 -47 -156 -47c-99.333 0 -183.333 36.167 -252 108.5s-103 164.166 -103 275.499c0 101.333 26.833 200.5 80.5 297.5s122.5 173.333 206.5 229s165.667 83.5 245 83.5c64 0 120.5 -18.833 169.5 -56.5
s82.167 -87.5 99.5 -149.5l58 177l157 18l-219 -762c-6 -20.667 -9 -41.334 -9 -62.001c0 -18.667 3.83301 -33 11.5 -43s16.834 -15 27.501 -15c20 0 42.667 13.667 68 41c49.333 52.667 95.666 123.334 138.999 212.001l58 -26c-104.667 -218.667 -211.667 -328 -321 -328
c-35.333 0 -64.666 13.5 -87.999 40.5s-35 61.833 -35 104.5zM609.999 886c-52.667 0 -105.831 -21.165 -159.498 -63.498s-101 -112.833 -142 -211.5s-61.5 -200.334 -61.5 -305.001c0 -82.667 17 -143.834 51 -183.501s82.333 -59.5 145 -59.5
c56 0 108.167 19.667 156.5 59s96.166 116.5 143.499 231.5s71 217.167 71 306.5c0 64 -20.333 117.667 -61 161s-88.334 65 -143.001 65zM437.002 1164c4.66699 78 24.167 135.833 58.5 173.5s77.833 56.5 130.5 56.5c46 0 112 -16 198 -48c71.333 -27.333 123 -41 155 -41
c52 0 85 29 99 87h34c-2.66699 -72.667 -21.834 -128.5 -57.501 -167.5s-81.5 -58.5 -137.5 -58.5c-20 0 -44.167 3.33301 -72.5 10s-84.833 25 -169.5 55c-47.333 16.667 -82.666 25 -105.999 25c-54.667 0 -87 -30.667 -97 -92h-35z" />
    <glyph glyph-name="adieresis" unicode="&#xe4;" horiz-adv-x="1176" 
d="M715 157c-40 -61.333 -86.334 -107.666 -139.001 -138.999s-104.667 -47 -156 -47c-99.333 0 -183.333 36.167 -252 108.5s-103 164.166 -103 275.499c0 101.333 26.833 200.5 80.5 297.5s122.5 173.333 206.5 229s165.667 83.5 245 83.5c64 0 120.5 -18.833 169.5 -56.5
s82.167 -87.5 99.5 -149.5l58 177l157 18l-219 -762c-6 -20.667 -9 -41.334 -9 -62.001c0 -18.667 3.83301 -33 11.5 -43s16.834 -15 27.501 -15c20 0 42.667 13.667 68 41c49.333 52.667 95.666 123.334 138.999 212.001l58 -26c-104.667 -218.667 -211.667 -328 -321 -328
c-35.333 0 -64.666 13.5 -87.999 40.5s-35 61.833 -35 104.5zM609.999 886c-52.667 0 -105.831 -21.165 -159.498 -63.498s-101 -112.833 -142 -211.5s-61.5 -200.334 -61.5 -305.001c0 -82.667 17 -143.834 51 -183.501s82.333 -59.5 145 -59.5
c56 0 108.167 19.667 156.5 59s96.166 116.5 143.499 231.5s71 217.167 71 306.5c0 64 -20.333 117.667 -61 161s-88.334 65 -143.001 65zM582.002 1382c28.667 0 53.002 -10.167 73.002 -30.5s30 -44.833 30 -73.5c0 -30 -10 -55.167 -30 -75.5s-44.333 -30.5 -73 -30.5
s-53.334 10.167 -74.001 30.5s-31 45.166 -31 74.499c0 28.667 10.167 53.334 30.5 74.001s45.166 31 74.499 31zM979.004 1382c28 0 52.001 -10.167 72.001 -30.5s30 -45.5 30 -75.5c0 -29.333 -10 -54.333 -30 -75s-44.333 -31 -73 -31s-53.334 10.333 -74.001 31
s-31 45.667 -31 75s10.333 54.333 31 75s45.667 31 75 31z" />
    <glyph glyph-name="aring" unicode="&#xe5;" horiz-adv-x="1176" 
d="M715 157c-40 -61.333 -86.334 -107.666 -139.001 -138.999s-104.667 -47 -156 -47c-99.333 0 -183.333 36.167 -252 108.5s-103 164.166 -103 275.499c0 101.333 26.833 200.5 80.5 297.5s122.5 173.333 206.5 229s165.667 83.5 245 83.5c64 0 120.5 -18.833 169.5 -56.5
s82.167 -87.5 99.5 -149.5l58 177l157 18l-219 -762c-6 -20.667 -9 -41.334 -9 -62.001c0 -18.667 3.83301 -33 11.5 -43s16.834 -15 27.501 -15c20 0 42.667 13.667 68 41c49.333 52.667 95.666 123.334 138.999 212.001l58 -26c-104.667 -218.667 -211.667 -328 -321 -328
c-35.333 0 -64.666 13.5 -87.999 40.5s-35 61.833 -35 104.5zM609.999 886c-52.667 0 -105.831 -21.165 -159.498 -63.498s-101 -112.833 -142 -211.5s-61.5 -200.334 -61.5 -305.001c0 -82.667 17 -143.834 51 -183.501s82.333 -59.5 145 -59.5
c56 0 108.167 19.667 156.5 59s96.166 116.5 143.499 231.5s71 217.167 71 306.5c0 64 -20.333 117.667 -61 161s-88.334 65 -143.001 65zM757.002 1444c52.667 0 97.667 -18.6689 135 -56.002s56 -82.666 56 -135.999s-18.667 -98.666 -56 -135.999s-82.333 -56 -135 -56
s-97.667 18.667 -135 56s-56 82.666 -56 135.999c0 52.667 19 97.834 57 135.501s82.667 56.5 134 56.5zM757.002 1376c-34.667 0 -64.167 -12.167 -88.5 -36.5s-36.5 -53.833 -36.5 -88.5c0 -34 12.167 -63.167 36.5 -87.5s53.833 -36.5 88.5 -36.5
c34 0 63.167 12.167 87.5 36.5s36.5 53.5 36.5 87.5c0 34.667 -12.167 64.167 -36.5 88.5s-53.5 36.5 -87.5 36.5z" />
    <glyph glyph-name="ae" unicode="&#xe6;" horiz-adv-x="1479" 
d="M810 788l37.001 158.998l151 17l-42 -157c47.333 61.333 91.666 103 132.999 125s88.333 33 141 33c70.667 0 127.834 -19.167 171.501 -57.5s65.5 -86.5 65.5 -144.5c0 -82 -38.333 -152.333 -115 -211c-107.333 -82.667 -272 -144.667 -494 -186
c-7.33301 -32.667 -11 -60.667 -11 -84c0 -71.333 18.333 -126.5 55 -165.5s85.667 -58.5 147 -58.5c104 0 209.333 63.333 316 190l48 -45c-127.333 -154.667 -262.666 -232 -405.999 -232c-86 0 -159 25.333 -219 76c-43.333 36.667 -75 88.667 -95 156
c-72.667 -89.333 -137.334 -150.333 -194.001 -183s-114.667 -49 -174 -49c-82.667 0 -152.834 32.833 -210.501 98.5s-86.5 151.167 -86.5 256.5c0 109.333 26 215.333 78 318s118 181.834 198 237.501s158 83.5 234 83.5c62.667 0 116.667 -14.667 162 -44
s82 -73.666 110 -132.999zM870.001 431.998c156.667 28.667 267.834 72.668 333.501 132.001s98.5 127 98.5 203c0 41.333 -9.66699 72.833 -29 94.5s-46.333 32.5 -81 32.5c-42 0 -86.333 -18.833 -133 -56.5s-86.334 -94.167 -119.001 -169.5
c-16 -36.667 -39.333 -115.334 -70 -236.001zM564.001 877.999c-53.333 0 -105.333 -20.999 -156 -62.999s-96.667 -115.667 -138 -221s-62 -210.333 -62 -315c0 -75.333 14.667 -131 44 -167s69 -54 119 -54c53.333 0 106.5 21.5 159.5 64.5s103.167 123.333 150.5 241
s71 223.167 71 316.5c0 59.333 -17.667 107.166 -53 143.499s-80.333 54.5 -135 54.5z" />
    <glyph glyph-name="ccedilla" unicode="&#xe7;" horiz-adv-x="909" 
d="M762 246l50 -38.0039c-64 -85.333 -128.333 -146.166 -193 -182.499s-133.334 -54.5 -206.001 -54.5c-96 0 -175.833 34.5 -239.5 103.5s-95.5 159.167 -95.5 270.5c0 104.667 27.167 206.834 81.5 306.501s124.166 176.834 209.499 231.501s172.333 82 261 82
c74.667 0 133.334 -19.167 176.001 -57.5s64 -88.166 64 -149.499c0 -47.333 -11 -84.166 -33 -110.499s-49.333 -39.5 -82 -39.5c-28 0 -51.833 9.5 -71.5 28.5s-29.5 41.833 -29.5 68.5c0 45.333 24 75.333 72 90c25.333 8 38 19.667 38 35s-11.167 30.833 -33.5 46.5
s-50.833 23.5 -85.5 23.5c-57.333 0 -114.833 -22 -172.5 -66s-106.667 -113.333 -147 -208s-60.5 -195.334 -60.5 -302.001c0 -90.667 18.333 -158.167 55 -202.5s85.334 -66.5 146.001 -66.5c97.333 0 196 63.667 296 191zM410 11.9961l52.001 -0.00292969l-38 -45
c75.333 -34 113 -83.333 113 -148c0 -35.333 -10.667 -65.666 -32 -90.999c-28.667 -34.667 -72.5 -62.834 -131.5 -84.501s-142.5 -35.5 -250.5 -41.5l20 77c85.333 4.66699 145.166 17.334 179.499 38.001s51.5 43.334 51.5 68.001c0 16 -5.33301 29.833 -16 41.5
s-34.667 25.834 -72 42.501z" />
    <glyph glyph-name="egrave" unicode="&#xe8;" horiz-adv-x="909" 
d="M252 364c-3.33301 -31.333 -5.00098 -57.667 -5.00098 -79c0 -73.333 17.833 -129.5 53.5 -168.5s84.167 -58.5 145.5 -58.5c48 0 95.333 12.5 142 37.5s105 75.167 175 150.5l46 -42c-126 -155.333 -259.333 -233 -400 -233c-96 0 -177 36 -243 108s-99 164 -99 276
c0 98.667 27.667 195.5 83 290.5s129.166 172 221.499 231s178.5 88.5 258.5 88.5c68.667 0 124.834 -19.833 168.501 -59.5s65.5 -88.167 65.5 -145.5c0 -48.667 -17.167 -97.167 -51.5 -145.5s-89.666 -91.5 -165.999 -129.5s-207.833 -78.333 -394.5 -121z
M265.999 428.999c127.333 28 217.999 57 271.999 87s94.833 67.333 122.5 112s41.5 91.667 41.5 141c0 39.333 -10.167 70 -30.5 92s-48.166 33 -83.499 33c-64 0 -125.833 -36.5 -185.5 -109.5s-105.167 -191.5 -136.5 -355.5zM871.998 1110l-22 -22.001l-310 183
c-70.667 42 -106 84.667 -106 128c0 20.667 8.16699 39.334 24.5 56.001s34.5 25 54.5 25c32 0 64.333 -19.333 97 -58z" />
    <glyph glyph-name="eacute" unicode="&#xe9;" horiz-adv-x="909" 
d="M252 364c-3.33301 -31.333 -5.00098 -57.667 -5.00098 -79c0 -73.333 17.833 -129.5 53.5 -168.5s84.167 -58.5 145.5 -58.5c48 0 95.333 12.5 142 37.5s105 75.167 175 150.5l46 -42c-126 -155.333 -259.333 -233 -400 -233c-96 0 -177 36 -243 108s-99 164 -99 276
c0 98.667 27.667 195.5 83 290.5s129.166 172 221.499 231s178.5 88.5 258.5 88.5c68.667 0 124.834 -19.833 168.501 -59.5s65.5 -88.167 65.5 -145.5c0 -48.667 -17.167 -97.167 -51.5 -145.5s-89.666 -91.5 -165.999 -129.5s-207.833 -78.333 -394.5 -121z
M265.999 428.999c127.333 28 217.999 57 271.999 87s94.833 67.333 122.5 112s41.5 91.667 41.5 141c0 39.333 -10.167 70 -30.5 92s-48.166 33 -83.499 33c-64 0 -125.833 -36.5 -185.5 -109.5s-105.167 -191.5 -136.5 -355.5zM507.998 1088l-22.001 23l232 275
c53.333 63.333 94.333 95 123 95c20.667 0 39.334 -8.33301 56.001 -25s25 -35 25 -55c0 -44 -34.667 -86.667 -104 -128z" />
    <glyph glyph-name="ecircumflex" unicode="&#xea;" horiz-adv-x="909" 
d="M252 364c-3.33301 -31.333 -5.00098 -57.667 -5.00098 -79c0 -73.333 17.833 -129.5 53.5 -168.5s84.167 -58.5 145.5 -58.5c48 0 95.333 12.5 142 37.5s105 75.167 175 150.5l46 -42c-126 -155.333 -259.333 -233 -400 -233c-96 0 -177 36 -243 108s-99 164 -99 276
c0 98.667 27.667 195.5 83 290.5s129.166 172 221.499 231s178.5 88.5 258.5 88.5c68.667 0 124.834 -19.833 168.501 -59.5s65.5 -88.167 65.5 -145.5c0 -48.667 -17.167 -97.167 -51.5 -145.5s-89.666 -91.5 -165.999 -129.5s-207.833 -78.333 -394.5 -121z
M265.999 428.999c127.333 28 217.999 57 271.999 87s94.833 67.333 122.5 112s41.5 91.667 41.5 141c0 39.333 -10.167 70 -30.5 92s-48.166 33 -83.499 33c-64 0 -125.833 -36.5 -185.5 -109.5s-105.167 -191.5 -136.5 -355.5zM630.998 1442h95l203 -329h-35l-230 182
l-297 -182h-45z" />
    <glyph glyph-name="edieresis" unicode="&#xeb;" horiz-adv-x="909" 
d="M252 364c-3.33301 -31.333 -5.00098 -57.667 -5.00098 -79c0 -73.333 17.833 -129.5 53.5 -168.5s84.167 -58.5 145.5 -58.5c48 0 95.333 12.5 142 37.5s105 75.167 175 150.5l46 -42c-126 -155.333 -259.333 -233 -400 -233c-96 0 -177 36 -243 108s-99 164 -99 276
c0 98.667 27.667 195.5 83 290.5s129.166 172 221.499 231s178.5 88.5 258.5 88.5c68.667 0 124.834 -19.833 168.501 -59.5s65.5 -88.167 65.5 -145.5c0 -48.667 -17.167 -97.167 -51.5 -145.5s-89.666 -91.5 -165.999 -129.5s-207.833 -78.333 -394.5 -121z
M265.999 428.999c127.333 28 217.999 57 271.999 87s94.833 67.333 122.5 112s41.5 91.667 41.5 141c0 39.333 -10.167 70 -30.5 92s-48.166 33 -83.499 33c-64 0 -125.833 -36.5 -185.5 -109.5s-105.167 -191.5 -136.5 -355.5zM474.998 1382
c28.667 0 53.002 -10.167 73.002 -30.5s30 -44.833 30 -73.5c0 -30 -10 -55.167 -30 -75.5s-44.333 -30.5 -73 -30.5s-53.334 10.167 -74.001 30.5s-31 45.166 -31 74.499c0 28.667 10.167 53.334 30.5 74.001s45.166 31 74.499 31zM872 1382
c28 0 52.001 -10.167 72.001 -30.5s30 -45.5 30 -75.5c0 -29.333 -10 -54.333 -30 -75s-44.333 -31 -73 -31s-53.334 10.333 -74.001 31s-31 45.667 -31 75s10.333 54.333 31 75s45.667 31 75 31z" />
    <glyph glyph-name="igrave" unicode="&#xec;" 
d="M527 954l-222.001 -783c-6 -20 -9 -37.333 -9 -52c0 -16.667 3.83301 -29.167 11.5 -37.5s17.834 -12.5 30.501 -12.5c24 0 52.333 15.333 85 46c54 51.333 106.333 123.333 157 216l53 -31c-48.667 -106 -106.667 -187.333 -174 -244s-128 -85 -182 -85
c-36 0 -66.667 14.167 -92 42.5s-38 65.5 -38 111.5c0 45.333 7.33301 93.333 22 144l148 511c2.66699 8.66699 4 17 4 25c0 18 -7.66699 32 -23 42c-20.667 13.333 -51.667 20 -93 20h-63l20 69zM664.999 1110l-22 -22.001l-310 183c-70.667 42 -106 84.667 -106 128
c0 20.667 8.16699 39.334 24.5 56.001s34.5 25 54.5 25c32 0 64.333 -19.333 97 -58z" />
    <glyph glyph-name="iacute" unicode="&#xed;" 
d="M527 954l-222.001 -783c-6 -20 -9 -37.333 -9 -52c0 -16.667 3.83301 -29.167 11.5 -37.5s17.834 -12.5 30.501 -12.5c24 0 52.333 15.333 85 46c54 51.333 106.333 123.333 157 216l53 -31c-48.667 -106 -106.667 -187.333 -174 -244s-128 -85 -182 -85
c-36 0 -66.667 14.167 -92 42.5s-38 65.5 -38 111.5c0 45.333 7.33301 93.333 22 144l148 511c2.66699 8.66699 4 17 4 25c0 18 -7.66699 32 -23 42c-20.667 13.333 -51.667 20 -93 20h-63l20 69zM359.999 1088l-22.001 23l232 275c53.333 63.333 94.333 95 123 95
c20.667 0 39.334 -8.33301 56.001 -25s25 -35 25 -55c0 -44 -34.667 -86.667 -104 -128z" />
    <glyph glyph-name="icircumflex" unicode="&#xee;" 
d="M527 954l-222.001 -783c-6 -20 -9 -37.333 -9 -52c0 -16.667 3.83301 -29.167 11.5 -37.5s17.834 -12.5 30.501 -12.5c24 0 52.333 15.333 85 46c54 51.333 106.333 123.333 157 216l53 -31c-48.667 -106 -106.667 -187.333 -174 -244s-128 -85 -182 -85
c-36 0 -66.667 14.167 -92 42.5s-38 65.5 -38 111.5c0 45.333 7.33301 93.333 22 144l148 511c2.66699 8.66699 4 17 4 25c0 18 -7.66699 32 -23 42c-20.667 13.333 -51.667 20 -93 20h-63l20 69zM468.999 1442h95l203 -329h-35l-230 182l-297 -182h-45z" />
    <glyph glyph-name="idieresis" unicode="&#xef;" 
d="M527 954l-222.001 -783c-6 -20 -9 -37.333 -9 -52c0 -16.667 3.83301 -29.167 11.5 -37.5s17.834 -12.5 30.501 -12.5c24 0 52.333 15.333 85 46c54 51.333 106.333 123.333 157 216l53 -31c-48.667 -106 -106.667 -187.333 -174 -244s-128 -85 -182 -85
c-36 0 -66.667 14.167 -92 42.5s-38 65.5 -38 111.5c0 45.333 7.33301 93.333 22 144l148 511c2.66699 8.66699 4 17 4 25c0 18 -7.66699 32 -23 42c-20.667 13.333 -51.667 20 -93 20h-63l20 69zM269.999 1382c28.667 0 53.002 -10.167 73.002 -30.5s30 -44.833 30 -73.5
c0 -30 -10 -55.167 -30 -75.5s-44.333 -30.5 -73 -30.5s-53.334 10.167 -74.001 30.5s-31 45.166 -31 74.499c0 28.667 10.167 53.334 30.5 74.001s45.166 31 74.499 31zM667.001 1382c28 0 52.001 -10.167 72.001 -30.5s30 -45.5 30 -75.5c0 -29.333 -10 -54.333 -30 -75
s-44.333 -31 -73 -31s-53.334 10.333 -74.001 31s-31 45.667 -31 75s10.333 54.333 31 75s45.667 31 75 31z" />
    <glyph glyph-name="eth" unicode="&#xf0;" horiz-adv-x="1024" 
d="M762 906c-36.667 165.333 -105.333 298.667 -206 400l-152 -63l-65 50l161 65c-63.333 47.333 -125.666 82.666 -186.999 105.999l38 48c93.333 -32 172.666 -71 237.999 -117l132 54l73 -45l-141 -59c96.667 -84 173.167 -187 229.5 -309s84.5 -248.667 84.5 -380
c0 -134 -25.667 -255 -77 -363s-116.5 -188.667 -195.5 -242s-164.833 -80 -257.5 -80c-104 0 -192.5 38.833 -265.5 116.5s-109.5 174.834 -109.5 291.501c0 97.333 26 193.5 78 288.5s118 168.333 198 220s162 77.5 246 77.5c34 0 65.833 -4.83301 95.5 -14.5
s57.167 -24.5 82.5 -44.5zM592.001 897.001c-52 0 -99.335 -18.335 -142.002 -55.002c-56.667 -47.333 -105.667 -124.166 -147 -230.499s-62 -212.5 -62 -318.5c0 -82 17.667 -145 53 -189s80.333 -66 135 -66c60.667 0 116.334 25.333 167.001 76
c60 60.667 108 153.334 144 278.001c27.333 96 41 181 41 255c0 82 -17.667 144.167 -53 186.5s-80.666 63.5 -135.999 63.5z" />
    <glyph glyph-name="ntilde" unicode="&#xf1;" horiz-adv-x="1251" 
d="M526 954l-86.0039 -325.001c153.333 217.333 296.666 326 429.999 326c51.333 0 93.166 -17.167 125.499 -51.5s48.5 -81.166 48.5 -140.499c0 -50 -11.333 -109.333 -34 -178l-107 -333l-26 -83c-4 -18.667 -6 -34 -6 -46c0 -14 4 -25.833 12 -35.5
s17.333 -14.5 28 -14.5c28.667 0 65.334 22 110.001 66s84.667 110.333 120 199l62 -21c-43.333 -109.333 -97.666 -192.5 -162.999 -249.5s-126.333 -85.5 -183 -85.5c-39.333 0 -72.166 14.667 -98.499 44s-39.5 67 -39.5 113c0 38.667 7.66699 81 23 127l118 363
c13.333 40 20 79 20 117c0 32 -8.33301 57.333 -25 76s-38 28 -64 28c-59.333 0 -134.166 -49 -224.499 -147s-160.166 -232.667 -209.499 -404l-87 -299l-165 -8l221 778c3.33301 12 5 23.667 5 35c0 20 -6.33301 35 -19 45c-17.333 12.667 -41.666 19 -72.999 19h-89
l19 67zM459.996 1164c4.66699 78 24.167 135.833 58.5 173.5s77.833 56.5 130.5 56.5c46 0 112 -16 198 -48c71.333 -27.333 123 -41 155 -41c52 0 85 29 99 87h34c-2.66699 -72.667 -21.834 -128.5 -57.501 -167.5s-81.5 -58.5 -137.5 -58.5
c-20 0 -44.167 3.33301 -72.5 10s-84.833 25 -169.5 55c-47.333 16.667 -82.666 25 -105.999 25c-54.667 0 -87 -30.667 -97 -92h-35z" />
    <glyph glyph-name="ograve" unicode="&#xf2;" horiz-adv-x="1024" 
d="M588 965c102.667 0 189.833 -38.1689 261.5 -114.502s107.5 -173.166 107.5 -290.499c0 -101.333 -25.5 -199.5 -76.5 -294.5s-116.5 -167.833 -196.5 -218.5s-163 -76 -249 -76c-102.667 0 -190.5 38.833 -263.5 116.5s-109.5 174.834 -109.5 291.501
c0 97.333 26 193.5 78 288.5s118.5 168.333 199.5 220s163.833 77.5 248.5 77.5zM591.999 896.998c-50 0 -100.499 -21.167 -151.499 -63.5s-97 -116.5 -138 -222.5s-61.5 -212 -61.5 -318c0 -82 17.667 -145 53 -189s80.333 -66 135 -66c52 0 102.667 20.667 152 62
s95 116.833 137 226.5s63 217.167 63 322.5c0 78 -17.833 138.833 -53.5 182.5s-80.834 65.5 -135.501 65.5zM936 1110l-22 -22.001l-310 183c-70.667 42 -106 84.667 -106 128c0 20.667 8.16699 39.334 24.5 56.001s34.5 25 54.5 25c32 0 64.333 -19.333 97 -58z" />
    <glyph glyph-name="oacute" unicode="&#xf3;" horiz-adv-x="1024" 
d="M588 965c102.667 0 189.833 -38.1689 261.5 -114.502s107.5 -173.166 107.5 -290.499c0 -101.333 -25.5 -199.5 -76.5 -294.5s-116.5 -167.833 -196.5 -218.5s-163 -76 -249 -76c-102.667 0 -190.5 38.833 -263.5 116.5s-109.5 174.834 -109.5 291.501
c0 97.333 26 193.5 78 288.5s118.5 168.333 199.5 220s163.833 77.5 248.5 77.5zM591.999 896.998c-50 0 -100.499 -21.167 -151.499 -63.5s-97 -116.5 -138 -222.5s-61.5 -212 -61.5 -318c0 -82 17.667 -145 53 -189s80.333 -66 135 -66c52 0 102.667 20.667 152 62
s95 116.833 137 226.5s63 217.167 63 322.5c0 78 -17.833 138.833 -53.5 182.5s-80.834 65.5 -135.501 65.5zM552 1088l-22.001 23l232 275c53.333 63.333 94.333 95 123 95c20.667 0 39.334 -8.33301 56.001 -25s25 -35 25 -55c0 -44 -34.667 -86.667 -104 -128z" />
    <glyph glyph-name="ocircumflex" unicode="&#xf4;" horiz-adv-x="1024" 
d="M588 965c102.667 0 189.833 -38.1689 261.5 -114.502s107.5 -173.166 107.5 -290.499c0 -101.333 -25.5 -199.5 -76.5 -294.5s-116.5 -167.833 -196.5 -218.5s-163 -76 -249 -76c-102.667 0 -190.5 38.833 -263.5 116.5s-109.5 174.834 -109.5 291.501
c0 97.333 26 193.5 78 288.5s118.5 168.333 199.5 220s163.833 77.5 248.5 77.5zM591.999 896.998c-50 0 -100.499 -21.167 -151.499 -63.5s-97 -116.5 -138 -222.5s-61.5 -212 -61.5 -318c0 -82 17.667 -145 53 -189s80.333 -66 135 -66c52 0 102.667 20.667 152 62
s95 116.833 137 226.5s63 217.167 63 322.5c0 78 -17.833 138.833 -53.5 182.5s-80.834 65.5 -135.501 65.5zM675 1442h95l203 -329h-35l-230 182l-297 -182h-45z" />
    <glyph glyph-name="otilde" unicode="&#xf5;" horiz-adv-x="1024" 
d="M588 965c102.667 0 189.833 -38.1689 261.5 -114.502s107.5 -173.166 107.5 -290.499c0 -101.333 -25.5 -199.5 -76.5 -294.5s-116.5 -167.833 -196.5 -218.5s-163 -76 -249 -76c-102.667 0 -190.5 38.833 -263.5 116.5s-109.5 174.834 -109.5 291.501
c0 97.333 26 193.5 78 288.5s118.5 168.333 199.5 220s163.833 77.5 248.5 77.5zM591.999 896.998c-50 0 -100.499 -21.167 -151.499 -63.5s-97 -116.5 -138 -222.5s-61.5 -212 -61.5 -318c0 -82 17.667 -145 53 -189s80.333 -66 135 -66c52 0 102.667 20.667 152 62
s95 116.833 137 226.5s63 217.167 63 322.5c0 78 -17.833 138.833 -53.5 182.5s-80.834 65.5 -135.501 65.5zM362 1164c4.66699 78 24.167 135.833 58.5 173.5s77.833 56.5 130.5 56.5c46 0 112 -16 198 -48c71.333 -27.333 123 -41 155 -41c52 0 85 29 99 87h34
c-2.66699 -72.667 -21.834 -128.5 -57.501 -167.5s-81.5 -58.5 -137.5 -58.5c-20 0 -44.167 3.33301 -72.5 10s-84.833 25 -169.5 55c-47.333 16.667 -82.666 25 -105.999 25c-54.667 0 -87 -30.667 -97 -92h-35z" />
    <glyph glyph-name="odieresis" unicode="&#xf6;" horiz-adv-x="1024" 
d="M588 965c102.667 0 189.833 -38.1689 261.5 -114.502s107.5 -173.166 107.5 -290.499c0 -101.333 -25.5 -199.5 -76.5 -294.5s-116.5 -167.833 -196.5 -218.5s-163 -76 -249 -76c-102.667 0 -190.5 38.833 -263.5 116.5s-109.5 174.834 -109.5 291.501
c0 97.333 26 193.5 78 288.5s118.5 168.333 199.5 220s163.833 77.5 248.5 77.5zM591.999 896.998c-50 0 -100.499 -21.167 -151.499 -63.5s-97 -116.5 -138 -222.5s-61.5 -212 -61.5 -318c0 -82 17.667 -145 53 -189s80.333 -66 135 -66c52 0 102.667 20.667 152 62
s95 116.833 137 226.5s63 217.167 63 322.5c0 78 -17.833 138.833 -53.5 182.5s-80.834 65.5 -135.501 65.5zM519 1382c28.667 0 53.002 -10.167 73.002 -30.5s30 -44.833 30 -73.5c0 -30 -10 -55.167 -30 -75.5s-44.333 -30.5 -73 -30.5s-53.334 10.167 -74.001 30.5
s-31 45.166 -31 74.499c0 28.667 10.167 53.334 30.5 74.001s45.166 31 74.499 31zM916.002 1382c28 0 52.001 -10.167 72.001 -30.5s30 -45.5 30 -75.5c0 -29.333 -10 -54.333 -30 -75s-44.333 -31 -73 -31s-53.334 10.333 -74.001 31s-31 45.667 -31 75
s10.333 54.333 31 75s45.667 31 75 31z" />
    <glyph glyph-name="divide" unicode="&#xf7;" horiz-adv-x="1124" 
d="M562 1075c24 0 44.5 -8.5 61.5 -25.5s25.5 -37.5 25.5 -61.5s-8.5 -44.5 -25.5 -61.5s-37.833 -25.5 -62.5 -25.5c-24 0 -44.5 8.5 -61.5 25.5s-25.5 37.5 -25.5 61.5s8.5 44.5 25.5 61.5s37.833 25.5 62.5 25.5zM1101 640h-1078v82h1078v-82zM562 455
c24.667 0 45.5 -8.66699 62.5 -26s25.5 -38 25.5 -62s-8.66699 -44.667 -26 -62s-38 -26 -62 -26s-44.667 8.66699 -62 26s-26 38 -26 62s8.5 44.667 25.5 62s37.833 26 62.5 26z" />
    <glyph glyph-name="oslash" unicode="&#xf8;" horiz-adv-x="1024" 
d="M150 112c-59.333 74 -89 163 -89 267c0 97.333 26 193.333 78 288s118.5 168 199.5 220s163.5 78 247.5 78c88 0 165.667 -28.667 233 -86l49 57h93l-94 -107c59.333 -74.667 89 -164.667 89 -270c0 -100.667 -25.5 -198.5 -76.5 -293.5s-116.333 -167.833 -196 -218.5
s-162.5 -76 -248.5 -76c-89.333 0 -168 29.667 -236 89l-53 -60h-93zM246 221l501.999 577c-35.333 66 -87.666 99 -156.999 99c-50 0 -100.333 -21.167 -151 -63.5s-96.667 -116.5 -138 -222.5s-62 -212 -62 -318c0 -24 2 -48 6 -72zM773.999 722l-503.998 -579
c34 -70 87 -105 159 -105c51.333 0 101.666 20.667 150.999 62s95.166 116.833 137.499 226.5s63.5 217.5 63.5 323.5c0 24.667 -2.33301 48.667 -7 72z" />
    <glyph glyph-name="ugrave" unicode="&#xf9;" horiz-adv-x="1251" 
d="M552 954l-199.001 -616.999c-21.333 -66.667 -32 -121 -32 -163c0 -30.667 8.5 -54.834 25.5 -72.501s39.833 -26.5 68.5 -26.5c58 0 130.167 43.5 216.5 130.5s157.166 214.833 212.499 383.5l113 347h162l-239 -740c-10.667 -32.667 -16 -60.667 -16 -84
c0 -17.333 3.83301 -30.333 11.5 -39s18.834 -13 33.501 -13c60 0 136.333 86.667 229 260l57 -20c-52 -115.333 -108.667 -199 -170 -251s-119.666 -78 -174.999 -78c-40 0 -71.667 12.167 -95 36.5s-35 57.833 -35 100.5c0 35.333 7.66699 85 23 149
c-84 -109.333 -157.667 -184.333 -221 -225s-123.333 -61 -180 -61c-58 0 -104 16.5 -138 49.5s-51 76.167 -51 129.5c0 44 14.333 110 43 198l135 422c3.33301 10.667 5 21 5 31c0 18 -8 32.333 -24 43c-21.333 13.333 -52 20 -92 20h-55l20 72zM902.999 1110l-22 -22.001
l-310 183c-70.667 42 -106 84.667 -106 128c0 20.667 8.16699 39.334 24.5 56.001s34.5 25 54.5 25c32 0 64.333 -19.333 97 -58z" />
    <glyph glyph-name="uacute" unicode="&#xfa;" horiz-adv-x="1251" 
d="M552 954l-199.001 -616.999c-21.333 -66.667 -32 -121 -32 -163c0 -30.667 8.5 -54.834 25.5 -72.501s39.833 -26.5 68.5 -26.5c58 0 130.167 43.5 216.5 130.5s157.166 214.833 212.499 383.5l113 347h162l-239 -740c-10.667 -32.667 -16 -60.667 -16 -84
c0 -17.333 3.83301 -30.333 11.5 -39s18.834 -13 33.501 -13c60 0 136.333 86.667 229 260l57 -20c-52 -115.333 -108.667 -199 -170 -251s-119.666 -78 -174.999 -78c-40 0 -71.667 12.167 -95 36.5s-35 57.833 -35 100.5c0 35.333 7.66699 85 23 149
c-84 -109.333 -157.667 -184.333 -221 -225s-123.333 -61 -180 -61c-58 0 -104 16.5 -138 49.5s-51 76.167 -51 129.5c0 44 14.333 110 43 198l135 422c3.33301 10.667 5 21 5 31c0 18 -8 32.333 -24 43c-21.333 13.333 -52 20 -92 20h-55l20 72zM673.999 1088l-22.001 23
l232 275c53.333 63.333 94.333 95 123 95c20.667 0 39.334 -8.33301 56.001 -25s25 -35 25 -55c0 -44 -34.667 -86.667 -104 -128z" />
    <glyph glyph-name="ucircumflex" unicode="&#xfb;" horiz-adv-x="1251" 
d="M552 954l-199.001 -616.999c-21.333 -66.667 -32 -121 -32 -163c0 -30.667 8.5 -54.834 25.5 -72.501s39.833 -26.5 68.5 -26.5c58 0 130.167 43.5 216.5 130.5s157.166 214.833 212.499 383.5l113 347h162l-239 -740c-10.667 -32.667 -16 -60.667 -16 -84
c0 -17.333 3.83301 -30.333 11.5 -39s18.834 -13 33.501 -13c60 0 136.333 86.667 229 260l57 -20c-52 -115.333 -108.667 -199 -170 -251s-119.666 -78 -174.999 -78c-40 0 -71.667 12.167 -95 36.5s-35 57.833 -35 100.5c0 35.333 7.66699 85 23 149
c-84 -109.333 -157.667 -184.333 -221 -225s-123.333 -61 -180 -61c-58 0 -104 16.5 -138 49.5s-51 76.167 -51 129.5c0 44 14.333 110 43 198l135 422c3.33301 10.667 5 21 5 31c0 18 -8 32.333 -24 43c-21.333 13.333 -52 20 -92 20h-55l20 72zM791.999 1442h95l203 -329
h-35l-230 182l-297 -182h-45z" />
    <glyph glyph-name="udieresis" unicode="&#xfc;" horiz-adv-x="1251" 
d="M552 954l-199.001 -616.999c-21.333 -66.667 -32 -121 -32 -163c0 -30.667 8.5 -54.834 25.5 -72.501s39.833 -26.5 68.5 -26.5c58 0 130.167 43.5 216.5 130.5s157.166 214.833 212.499 383.5l113 347h162l-239 -740c-10.667 -32.667 -16 -60.667 -16 -84
c0 -17.333 3.83301 -30.333 11.5 -39s18.834 -13 33.501 -13c60 0 136.333 86.667 229 260l57 -20c-52 -115.333 -108.667 -199 -170 -251s-119.666 -78 -174.999 -78c-40 0 -71.667 12.167 -95 36.5s-35 57.833 -35 100.5c0 35.333 7.66699 85 23 149
c-84 -109.333 -157.667 -184.333 -221 -225s-123.333 -61 -180 -61c-58 0 -104 16.5 -138 49.5s-51 76.167 -51 129.5c0 44 14.333 110 43 198l135 422c3.33301 10.667 5 21 5 31c0 18 -8 32.333 -24 43c-21.333 13.333 -52 20 -92 20h-55l20 72zM605.999 1382
c28.667 0 53.002 -10.167 73.002 -30.5s30 -44.833 30 -73.5c0 -30 -10 -55.167 -30 -75.5s-44.333 -30.5 -73 -30.5s-53.334 10.167 -74.001 30.5s-31 45.166 -31 74.499c0 28.667 10.167 53.334 30.5 74.001s45.166 31 74.499 31zM1003 1382
c28 0 52.001 -10.167 72.001 -30.5s30 -45.5 30 -75.5c0 -29.333 -10 -54.333 -30 -75s-44.333 -31 -73 -31s-53.334 10.333 -74.001 31s-31 45.667 -31 75s10.333 54.333 31 75s45.667 31 75 31z" />
    <glyph glyph-name="yacute" unicode="&#xfd;" horiz-adv-x="1024" 
d="M623 238c69.333 105.333 123.673 207.33 163.006 305.997c25.333 62 38 115 38 159c0 18.667 -4.66699 48.334 -14 89.001c-7.33301 32.667 -11 57.334 -11 74.001c0 28.667 8.5 52.334 25.5 71.001s37.5 28 61.5 28c25.333 0 46 -9.16699 62 -27.5s24 -43.833 24 -76.5
c0 -32 -12 -81.667 -36 -149c-32.667 -92 -77.334 -187.667 -134.001 -287l-235 -412c-52.667 -92.667 -113.334 -177.334 -182.001 -254.001c-50 -55.333 -101.167 -95.666 -153.5 -120.999s-98.833 -38 -139.5 -38c-50.667 0 -92.834 14 -126.501 42
s-50.5 61.667 -50.5 101c0 32 10.333 59.167 31 81.5s44.667 33.5 72 33.5c25.333 0 47.166 -9.16699 65.499 -27.5s27.5 -39.5 27.5 -63.5l-2 -35l-1 -12c0 -11.333 4 -20.333 12 -27c8 -7.33301 19 -11 33 -11c37.333 0 79.666 21 126.999 63
c73.333 64.667 146.333 159.667 219 285l-65 340c-36.667 191.333 -74.334 323.333 -113.001 396c-22.667 41.333 -43.667 62 -63 62c-35.333 0 -74 -61 -116 -183l-61 25c38 106.667 82 186 132 238c36 38 73.333 57 112 57c40 0 71.667 -17.667 95 -53
c34 -50 74.333 -167.333 121 -352zM486.007 1088l-22.001 23l232 275c53.333 63.333 94.333 95 123 95c20.667 0 39.334 -8.33301 56.001 -25s25 -35 25 -55c0 -44 -34.667 -86.667 -104 -128z" />
    <glyph glyph-name="thorn" unicode="&#xfe;" horiz-adv-x="1176" 
d="M291 163l-108 -377.001c-4 -12 -6 -24 -6 -36c0 -19.333 7.5 -34.333 22.5 -45s40.833 -16 77.5 -16h62l-19 -74h-489l21 74h35c31.333 0 59 8.83301 83 26.5s40.333 41.167 49 70.5l453 1531c2 8.66699 3 17.334 3 26.001c0 18.667 -7.5 33.5 -22.5 44.5
s-39.833 16.5 -74.5 16.5h-73l22 75l354 19l-233 -747c56.667 80.667 111 136.5 163 167.5s107.333 46.5 166 46.5c82.667 0 153.167 -33 211.5 -99s87.5 -152 87.5 -258c0 -106.667 -27.167 -211.667 -81.5 -315s-122.333 -182.833 -204 -238.5
s-162.834 -83.5 -243.501 -83.5c-123.333 0 -208.666 64 -255.999 192zM722 873.999c-56.667 0 -115.668 -28.834 -177.001 -86.501s-110.666 -140.667 -147.999 -249s-56 -198.166 -56 -269.499c0 -64.667 16.833 -115.5 50.5 -152.5s78.5 -55.5 134.5 -55.5
c55.333 0 108.833 21.333 160.5 64s99.5 117.167 143.5 223.5s66 210.833 66 313.5c0 65.333 -16.5 117 -49.5 155s-74.5 57 -124.5 57z" />
    <glyph glyph-name="ydieresis" unicode="&#xff;" horiz-adv-x="1024" 
d="M623 238c69.333 105.333 123.673 207.33 163.006 305.997c25.333 62 38 115 38 159c0 18.667 -4.66699 48.334 -14 89.001c-7.33301 32.667 -11 57.334 -11 74.001c0 28.667 8.5 52.334 25.5 71.001s37.5 28 61.5 28c25.333 0 46 -9.16699 62 -27.5s24 -43.833 24 -76.5
c0 -32 -12 -81.667 -36 -149c-32.667 -92 -77.334 -187.667 -134.001 -287l-235 -412c-52.667 -92.667 -113.334 -177.334 -182.001 -254.001c-50 -55.333 -101.167 -95.666 -153.5 -120.999s-98.833 -38 -139.5 -38c-50.667 0 -92.834 14 -126.501 42
s-50.5 61.667 -50.5 101c0 32 10.333 59.167 31 81.5s44.667 33.5 72 33.5c25.333 0 47.166 -9.16699 65.499 -27.5s27.5 -39.5 27.5 -63.5l-2 -35l-1 -12c0 -11.333 4 -20.333 12 -27c8 -7.33301 19 -11 33 -11c37.333 0 79.666 21 126.999 63
c73.333 64.667 146.333 159.667 219 285l-65 340c-36.667 191.333 -74.334 323.333 -113.001 396c-22.667 41.333 -43.667 62 -63 62c-35.333 0 -74 -61 -116 -183l-61 25c38 106.667 82 186 132 238c36 38 73.333 57 112 57c40 0 71.667 -17.667 95 -53
c34 -50 74.333 -167.333 121 -352zM453.007 1382c28.667 0 53.002 -10.167 73.002 -30.5s30 -44.833 30 -73.5c0 -30 -10 -55.167 -30 -75.5s-44.333 -30.5 -73 -30.5s-53.334 10.167 -74.001 30.5s-31 45.166 -31 74.499c0 28.667 10.167 53.334 30.5 74.001
s45.166 31 74.499 31zM850.009 1382c28 0 52.001 -10.167 72.001 -30.5s30 -45.5 30 -75.5c0 -29.333 -10 -54.333 -30 -75s-44.333 -31 -73 -31s-53.334 10.333 -74.001 31s-31 45.667 -31 75s10.333 54.333 31 75s45.667 31 75 31z" />
    <glyph glyph-name="Amacron" unicode="&#x100;" horiz-adv-x="1442" 
d="M961 1479l80.999 0.000976562l180 -1304c4.66699 -34.667 18.5 -60 41.5 -76s58.5 -24 106.5 -24h50l-20 -75h-600l20 75h53c57.333 0 94.833 6 112.5 18s26.5 30.667 26.5 56c0 10 -1 21.667 -3 35l-41 299h-534l-131 -206c-23.333 -36.667 -35 -73.334 -35 -110.001
c0 -29.333 10.833 -52 32.5 -68s56.834 -24 105.501 -24h49l-21 -75h-526l20 75c53.333 4 99.333 19 138 45s78 70.333 118 133zM872.999 1175l-383 -604h466zM719.999 1758h608l-35 -130h-609z" />
    <glyph glyph-name="amacron" unicode="&#x101;" horiz-adv-x="1176" 
d="M715 157c-40 -61.333 -86.334 -107.666 -139.001 -138.999s-104.667 -47 -156 -47c-99.333 0 -183.333 36.167 -252 108.5s-103 164.166 -103 275.499c0 101.333 26.833 200.5 80.5 297.5s122.5 173.333 206.5 229s165.667 83.5 245 83.5c64 0 120.5 -18.833 169.5 -56.5
s82.167 -87.5 99.5 -149.5l58 177l157 18l-219 -762c-6 -20.667 -9 -41.334 -9 -62.001c0 -18.667 3.83301 -33 11.5 -43s16.834 -15 27.501 -15c20 0 42.667 13.667 68 41c49.333 52.667 95.666 123.334 138.999 212.001l58 -26c-104.667 -218.667 -211.667 -328 -321 -328
c-35.333 0 -64.666 13.5 -87.999 40.5s-35 61.833 -35 104.5zM609.999 886c-52.667 0 -105.831 -21.165 -159.498 -63.498s-101 -112.833 -142 -211.5s-61.5 -200.334 -61.5 -305.001c0 -82.667 17 -143.834 51 -183.501s82.333 -59.5 145 -59.5
c56 0 108.167 19.667 156.5 59s96.166 116.5 143.499 231.5s71 217.167 71 306.5c0 64 -20.333 117.667 -61 161s-88.334 65 -143.001 65zM464.002 1254h608l-35 -130h-609z" />
    <glyph glyph-name="Abreve" unicode="&#x102;" horiz-adv-x="1442" 
d="M961 1479l80.999 0.000976562l180 -1304c4.66699 -34.667 18.5 -60 41.5 -76s58.5 -24 106.5 -24h50l-20 -75h-600l20 75h53c57.333 0 94.833 6 112.5 18s26.5 30.667 26.5 56c0 10 -1 21.667 -3 35l-41 299h-534l-131 -206c-23.333 -36.667 -35 -73.334 -35 -110.001
c0 -29.333 10.833 -52 32.5 -68s56.834 -24 105.501 -24h49l-21 -75h-526l20 75c53.333 4 99.333 19 138 45s78 70.333 118 133zM872.999 1175l-383 -604h466zM840.999 1967l32.002 0.000976562c1.33301 -69.333 17.166 -120.833 47.499 -154.5s71.166 -50.5 122.499 -50.5
c62 0 116.667 21 164 63c35.333 31.333 64 78.666 86 141.999h29l1 -27c0 -89.333 -29.5 -167.5 -88.5 -234.5s-124.167 -100.5 -195.5 -100.5c-58 0 -108.167 23 -150.5 69s-63.5 101.667 -63.5 167c0 32.667 5.33301 74.667 16 126z" />
    <glyph glyph-name="abreve" unicode="&#x103;" horiz-adv-x="1176" 
d="M715 157c-40 -61.333 -86.334 -107.666 -139.001 -138.999s-104.667 -47 -156 -47c-99.333 0 -183.333 36.167 -252 108.5s-103 164.166 -103 275.499c0 101.333 26.833 200.5 80.5 297.5s122.5 173.333 206.5 229s165.667 83.5 245 83.5c64 0 120.5 -18.833 169.5 -56.5
s82.167 -87.5 99.5 -149.5l58 177l157 18l-219 -762c-6 -20.667 -9 -41.334 -9 -62.001c0 -18.667 3.83301 -33 11.5 -43s16.834 -15 27.501 -15c20 0 42.667 13.667 68 41c49.333 52.667 95.666 123.334 138.999 212.001l58 -26c-104.667 -218.667 -211.667 -328 -321 -328
c-35.333 0 -64.666 13.5 -87.999 40.5s-35 61.833 -35 104.5zM609.999 886c-52.667 0 -105.831 -21.165 -159.498 -63.498s-101 -112.833 -142 -211.5s-61.5 -200.334 -61.5 -305.001c0 -82.667 17 -143.834 51 -183.501s82.333 -59.5 145 -59.5
c56 0 108.167 19.667 156.5 59s96.166 116.5 143.499 231.5s71 217.167 71 306.5c0 64 -20.333 117.667 -61 161s-88.334 65 -143.001 65zM511.002 1464l32.002 0.000976562c1.33301 -69.333 17.166 -120.833 47.499 -154.5s71.166 -50.5 122.499 -50.5
c62 0 116.667 21 164 63c35.333 31.333 64 78.666 86 141.999h29l1 -27c0 -89.333 -29.5 -167.5 -88.5 -234.5s-124.167 -100.5 -195.5 -100.5c-58 0 -108.167 23 -150.5 69s-63.5 101.667 -63.5 167c0 32.667 5.33301 74.667 16 126z" />
    <glyph glyph-name="Aogonek" unicode="&#x104;" horiz-adv-x="1442" 
d="M961 1479l80.999 0.000976562l180 -1304c4.66699 -34.667 18.5 -60 41.5 -76s58.5 -24 106.5 -24h50l-20 -75h-600l20 75h53c57.333 0 94.833 6 112.5 18s26.5 30.667 26.5 56c0 10 -1 21.667 -3 35l-41 299h-534l-131 -206c-23.333 -36.667 -35 -73.334 -35 -110.001
c0 -29.333 10.833 -52 32.5 -68s56.834 -24 105.501 -24h49l-21 -75h-526l20 75c53.333 4 99.333 19 138 45s78 70.333 118 133zM872.999 1175l-383 -604h466zM1091 4.00098l56.998 0.00195312c-18.667 -45.333 -28 -82.333 -28 -111
c0 -54.667 21.833 -101.334 65.5 -140.001s99.834 -58 168.501 -58c36.667 0 81.667 8.66699 135 26l24 -31c-56 -34.667 -102.667 -58 -140 -70s-76.666 -18 -117.999 -18c-78.667 0 -140.667 20.167 -186 60.5s-68 90.833 -68 151.5c0 67.333 30 130.666 90 189.999z" />
    <glyph glyph-name="aogonek" unicode="&#x105;" horiz-adv-x="1176" 
d="M715 157c-40 -61.333 -86.334 -107.666 -139.001 -138.999s-104.667 -47 -156 -47c-99.333 0 -183.333 36.167 -252 108.5s-103 164.166 -103 275.499c0 101.333 26.833 200.5 80.5 297.5s122.5 173.333 206.5 229s165.667 83.5 245 83.5c64 0 120.5 -18.833 169.5 -56.5
s82.167 -87.5 99.5 -149.5l58 177l157 18l-219 -762c-6 -20.667 -9 -41.334 -9 -62.001c0 -18.667 3.83301 -33 11.5 -43s16.834 -15 27.501 -15c20 0 42.667 13.667 68 41c49.333 52.667 95.666 123.334 138.999 212.001l58 -26c-104.667 -218.667 -211.667 -328 -321 -328
c-35.333 0 -64.666 13.5 -87.999 40.5s-35 61.833 -35 104.5zM609.999 886c-52.667 0 -105.831 -21.165 -159.498 -63.498s-101 -112.833 -142 -211.5s-61.5 -200.334 -61.5 -305.001c0 -82.667 17 -143.834 51 -183.501s82.333 -59.5 145 -59.5
c56 0 108.167 19.667 156.5 59s96.166 116.5 143.499 231.5s71 217.167 71 306.5c0 64 -20.333 117.667 -61 161s-88.334 65 -143.001 65zM841.002 4.00195l56.998 0.00195312c-18.667 -45.333 -28 -82.333 -28 -111c0 -54.667 21.833 -101.334 65.5 -140.001
s99.834 -58 168.501 -58c36.667 0 81.667 8.66699 135 26l24 -31c-56 -34.667 -102.667 -58 -140 -70s-76.666 -18 -117.999 -18c-78.667 0 -140.667 20.167 -186 60.5s-68 90.833 -68 151.5c0 67.333 30 130.666 90 189.999z" />
    <glyph glyph-name="Cacute" unicode="&#x106;" horiz-adv-x="1479" 
d="M1374 1348l104.997 99h67l-108 -541h-64c-0.666992 111.333 -10.334 198.666 -29.001 261.999c-25.333 88.667 -66.166 156.834 -122.499 204.501s-125.166 71.5 -206.499 71.5c-101.333 0 -197.666 -40 -288.999 -120s-166.666 -207.667 -225.999 -383
c-50 -150.667 -75 -297.667 -75 -441c0 -144 36 -254.667 108 -332s168.667 -116 290 -116c105.333 0 201 32.833 287 98.5s155.667 165.5 209 299.5l64 -25c-54 -139.333 -122.667 -244.333 -206 -315c-109.333 -92.667 -241 -139 -395 -139
c-171.333 0 -313.333 56.833 -426 170.5s-169 257.167 -169 430.5c0 162.667 40.667 321 122 475s183 270.5 305 349.5s252 118.5 390 118.5c66.667 0 128.667 -12.5 186 -37.5s118.333 -68.167 183 -129.5zM902.997 1590l-22.001 23l232 275
c53.333 63.333 94.333 95 123 95c20.667 0 39.334 -8.33301 56.001 -25s25 -35 25 -55c0 -44 -34.667 -86.667 -104 -128z" />
    <glyph glyph-name="cacute" unicode="&#x107;" horiz-adv-x="909" 
d="M762 246l50 -38.0039c-64 -85.333 -128.333 -146.166 -193 -182.499s-133.334 -54.5 -206.001 -54.5c-96 0 -175.833 34.5 -239.5 103.5s-95.5 159.167 -95.5 270.5c0 104.667 27.167 206.834 81.5 306.501s124.166 176.834 209.499 231.501s172.333 82 261 82
c74.667 0 133.334 -19.167 176.001 -57.5s64 -88.166 64 -149.499c0 -47.333 -11 -84.166 -33 -110.499s-49.333 -39.5 -82 -39.5c-28 0 -51.833 9.5 -71.5 28.5s-29.5 41.833 -29.5 68.5c0 45.333 24 75.333 72 90c25.333 8 38 19.667 38 35s-11.167 30.833 -33.5 46.5
s-50.833 23.5 -85.5 23.5c-57.333 0 -114.833 -22 -172.5 -66s-106.667 -113.333 -147 -208s-60.5 -195.334 -60.5 -302.001c0 -90.667 18.333 -158.167 55 -202.5s85.334 -66.5 146.001 -66.5c97.333 0 196 63.667 296 191zM498 1088l-22.001 23l232 275
c53.333 63.333 94.333 95 123 95c20.667 0 39.334 -8.33301 56.001 -25s25 -35 25 -55c0 -44 -34.667 -86.667 -104 -128z" />
    <glyph glyph-name="Ccircumflex" unicode="&#x108;" horiz-adv-x="1479" 
d="M1374 1348l104.997 99h67l-108 -541h-64c-0.666992 111.333 -10.334 198.666 -29.001 261.999c-25.333 88.667 -66.166 156.834 -122.499 204.501s-125.166 71.5 -206.499 71.5c-101.333 0 -197.666 -40 -288.999 -120s-166.666 -207.667 -225.999 -383
c-50 -150.667 -75 -297.667 -75 -441c0 -144 36 -254.667 108 -332s168.667 -116 290 -116c105.333 0 201 32.833 287 98.5s155.667 165.5 209 299.5l64 -25c-54 -139.333 -122.667 -244.333 -206 -315c-109.333 -92.667 -241 -139 -395 -139
c-171.333 0 -313.333 56.833 -426 170.5s-169 257.167 -169 430.5c0 162.667 40.667 321 122 475s183 270.5 305 349.5s252 118.5 390 118.5c66.667 0 128.667 -12.5 186 -37.5s118.333 -68.167 183 -129.5zM1056 1945h95l203 -329h-35l-230 182l-297 -182h-45z" />
    <glyph glyph-name="ccircumflex" unicode="&#x109;" horiz-adv-x="909" 
d="M762 246l50 -38.0039c-64 -85.333 -128.333 -146.166 -193 -182.499s-133.334 -54.5 -206.001 -54.5c-96 0 -175.833 34.5 -239.5 103.5s-95.5 159.167 -95.5 270.5c0 104.667 27.167 206.834 81.5 306.501s124.166 176.834 209.499 231.501s172.333 82 261 82
c74.667 0 133.334 -19.167 176.001 -57.5s64 -88.166 64 -149.499c0 -47.333 -11 -84.166 -33 -110.499s-49.333 -39.5 -82 -39.5c-28 0 -51.833 9.5 -71.5 28.5s-29.5 41.833 -29.5 68.5c0 45.333 24 75.333 72 90c25.333 8 38 19.667 38 35s-11.167 30.833 -33.5 46.5
s-50.833 23.5 -85.5 23.5c-57.333 0 -114.833 -22 -172.5 -66s-106.667 -113.333 -147 -208s-60.5 -195.334 -60.5 -302.001c0 -90.667 18.333 -158.167 55 -202.5s85.334 -66.5 146.001 -66.5c97.333 0 196 63.667 296 191zM623 1442h95l203 -329h-35l-230 182l-297 -182
h-45z" />
    <glyph glyph-name="Cdot" unicode="&#x10a;" horiz-adv-x="1479" 
d="M1374 1348l104.997 99h67l-108 -541h-64c-0.666992 111.333 -10.334 198.666 -29.001 261.999c-25.333 88.667 -66.166 156.834 -122.499 204.501s-125.166 71.5 -206.499 71.5c-101.333 0 -197.666 -40 -288.999 -120s-166.666 -207.667 -225.999 -383
c-50 -150.667 -75 -297.667 -75 -441c0 -144 36 -254.667 108 -332s168.667 -116 290 -116c105.333 0 201 32.833 287 98.5s155.667 165.5 209 299.5l64 -25c-54 -139.333 -122.667 -244.333 -206 -315c-109.333 -92.667 -241 -139 -395 -139
c-171.333 0 -313.333 56.833 -426 170.5s-169 257.167 -169 430.5c0 162.667 40.667 321 122 475s183 270.5 305 349.5s252 118.5 390 118.5c66.667 0 128.667 -12.5 186 -37.5s118.333 -68.167 183 -129.5zM1084 1887c28 0 52.001 -10.167 72.001 -30.5s30 -45.5 30 -75.5
s-10 -55.167 -30 -75.5s-44.333 -30.5 -73 -30.5s-53.334 10.333 -74.001 31s-31 45.667 -31 75s10.333 54.333 31 75s45.667 31 75 31z" />
    <glyph glyph-name="cdot" unicode="&#x10b;" horiz-adv-x="909" 
d="M762 246l50 -38.0039c-64 -85.333 -128.333 -146.166 -193 -182.499s-133.334 -54.5 -206.001 -54.5c-96 0 -175.833 34.5 -239.5 103.5s-95.5 159.167 -95.5 270.5c0 104.667 27.167 206.834 81.5 306.501s124.166 176.834 209.499 231.501s172.333 82 261 82
c74.667 0 133.334 -19.167 176.001 -57.5s64 -88.166 64 -149.499c0 -47.333 -11 -84.166 -33 -110.499s-49.333 -39.5 -82 -39.5c-28 0 -51.833 9.5 -71.5 28.5s-29.5 41.833 -29.5 68.5c0 45.333 24 75.333 72 90c25.333 8 38 19.667 38 35s-11.167 30.833 -33.5 46.5
s-50.833 23.5 -85.5 23.5c-57.333 0 -114.833 -22 -172.5 -66s-106.667 -113.333 -147 -208s-60.5 -195.334 -60.5 -302.001c0 -90.667 18.333 -158.167 55 -202.5s85.334 -66.5 146.001 -66.5c97.333 0 196 63.667 296 191zM676 1382c28 0 52.001 -10.167 72.001 -30.5
s30 -45.5 30 -75.5s-10 -55.167 -30 -75.5s-44.333 -30.5 -73 -30.5s-53.334 10.333 -74.001 31s-31 45.667 -31 75s10.333 54.333 31 75s45.667 31 75 31z" />
    <glyph glyph-name="Ccaron" unicode="&#x10c;" horiz-adv-x="1479" 
d="M1374 1348l104.997 99h67l-108 -541h-64c-0.666992 111.333 -10.334 198.666 -29.001 261.999c-25.333 88.667 -66.166 156.834 -122.499 204.501s-125.166 71.5 -206.499 71.5c-101.333 0 -197.666 -40 -288.999 -120s-166.666 -207.667 -225.999 -383
c-50 -150.667 -75 -297.667 -75 -441c0 -144 36 -254.667 108 -332s168.667 -116 290 -116c105.333 0 201 32.833 287 98.5s155.667 165.5 209 299.5l64 -25c-54 -139.333 -122.667 -244.333 -206 -315c-109.333 -92.667 -241 -139 -395 -139
c-171.333 0 -313.333 56.833 -426 170.5s-169 257.167 -169 430.5c0 162.667 40.667 321 122 475s183 270.5 305 349.5s252 118.5 390 118.5c66.667 0 128.667 -12.5 186 -37.5s118.333 -68.167 183 -129.5zM1014 1773l283 173h54l-310 -330h-90l-205 330h42z" />
    <glyph glyph-name="ccaron" unicode="&#x10d;" horiz-adv-x="909" 
d="M762 246l50 -38.0039c-64 -85.333 -128.333 -146.166 -193 -182.499s-133.334 -54.5 -206.001 -54.5c-96 0 -175.833 34.5 -239.5 103.5s-95.5 159.167 -95.5 270.5c0 104.667 27.167 206.834 81.5 306.501s124.166 176.834 209.499 231.501s172.333 82 261 82
c74.667 0 133.334 -19.167 176.001 -57.5s64 -88.166 64 -149.499c0 -47.333 -11 -84.166 -33 -110.499s-49.333 -39.5 -82 -39.5c-28 0 -51.833 9.5 -71.5 28.5s-29.5 41.833 -29.5 68.5c0 45.333 24 75.333 72 90c25.333 8 38 19.667 38 35s-11.167 30.833 -33.5 46.5
s-50.833 23.5 -85.5 23.5c-57.333 0 -114.833 -22 -172.5 -66s-106.667 -113.333 -147 -208s-60.5 -195.334 -60.5 -302.001c0 -90.667 18.333 -158.167 55 -202.5s85.334 -66.5 146.001 -66.5c97.333 0 196 63.667 296 191zM657 1271l283 173h54l-310 -330h-90l-205 330h42
z" />
    <glyph glyph-name="Dcaron" unicode="&#x10e;" horiz-adv-x="1593" 
d="M338 1479l666.999 -0.00195312c186.667 0 331.5 -52 434.5 -156s154.5 -250 154.5 -438c0 -124 -22.5 -244.167 -67.5 -360.5s-101.167 -210.166 -168.5 -281.499s-156.833 -129.666 -268.5 -174.999s-224.167 -68 -337.5 -68h-757l20 75h80c44.667 0 77 7.5 97 22.5
s35 41.833 45 80.5l308 1145c1.33301 7.33301 2 15 2 23c0 18 -8.16699 32.167 -24.5 42.5s-47.166 15.5 -92.499 15.5h-110zM715.999 74.998c96.667 0 181.166 17.833 253.499 53.5s137 91 194 166s102.5 173.5 136.5 295.5c45.333 160 68 300 68 420
c0 152 -42 260.333 -126 325c-60.667 47.333 -159.667 71 -297 71c-80 0 -128.333 -4.83301 -145 -14.5s-31 -36.5 -43 -80.5l-307 -1142c-4 -14 -6 -26.667 -6 -38c0 -17.333 6.33301 -31 19 -41s32.334 -15 59.001 -15h194zM970.998 1775l283 173h54l-310 -330h-90
l-205 330h42z" />
    <glyph glyph-name="dcaron" unicode="&#x10f;" horiz-adv-x="1341" 
d="M1247 1094l-27 43c70.667 29.333 122 59 154 89s48 54.667 48 74c0 10.667 -13 18.667 -39 24c-48.667 10 -73 37.667 -73 83c0 30.667 11.5 55.167 34.5 73.5s47.833 27.5 74.5 27.5c32.667 0 60.667 -11.333 84 -34s35 -51 35 -85c0 -128 -97 -226.333 -291 -295z
M1247 1498l-370.002 -1280c-10.667 -36.667 -16 -68 -16 -94c0 -32.667 15.333 -49 46 -49c60.667 0 139.334 86 236.001 258l57 -28c-117.333 -222.667 -232 -334 -344 -334c-87.333 0 -133.666 62 -138.999 186c-92.667 -124 -195.667 -186 -309 -186
c-88.667 0 -164.167 32.5 -226.5 97.5s-93.5 152.167 -93.5 261.5c0 88.667 23.167 183.834 69.5 285.501s111 185.334 194 251.001s170.833 98.5 263.5 98.5c112 0 201.333 -56.333 268 -169l150 531c2 7.33301 3 14 3 20c0 38 -28.667 57 -86 57h-104l20 75z
M639.998 879.998c-74 0 -138.667 -33.333 -194 -100s-98.5 -150.334 -129.5 -251.001s-46.5 -183.334 -46.5 -248.001c0 -66.667 16.5 -120 49.5 -160s75.5 -60 127.5 -60c109.333 0 199.833 74.333 271.5 223s107.5 278.334 107.5 389.001
c0 68.667 -18.5 120.334 -55.5 155.001s-80.5 52 -130.5 52z" />
    <glyph glyph-name="Dslash" unicode="&#x110;" horiz-adv-x="1593" 
d="M376 694l-231.001 -0.00195312l29 91h226l145 538c1.33301 7.33301 2 15 2 23c0 18 -8.16699 32.167 -24.5 42.5s-47.166 15.5 -92.499 15.5h-110l18 75h667c186.667 0 331.5 -52 434.5 -156s154.5 -250 154.5 -438c0 -124 -22.5 -244.167 -67.5 -360.5
s-101.167 -210.166 -168.5 -281.499s-156.833 -129.666 -268.5 -174.999s-224.167 -68 -337.5 -68h-757l20 75h80c44.667 0 77 7.5 97 22.5s35 41.833 45 80.5zM587.999 693.998l-138.001 -525c-4 -14 -6 -26.667 -6 -38c0 -17.333 6.33301 -31 19 -41
s32.334 -15 59.001 -15h194c96.667 0 181.167 17.833 253.5 53.5s137 91 194 166s102.5 173.5 136.5 295.5c45.333 160 68 300 68 420c0 152 -42 260.333 -126 325c-60.667 47.333 -159.667 71 -297 71c-80 0 -128.333 -4.66699 -145 -14s-31 -36.333 -43 -81l-145 -526h274
l-23 -91h-275z" />
    <glyph glyph-name="dmacron" unicode="&#x111;" horiz-adv-x="1251" 
d="M1155 1180l179 0.000976562l-20 -70h-179l-258 -892c-10.667 -36.667 -16 -68 -16 -94c0 -15.333 4.16699 -27.333 12.5 -36s19.833 -13 34.5 -13c59.333 0 137.666 86 234.999 258l57 -28c-62.667 -121.333 -123.667 -207.333 -183 -258s-113 -76 -161 -76
c-43.333 0 -76.666 15.5 -99.999 46.5s-36.333 77.5 -39 139.5c-92.667 -124 -195.667 -186 -309 -186c-56.667 0 -110.167 15 -160.5 45s-89.5 72.5 -117.5 127.5s-42 116.5 -42 184.5c0 103.333 27.667 208 83 314s122.833 186.333 202.5 241s160.167 82 241.5 82
c56 0 106.333 -14 151 -42s83.667 -70.333 117 -127l89 314h-321l20 70h320l42 147c2 7.33301 3 14 3 20c0 17.333 -7 31.166 -21 41.499s-35.667 15.5 -65 15.5h-104l20 75l381 19zM640 880.001c-61.333 0 -121 -27.332 -179 -81.999s-106.667 -145.334 -146 -272.001
c-30 -96 -45 -177.667 -45 -245c0 -68 16.833 -121.667 50.5 -161s75.834 -59 126.501 -59c59.333 0 118.5 28.333 177.5 85s107.333 141.834 145 255.501s56.5 204.167 56.5 271.5c0 63.333 -17.333 113.666 -52 150.999s-79.334 56 -134.001 56z" />
    <glyph glyph-name="Emacron" unicode="&#x112;" horiz-adv-x="1479" 
d="M350 1479l1181 -0.00195312l-114 -477h-71c11.333 64 17 116 17 156c0 84 -22.667 146 -68 186s-117.333 60 -216 60h-205c-28 0 -49.333 -7.16699 -64 -21.5s-28.334 -45.5 -41.001 -93.5l-131 -489h104c158 0 263.667 88 317 264h75l-179 -670h-73
c14 61.333 21 106.333 21 135c0 64.667 -16.667 113.834 -50 147.501s-80.333 50.5 -141 50.5h-92l-148 -558c-3.33301 -11.333 -5 -22.333 -5 -33c0 -19.333 5.33301 -33.333 16 -42c16 -12.667 36 -19 60 -19h235c122 0 227.667 33.833 317 101.5
s166.666 180.167 231.999 337.5h72l-157 -514h-1204l9 75h78c68.667 0 109.667 24.667 123 74l311 1159c3.33301 12.667 5 24.667 5 36c0 18.667 -7.83301 33.334 -23.5 44.001s-44.834 16 -87.501 16h-123zM790.003 1758h608l-35 -130h-609z" />
    <glyph glyph-name="emacron" unicode="&#x113;" horiz-adv-x="909" 
d="M252 364c-3.33301 -31.333 -5.00098 -57.667 -5.00098 -79c0 -73.333 17.833 -129.5 53.5 -168.5s84.167 -58.5 145.5 -58.5c48 0 95.333 12.5 142 37.5s105 75.167 175 150.5l46 -42c-126 -155.333 -259.333 -233 -400 -233c-96 0 -177 36 -243 108s-99 164 -99 276
c0 98.667 27.667 195.5 83 290.5s129.166 172 221.499 231s178.5 88.5 258.5 88.5c68.667 0 124.834 -19.833 168.501 -59.5s65.5 -88.167 65.5 -145.5c0 -48.667 -17.167 -97.167 -51.5 -145.5s-89.666 -91.5 -165.999 -129.5s-207.833 -78.333 -394.5 -121z
M265.999 428.999c127.333 28 217.999 57 271.999 87s94.833 67.333 122.5 112s41.5 91.667 41.5 141c0 39.333 -10.167 70 -30.5 92s-48.166 33 -83.499 33c-64 0 -125.833 -36.5 -185.5 -109.5s-105.167 -191.5 -136.5 -355.5zM330.998 1254h608l-35 -130h-609z" />
    <glyph glyph-name="Ebreve" unicode="&#x114;" horiz-adv-x="1479" 
d="M350 1479l1181 -0.00195312l-114 -477h-71c11.333 64 17 116 17 156c0 84 -22.667 146 -68 186s-117.333 60 -216 60h-205c-28 0 -49.333 -7.16699 -64 -21.5s-28.334 -45.5 -41.001 -93.5l-131 -489h104c158 0 263.667 88 317 264h75l-179 -670h-73
c14 61.333 21 106.333 21 135c0 64.667 -16.667 113.834 -50 147.501s-80.333 50.5 -141 50.5h-92l-148 -558c-3.33301 -11.333 -5 -22.333 -5 -33c0 -19.333 5.33301 -33.333 16 -42c16 -12.667 36 -19 60 -19h235c122 0 227.667 33.833 317 101.5
s166.666 180.167 231.999 337.5h72l-157 -514h-1204l9 75h78c68.667 0 109.667 24.667 123 74l311 1159c3.33301 12.667 5 24.667 5 36c0 18.667 -7.83301 33.334 -23.5 44.001s-44.834 16 -87.501 16h-123zM868.003 1968l32.002 0.000976562
c1.33301 -69.333 17.166 -120.833 47.499 -154.5s71.166 -50.5 122.499 -50.5c62 0 116.667 21 164 63c35.333 31.333 64 78.666 86 141.999h29l1 -27c0 -89.333 -29.5 -167.5 -88.5 -234.5s-124.167 -100.5 -195.5 -100.5c-58 0 -108.167 23 -150.5 69
s-63.5 101.667 -63.5 167c0 32.667 5.33301 74.667 16 126z" />
    <glyph glyph-name="ebreve" unicode="&#x115;" horiz-adv-x="909" 
d="M252 364c-3.33301 -31.333 -5.00098 -57.667 -5.00098 -79c0 -73.333 17.833 -129.5 53.5 -168.5s84.167 -58.5 145.5 -58.5c48 0 95.333 12.5 142 37.5s105 75.167 175 150.5l46 -42c-126 -155.333 -259.333 -233 -400 -233c-96 0 -177 36 -243 108s-99 164 -99 276
c0 98.667 27.667 195.5 83 290.5s129.166 172 221.499 231s178.5 88.5 258.5 88.5c68.667 0 124.834 -19.833 168.501 -59.5s65.5 -88.167 65.5 -145.5c0 -48.667 -17.167 -97.167 -51.5 -145.5s-89.666 -91.5 -165.999 -129.5s-207.833 -78.333 -394.5 -121z
M265.999 428.999c127.333 28 217.999 57 271.999 87s94.833 67.333 122.5 112s41.5 91.667 41.5 141c0 39.333 -10.167 70 -30.5 92s-48.166 33 -83.499 33c-64 0 -125.833 -36.5 -185.5 -109.5s-105.167 -191.5 -136.5 -355.5zM420.998 1464l32.002 0.000976562
c1.33301 -69.333 17.166 -120.833 47.499 -154.5s71.166 -50.5 122.499 -50.5c62 0 116.667 21 164 63c35.333 31.333 64 78.666 86 141.999h29l1 -27c0 -89.333 -29.5 -167.5 -88.5 -234.5s-124.167 -100.5 -195.5 -100.5c-58 0 -108.167 23 -150.5 69
s-63.5 101.667 -63.5 167c0 32.667 5.33301 74.667 16 126z" />
    <glyph glyph-name="Edot" unicode="&#x116;" horiz-adv-x="1479" 
d="M350 1479l1181 -0.00195312l-114 -477h-71c11.333 64 17 116 17 156c0 84 -22.667 146 -68 186s-117.333 60 -216 60h-205c-28 0 -49.333 -7.16699 -64 -21.5s-28.334 -45.5 -41.001 -93.5l-131 -489h104c158 0 263.667 88 317 264h75l-179 -670h-73
c14 61.333 21 106.333 21 135c0 64.667 -16.667 113.834 -50 147.501s-80.333 50.5 -141 50.5h-92l-148 -558c-3.33301 -11.333 -5 -22.333 -5 -33c0 -19.333 5.33301 -33.333 16 -42c16 -12.667 36 -19 60 -19h235c122 0 227.667 33.833 317 101.5
s166.666 180.167 231.999 337.5h72l-157 -514h-1204l9 75h78c68.667 0 109.667 24.667 123 74l311 1159c3.33301 12.667 5 24.667 5 36c0 18.667 -7.83301 33.334 -23.5 44.001s-44.834 16 -87.501 16h-123zM1089 1887c28 0 52.001 -10.167 72.001 -30.5s30 -45.5 30 -75.5
s-10 -55.167 -30 -75.5s-44.333 -30.5 -73 -30.5s-53.334 10.333 -74.001 31s-31 45.667 -31 75s10.333 54.333 31 75s45.667 31 75 31z" />
    <glyph glyph-name="edot" unicode="&#x117;" horiz-adv-x="909" 
d="M252 364c-3.33301 -31.333 -5.00098 -57.667 -5.00098 -79c0 -73.333 17.833 -129.5 53.5 -168.5s84.167 -58.5 145.5 -58.5c48 0 95.333 12.5 142 37.5s105 75.167 175 150.5l46 -42c-126 -155.333 -259.333 -233 -400 -233c-96 0 -177 36 -243 108s-99 164 -99 276
c0 98.667 27.667 195.5 83 290.5s129.166 172 221.499 231s178.5 88.5 258.5 88.5c68.667 0 124.834 -19.833 168.501 -59.5s65.5 -88.167 65.5 -145.5c0 -48.667 -17.167 -97.167 -51.5 -145.5s-89.666 -91.5 -165.999 -129.5s-207.833 -78.333 -394.5 -121z
M265.999 428.999c127.333 28 217.999 57 271.999 87s94.833 67.333 122.5 112s41.5 91.667 41.5 141c0 39.333 -10.167 70 -30.5 92s-48.166 33 -83.499 33c-64 0 -125.833 -36.5 -185.5 -109.5s-105.167 -191.5 -136.5 -355.5zM654.998 1382
c28 0 52.001 -10.167 72.001 -30.5s30 -45.5 30 -75.5s-10 -55.167 -30 -75.5s-44.333 -30.5 -73 -30.5s-53.334 10.333 -74.001 31s-31 45.667 -31 75s10.333 54.333 31 75s45.667 31 75 31z" />
    <glyph glyph-name="Eogonek" unicode="&#x118;" horiz-adv-x="1479" 
d="M350 1479l1181 -0.00195312l-114 -477h-71c11.333 64 17 116 17 156c0 84 -22.667 146 -68 186s-117.333 60 -216 60h-205c-28 0 -49.333 -7.16699 -64 -21.5s-28.334 -45.5 -41.001 -93.5l-131 -489h104c158 0 263.667 88 317 264h75l-179 -670h-73
c14 61.333 21 106.333 21 135c0 64.667 -16.667 113.834 -50 147.501s-80.333 50.5 -141 50.5h-92l-148 -558c-3.33301 -11.333 -5 -22.333 -5 -33c0 -19.333 5.33301 -33.333 16 -42c16 -12.667 36 -19 60 -19h235c122 0 227.667 33.833 317 101.5
s166.666 180.167 231.999 337.5h72l-157 -514h-1204l9 75h78c68.667 0 109.667 24.667 123 74l311 1159c3.33301 12.667 5 24.667 5 36c0 18.667 -7.83301 33.334 -23.5 44.001s-44.834 16 -87.501 16h-123zM941.003 3.99805l56.998 0.00195312
c-18.667 -45.333 -28 -82.333 -28 -111c0 -54.667 21.833 -101.334 65.5 -140.001s99.834 -58 168.501 -58c36.667 0 81.667 8.66699 135 26l24 -31c-56 -34.667 -102.667 -58 -140 -70s-76.666 -18 -117.999 -18c-78.667 0 -140.667 20.167 -186 60.5s-68 90.833 -68 151.5
c0 67.333 30 130.666 90 189.999z" />
    <glyph glyph-name="eogonek" unicode="&#x119;" horiz-adv-x="909" 
d="M252 364c-3.33301 -31.333 -5.00098 -57.667 -5.00098 -79c0 -73.333 17.833 -129.5 53.5 -168.5s84.167 -58.5 145.5 -58.5c48 0 95.333 12.5 142 37.5s105 75.167 175 150.5l46 -42c-126 -155.333 -259.333 -233 -400 -233c-96 0 -177 36 -243 108s-99 164 -99 276
c0 98.667 27.667 195.5 83 290.5s129.166 172 221.499 231s178.5 88.5 258.5 88.5c68.667 0 124.834 -19.833 168.501 -59.5s65.5 -88.167 65.5 -145.5c0 -48.667 -17.167 -97.167 -51.5 -145.5s-89.666 -91.5 -165.999 -129.5s-207.833 -78.333 -394.5 -121z
M265.999 428.999c127.333 28 217.999 57 271.999 87s94.833 67.333 122.5 112s41.5 91.667 41.5 141c0 39.333 -10.167 70 -30.5 92s-48.166 33 -83.499 33c-64 0 -125.833 -36.5 -185.5 -109.5s-105.167 -191.5 -136.5 -355.5zM400.998 3.99902l56.998 0.00195312
c-18.667 -45.333 -28 -82.333 -28 -111c0 -54.667 21.833 -101.334 65.5 -140.001s99.834 -58 168.501 -58c36.667 0 81.667 8.66699 135 26l24 -31c-56 -34.667 -102.667 -58 -140 -70s-76.666 -18 -117.999 -18c-78.667 0 -140.667 20.167 -186 60.5s-68 90.833 -68 151.5
c0 67.333 30 130.666 90 189.999z" />
    <glyph glyph-name="Ecaron" unicode="&#x11a;" horiz-adv-x="1479" 
d="M350 1479l1181 -0.00195312l-114 -477h-71c11.333 64 17 116 17 156c0 84 -22.667 146 -68 186s-117.333 60 -216 60h-205c-28 0 -49.333 -7.16699 -64 -21.5s-28.334 -45.5 -41.001 -93.5l-131 -489h104c158 0 263.667 88 317 264h75l-179 -670h-73
c14 61.333 21 106.333 21 135c0 64.667 -16.667 113.834 -50 147.501s-80.333 50.5 -141 50.5h-92l-148 -558c-3.33301 -11.333 -5 -22.333 -5 -33c0 -19.333 5.33301 -33.333 16 -42c16 -12.667 36 -19 60 -19h235c122 0 227.667 33.833 317 101.5
s166.666 180.167 231.999 337.5h72l-157 -514h-1204l9 75h78c68.667 0 109.667 24.667 123 74l311 1159c3.33301 12.667 5 24.667 5 36c0 18.667 -7.83301 33.334 -23.5 44.001s-44.834 16 -87.501 16h-123zM1002 1775l283 173h54l-310 -330h-90l-205 330h42z" />
    <glyph glyph-name="ecaron" unicode="&#x11b;" horiz-adv-x="909" 
d="M252 364c-3.33301 -31.333 -5.00098 -57.667 -5.00098 -79c0 -73.333 17.833 -129.5 53.5 -168.5s84.167 -58.5 145.5 -58.5c48 0 95.333 12.5 142 37.5s105 75.167 175 150.5l46 -42c-126 -155.333 -259.333 -233 -400 -233c-96 0 -177 36 -243 108s-99 164 -99 276
c0 98.667 27.667 195.5 83 290.5s129.166 172 221.499 231s178.5 88.5 258.5 88.5c68.667 0 124.834 -19.833 168.501 -59.5s65.5 -88.167 65.5 -145.5c0 -48.667 -17.167 -97.167 -51.5 -145.5s-89.666 -91.5 -165.999 -129.5s-207.833 -78.333 -394.5 -121z
M265.999 428.999c127.333 28 217.999 57 271.999 87s94.833 67.333 122.5 112s41.5 91.667 41.5 141c0 39.333 -10.167 70 -30.5 92s-48.166 33 -83.499 33c-64 0 -125.833 -36.5 -185.5 -109.5s-105.167 -191.5 -136.5 -355.5zM595.998 1271l283 173h54l-310 -330h-90
l-205 330h42z" />
    <glyph glyph-name="Gcircumflex" unicode="&#x11c;" horiz-adv-x="1593" 
d="M1395 1357l88.002 103h68l-87 -524h-69c-3.33301 166.667 -40.5 292.667 -111.5 378s-163.167 128 -276.5 128c-107.333 0 -208.833 -42.833 -304.5 -128.5s-173.834 -221.5 -234.501 -407.5c-50 -154.667 -75 -299.334 -75 -434.001c0 -138 32.667 -243.5 98 -316.5
s153 -109.5 263 -109.5c62.667 0 117.667 10 165 30s89.666 51.667 126.999 95s61.666 85.666 72.999 126.999l58 213l10 30l1 15c0 17.333 -7.16699 31.5 -21.5 42.5s-36.166 16.5 -65.499 16.5h-102l18 72h542l-8 -72h-55c-54 0 -87.667 -25.333 -101 -76l-142 -539h-65
l-11 170c-74.667 -70.667 -149.667 -121.5 -225 -152.5s-156.333 -46.5 -243 -46.5c-160.667 0 -292.667 54 -396 162s-155 249.667 -155 425c0 160.667 42.667 317.834 128 471.501s194 273.334 326 359.001s267.667 128.5 407 128.5c71.333 0 135.833 -11.833 193.5 -35.5
s118.5 -65.167 182.5 -124.5zM1048 1945h95l203 -329h-35l-230 182l-297 -182h-45z" />
    <glyph glyph-name="gcircumflex" unicode="&#x11d;" horiz-adv-x="1100" 
d="M784 936c78 66 151.667 99.0029 221 99.0029c38 0 68.167 -9.33301 90.5 -28s33.5 -42 33.5 -70c0 -24 -7.33301 -43.833 -22 -59.5s-33 -23.5 -55 -23.5c-27.333 0 -50 15 -68 45c-12 19.333 -21.667 31.666 -29 36.999c-8 4.66699 -18.667 7 -32 7
c-28.667 0 -56.334 -13.333 -83.001 -40c90.667 -60.667 136 -137 136 -229c0 -93.333 -37.833 -174 -113.5 -242s-172.5 -102 -290.5 -102c-25.333 0 -60 2.66699 -104 8c-41.333 4.66699 -72.666 7 -93.999 7c-56 0 -98.833 -10 -128.5 -30s-44.5 -43.333 -44.5 -70
c0 -14.667 5 -27.834 15 -39.501s26.333 -20.167 49 -25.5c15.333 -3.33301 59.333 -6.66602 132 -9.99902c155.333 -7.33301 262.833 -20 322.5 -38s103.167 -44.333 130.5 -79s41 -75 41 -121c0 -54 -19.167 -106.5 -57.5 -157.5s-99.5 -92.833 -183.5 -125.5
s-181.333 -49 -292 -49c-96 0 -176.667 10.667 -242 32s-112.333 49.5 -141 84.5s-43 69.5 -43 103.5c0 43.333 20.5 82.333 61.5 117s110.5 68.667 208.5 102c-42 17.333 -73.5 38.666 -94.5 63.999s-31.5 55 -31.5 89c0 51.333 23 97.166 69 137.499
s109 64.166 189 71.499c-92 56 -138 129.667 -138 221c0 54.667 17.667 108.334 53 161.001s87.833 96.167 157.5 130.5s142.167 51.5 217.5 51.5c28 0 55.333 -2.33301 82 -7s52.667 -12 78 -22zM632 905.003c-69.333 0 -130 -30 -182 -90s-78 -134 -78 -222
c0 -63.333 16.833 -113.166 50.5 -149.499s77.5 -54.5 131.5 -54.5c66 0 124 29.667 174 89s75 136.666 75 231.999c0 60 -16 107.5 -48 142.5s-73 52.5 -123 52.5zM413 18.0029c-119.333 0 -203.5 -17.833 -252.5 -53.5s-73.5 -80.5 -73.5 -134.5
c0 -48.667 22.5 -88.667 67.5 -120s119.167 -47 222.5 -47c132.667 0 231.667 24.333 297 73c50.667 37.333 76 81.333 76 132c0 42 -24.5 77.5 -73.5 106.5s-136.833 43.5 -263.5 43.5zM692 1442h95l203 -329h-35l-230 182l-297 -182h-45z" />
    <glyph glyph-name="Gbreve" unicode="&#x11e;" horiz-adv-x="1593" 
d="M1395 1357l88.002 103h68l-87 -524h-69c-3.33301 166.667 -40.5 292.667 -111.5 378s-163.167 128 -276.5 128c-107.333 0 -208.833 -42.833 -304.5 -128.5s-173.834 -221.5 -234.501 -407.5c-50 -154.667 -75 -299.334 -75 -434.001c0 -138 32.667 -243.5 98 -316.5
s153 -109.5 263 -109.5c62.667 0 117.667 10 165 30s89.666 51.667 126.999 95s61.666 85.666 72.999 126.999l58 213l10 30l1 15c0 17.333 -7.16699 31.5 -21.5 42.5s-36.166 16.5 -65.499 16.5h-102l18 72h542l-8 -72h-55c-54 0 -87.667 -25.333 -101 -76l-142 -539h-65
l-11 170c-74.667 -70.667 -149.667 -121.5 -225 -152.5s-156.333 -46.5 -243 -46.5c-160.667 0 -292.667 54 -396 162s-155 249.667 -155 425c0 160.667 42.667 317.834 128 471.501s194 273.334 326 359.001s267.667 128.5 407 128.5c71.333 0 135.833 -11.833 193.5 -35.5
s118.5 -65.167 182.5 -124.5zM841.002 1966l32.002 0.000976562c1.33301 -69.333 17.166 -120.833 47.499 -154.5s71.166 -50.5 122.499 -50.5c62 0 116.667 21 164 63c35.333 31.333 64 78.666 86 141.999h29l1 -27c0 -89.333 -29.5 -167.5 -88.5 -234.5
s-124.167 -100.5 -195.5 -100.5c-58 0 -108.167 23 -150.5 69s-63.5 101.667 -63.5 167c0 32.667 5.33301 74.667 16 126z" />
    <glyph glyph-name="gbreve" unicode="&#x11f;" horiz-adv-x="1100" 
d="M784 936c78 66 151.667 99.0029 221 99.0029c38 0 68.167 -9.33301 90.5 -28s33.5 -42 33.5 -70c0 -24 -7.33301 -43.833 -22 -59.5s-33 -23.5 -55 -23.5c-27.333 0 -50 15 -68 45c-12 19.333 -21.667 31.666 -29 36.999c-8 4.66699 -18.667 7 -32 7
c-28.667 0 -56.334 -13.333 -83.001 -40c90.667 -60.667 136 -137 136 -229c0 -93.333 -37.833 -174 -113.5 -242s-172.5 -102 -290.5 -102c-25.333 0 -60 2.66699 -104 8c-41.333 4.66699 -72.666 7 -93.999 7c-56 0 -98.833 -10 -128.5 -30s-44.5 -43.333 -44.5 -70
c0 -14.667 5 -27.834 15 -39.501s26.333 -20.167 49 -25.5c15.333 -3.33301 59.333 -6.66602 132 -9.99902c155.333 -7.33301 262.833 -20 322.5 -38s103.167 -44.333 130.5 -79s41 -75 41 -121c0 -54 -19.167 -106.5 -57.5 -157.5s-99.5 -92.833 -183.5 -125.5
s-181.333 -49 -292 -49c-96 0 -176.667 10.667 -242 32s-112.333 49.5 -141 84.5s-43 69.5 -43 103.5c0 43.333 20.5 82.333 61.5 117s110.5 68.667 208.5 102c-42 17.333 -73.5 38.666 -94.5 63.999s-31.5 55 -31.5 89c0 51.333 23 97.166 69 137.499
s109 64.166 189 71.499c-92 56 -138 129.667 -138 221c0 54.667 17.667 108.334 53 161.001s87.833 96.167 157.5 130.5s142.167 51.5 217.5 51.5c28 0 55.333 -2.33301 82 -7s52.667 -12 78 -22zM632 905.003c-69.333 0 -130 -30 -182 -90s-78 -134 -78 -222
c0 -63.333 16.833 -113.166 50.5 -149.499s77.5 -54.5 131.5 -54.5c66 0 124 29.667 174 89s75 136.666 75 231.999c0 60 -16 107.5 -48 142.5s-73 52.5 -123 52.5zM413 18.0029c-119.333 0 -203.5 -17.833 -252.5 -53.5s-73.5 -80.5 -73.5 -134.5
c0 -48.667 22.5 -88.667 67.5 -120s119.167 -47 222.5 -47c132.667 0 231.667 24.333 297 73c50.667 37.333 76 81.333 76 132c0 42 -24.5 77.5 -73.5 106.5s-136.833 43.5 -263.5 43.5zM520 1464l32.002 0.000976562c1.33301 -69.333 17.166 -120.833 47.499 -154.5
s71.166 -50.5 122.499 -50.5c62 0 116.667 21 164 63c35.333 31.333 64 78.666 86 141.999h29l1 -27c0 -89.333 -29.5 -167.5 -88.5 -234.5s-124.167 -100.5 -195.5 -100.5c-58 0 -108.167 23 -150.5 69s-63.5 101.667 -63.5 167c0 32.667 5.33301 74.667 16 126z" />
    <glyph glyph-name="Gdot" unicode="&#x120;" horiz-adv-x="1593" 
d="M1395 1357l88.002 103h68l-87 -524h-69c-3.33301 166.667 -40.5 292.667 -111.5 378s-163.167 128 -276.5 128c-107.333 0 -208.833 -42.833 -304.5 -128.5s-173.834 -221.5 -234.501 -407.5c-50 -154.667 -75 -299.334 -75 -434.001c0 -138 32.667 -243.5 98 -316.5
s153 -109.5 263 -109.5c62.667 0 117.667 10 165 30s89.666 51.667 126.999 95s61.666 85.666 72.999 126.999l58 213l10 30l1 15c0 17.333 -7.16699 31.5 -21.5 42.5s-36.166 16.5 -65.499 16.5h-102l18 72h542l-8 -72h-55c-54 0 -87.667 -25.333 -101 -76l-142 -539h-65
l-11 170c-74.667 -70.667 -149.667 -121.5 -225 -152.5s-156.333 -46.5 -243 -46.5c-160.667 0 -292.667 54 -396 162s-155 249.667 -155 425c0 160.667 42.667 317.834 128 471.501s194 273.334 326 359.001s267.667 128.5 407 128.5c71.333 0 135.833 -11.833 193.5 -35.5
s118.5 -65.167 182.5 -124.5zM1088 1887c28 0 52.001 -10.167 72.001 -30.5s30 -45.5 30 -75.5s-10 -55.167 -30 -75.5s-44.333 -30.5 -73 -30.5s-53.334 10.333 -74.001 31s-31 45.667 -31 75s10.333 54.333 31 75s45.667 31 75 31z" />
    <glyph glyph-name="gdot" unicode="&#x121;" horiz-adv-x="1100" 
d="M784 936c78 66 151.667 99.0029 221 99.0029c38 0 68.167 -9.33301 90.5 -28s33.5 -42 33.5 -70c0 -24 -7.33301 -43.833 -22 -59.5s-33 -23.5 -55 -23.5c-27.333 0 -50 15 -68 45c-12 19.333 -21.667 31.666 -29 36.999c-8 4.66699 -18.667 7 -32 7
c-28.667 0 -56.334 -13.333 -83.001 -40c90.667 -60.667 136 -137 136 -229c0 -93.333 -37.833 -174 -113.5 -242s-172.5 -102 -290.5 -102c-25.333 0 -60 2.66699 -104 8c-41.333 4.66699 -72.666 7 -93.999 7c-56 0 -98.833 -10 -128.5 -30s-44.5 -43.333 -44.5 -70
c0 -14.667 5 -27.834 15 -39.501s26.333 -20.167 49 -25.5c15.333 -3.33301 59.333 -6.66602 132 -9.99902c155.333 -7.33301 262.833 -20 322.5 -38s103.167 -44.333 130.5 -79s41 -75 41 -121c0 -54 -19.167 -106.5 -57.5 -157.5s-99.5 -92.833 -183.5 -125.5
s-181.333 -49 -292 -49c-96 0 -176.667 10.667 -242 32s-112.333 49.5 -141 84.5s-43 69.5 -43 103.5c0 43.333 20.5 82.333 61.5 117s110.5 68.667 208.5 102c-42 17.333 -73.5 38.666 -94.5 63.999s-31.5 55 -31.5 89c0 51.333 23 97.166 69 137.499
s109 64.166 189 71.499c-92 56 -138 129.667 -138 221c0 54.667 17.667 108.334 53 161.001s87.833 96.167 157.5 130.5s142.167 51.5 217.5 51.5c28 0 55.333 -2.33301 82 -7s52.667 -12 78 -22zM632 905.003c-69.333 0 -130 -30 -182 -90s-78 -134 -78 -222
c0 -63.333 16.833 -113.166 50.5 -149.499s77.5 -54.5 131.5 -54.5c66 0 124 29.667 174 89s75 136.666 75 231.999c0 60 -16 107.5 -48 142.5s-73 52.5 -123 52.5zM413 18.0029c-119.333 0 -203.5 -17.833 -252.5 -53.5s-73.5 -80.5 -73.5 -134.5
c0 -48.667 22.5 -88.667 67.5 -120s119.167 -47 222.5 -47c132.667 0 231.667 24.333 297 73c50.667 37.333 76 81.333 76 132c0 42 -24.5 77.5 -73.5 106.5s-136.833 43.5 -263.5 43.5zM732 1382c28 0 52.001 -10.167 72.001 -30.5s30 -45.5 30 -75.5
s-10 -55.167 -30 -75.5s-44.333 -30.5 -73 -30.5s-53.334 10.333 -74.001 31s-31 45.667 -31 75s10.333 54.333 31 75s45.667 31 75 31z" />
    <glyph glyph-name="Gcedilla" unicode="&#x122;" horiz-adv-x="1593" 
d="M1395 1357l88.002 103h68l-87 -524h-69c-3.33301 166.667 -40.5 292.667 -111.5 378s-163.167 128 -276.5 128c-107.333 0 -208.833 -42.833 -304.5 -128.5s-173.834 -221.5 -234.501 -407.5c-50 -154.667 -75 -299.334 -75 -434.001c0 -138 32.667 -243.5 98 -316.5
s153 -109.5 263 -109.5c62.667 0 117.667 10 165 30s89.666 51.667 126.999 95s61.666 85.666 72.999 126.999l58 213l10 30l1 15c0 17.333 -7.16699 31.5 -21.5 42.5s-36.166 16.5 -65.499 16.5h-102l18 72h542l-8 -72h-55c-54 0 -87.667 -25.333 -101 -76l-142 -539h-65
l-11 170c-74.667 -70.667 -149.667 -121.5 -225 -152.5s-156.333 -46.5 -243 -46.5c-160.667 0 -292.667 54 -396 162s-155 249.667 -155 425c0 160.667 42.667 317.834 128 471.501s194 273.334 326 359.001s267.667 128.5 407 128.5c71.333 0 135.833 -11.833 193.5 -35.5
s118.5 -65.167 182.5 -124.5zM711.002 12l52.001 -0.00292969l-38 -45c75.333 -34 113 -83.333 113 -148c0 -35.333 -10.667 -65.666 -32 -90.999c-28.667 -34.667 -72.5 -62.834 -131.5 -84.501s-142.5 -35.5 -250.5 -41.5l20 77
c85.333 4.66699 145.166 17.334 179.499 38.001s51.5 43.334 51.5 68.001c0 16 -5.33301 29.833 -16 41.5s-34.667 25.834 -72 42.501z" />
    <glyph glyph-name="gcedilla" unicode="&#x123;" horiz-adv-x="1100" 
d="M784 936c78 66 151.667 99.0029 221 99.0029c38 0 68.167 -9.33301 90.5 -28s33.5 -42 33.5 -70c0 -24 -7.33301 -43.833 -22 -59.5s-33 -23.5 -55 -23.5c-27.333 0 -50 15 -68 45c-12 19.333 -21.667 31.666 -29 36.999c-8 4.66699 -18.667 7 -32 7
c-28.667 0 -56.334 -13.333 -83.001 -40c90.667 -60.667 136 -137 136 -229c0 -93.333 -37.833 -174 -113.5 -242s-172.5 -102 -290.5 -102c-25.333 0 -60 2.66699 -104 8c-41.333 4.66699 -72.666 7 -93.999 7c-56 0 -98.833 -10 -128.5 -30s-44.5 -43.333 -44.5 -70
c0 -14.667 5 -27.834 15 -39.501s26.333 -20.167 49 -25.5c15.333 -3.33301 59.333 -6.66602 132 -9.99902c155.333 -7.33301 262.833 -20 322.5 -38s103.167 -44.333 130.5 -79s41 -75 41 -121c0 -54 -19.167 -106.5 -57.5 -157.5s-99.5 -92.833 -183.5 -125.5
s-181.333 -49 -292 -49c-96 0 -176.667 10.667 -242 32s-112.333 49.5 -141 84.5s-43 69.5 -43 103.5c0 43.333 20.5 82.333 61.5 117s110.5 68.667 208.5 102c-42 17.333 -73.5 38.666 -94.5 63.999s-31.5 55 -31.5 89c0 51.333 23 97.166 69 137.499
s109 64.166 189 71.499c-92 56 -138 129.667 -138 221c0 54.667 17.667 108.334 53 161.001s87.833 96.167 157.5 130.5s142.167 51.5 217.5 51.5c28 0 55.333 -2.33301 82 -7s52.667 -12 78 -22zM632 905.003c-69.333 0 -130 -30 -182 -90s-78 -134 -78 -222
c0 -63.333 16.833 -113.166 50.5 -149.499s77.5 -54.5 131.5 -54.5c66 0 124 29.667 174 89s75 136.666 75 231.999c0 60 -16 107.5 -48 142.5s-73 52.5 -123 52.5zM413 18.0029c-119.333 0 -203.5 -17.833 -252.5 -53.5s-73.5 -80.5 -73.5 -134.5
c0 -48.667 22.5 -88.667 67.5 -120s119.167 -47 222.5 -47c132.667 0 231.667 24.333 297 73c50.667 37.333 76 81.333 76 132c0 42 -24.5 77.5 -73.5 106.5s-136.833 43.5 -263.5 43.5zM825 1489l19.001 -39c-84.667 -42.667 -127 -80 -127 -112
c0 -9.33301 8 -14.666 24 -15.999c50 -3.33301 75 -26 75 -68c0 -24.667 -9.33301 -44.834 -28 -60.501s-41.667 -23.5 -69 -23.5c-30.667 0 -55.667 9.5 -75 28.5s-29 42.5 -29 70.5c0 43.333 19.167 85.833 57.5 127.5s89.166 72.5 152.499 92.5z" />
    <glyph glyph-name="Hcircumflex" unicode="&#x124;" horiz-adv-x="1706" 
d="M376 1479l633.998 -0.00390625l-16 -75h-88c-40.667 0 -70.5 -7.16699 -89.5 -21.5s-33.5 -40.166 -43.5 -77.499l-134 -491h651l135 503c2.66699 10 4 19.667 4 29c0 17.333 -8.83301 31.333 -26.5 42s-50.167 16 -97.5 16h-92l19 75h632l-13 -75h-80
c-39.333 0 -68.833 -7.16699 -88.5 -21.5s-34.167 -38.166 -43.5 -71.499l-305 -1141c-3.33301 -12 -5 -23.667 -5 -35c0 -19.333 8.16699 -34.166 24.5 -44.499s47.833 -15.5 94.5 -15.5h71l-17 -75h-615l19 75h73c42 0 73.5 7.33301 94.5 22s36.167 39 45.5 73l146 549
h-649l-151 -556c-3.33301 -12.667 -5 -22 -5 -28c0 -17.333 8.66699 -31.666 26 -42.999s49.333 -17 96 -17h103l-17 -75h-623l20 75h48c74.667 0 118.334 23.667 131.001 71l310 1150c6 22 9 38.333 9 49c0 18.667 -8.16699 33.167 -24.5 43.5s-46.166 15.5 -89.499 15.5
h-90zM1156 1945h95l203 -329h-35l-230 182l-297 -182h-45z" />
    <glyph glyph-name="hcircumflex" unicode="&#x125;" horiz-adv-x="1251" 
d="M678 1498l-239.997 -827.996c137.333 196.667 272.333 295 405 295c60 0 108.333 -18.167 145 -54.5s55 -85.5 55 -147.5c0 -53.333 -10.333 -112.333 -31 -177l-126 -394c-8.66699 -26.667 -13 -51.667 -13 -75c0 -14.667 3.83301 -26.167 11.5 -34.5
s17.5 -12.5 29.5 -12.5c27.333 0 56.666 16.333 87.999 49c49.333 52 94 124.333 134 217l59 -19c-42 -109.333 -94.167 -192.5 -156.5 -249.5s-120.833 -85.5 -175.5 -85.5c-43.333 0 -77.666 14.5 -102.999 43.5s-38 70.833 -38 125.5c0 26.667 5 55.667 15 87l126 398
c10.667 35.333 16 70.666 16 105.999c0 38.667 -9.33301 68.5 -28 89.5s-42.334 31.5 -71.001 31.5c-36 0 -77.333 -16 -124 -48c-70.667 -49.333 -135.334 -118.833 -194.001 -208.5s-100.334 -179.834 -125.001 -270.501l-91 -336l-168 -10l381 1326
c3.33301 11.333 5 22.666 5 33.999c0 17.333 -8.5 30.666 -25.5 39.999s-50.833 14 -101.5 14h-58l21 75zM898.003 1902h95l203 -329h-35l-230 182l-297 -182h-45z" />
    <glyph glyph-name="Hbar" unicode="&#x126;" horiz-adv-x="1706" 
d="M736 1170h649.001l40 147c3.33301 13.333 5 23.333 5 30c0 38.667 -41.667 58 -125 58h-92l19 74h632l-13 -74h-80c-71.333 0 -115.333 -31.333 -132 -94l-38 -141h191l-25 -91h-190l-243 -909c-3.33301 -12 -5 -23 -5 -33c0 -41.333 39.667 -62 119 -62h71l-17 -75h-615
l19 75h73c27.333 0 54.666 5 81.999 15s46.666 36.667 57.999 80l146 549h-650l-150 -556c-3.33301 -12.667 -5 -22 -5 -28c0 -40 40.667 -60 122 -60h103l-17 -75h-623l20 75h48c74.667 0 118.334 23.667 131.001 71l251 933h-213l25 91h213l34 126c6 22 9 38 9 48
c0 40.667 -38 61 -114 61h-90l17 74h634l-16 -74h-88c-41.333 0 -71.5 -7.5 -90.5 -22.5s-33.5 -40.833 -43.5 -77.5zM711.001 1079l-72 -265h651l71 265h-650z" />
    <glyph glyph-name="hbar" unicode="&#x127;" horiz-adv-x="1251" 
d="M576 1147l-137.997 -476.998c137.333 196.667 272.333 295 405 295c60 0 108.333 -18.167 145 -54.5s55 -85.5 55 -147.5c0 -53.333 -10.333 -112.333 -31 -177l-126 -394c-8.66699 -26.667 -13 -51.667 -13 -75c0 -14.667 3.83301 -26.167 11.5 -34.5
s17.5 -12.5 29.5 -12.5c27.333 0 56.666 16.333 87.999 49c49.333 52 94 124.333 134 217l59 -19c-42 -109.333 -94.167 -192.5 -156.5 -249.5s-120.833 -85.5 -175.5 -85.5c-43.333 0 -77.666 14.5 -102.999 43.5s-38 70.833 -38 125.5c0 26.667 5 55.667 15 87l126 398
c10.667 35.333 16 70.666 16 105.999c0 38.667 -9.33301 68.5 -28 89.5s-42.334 31.5 -71.001 31.5c-36 0 -77.333 -16 -124 -48c-70.667 -49.333 -135.334 -118.833 -194.001 -208.5s-100.334 -179.834 -125.001 -270.501l-91 -336l-168 -10l332 1157h-207l20 71h207l29 98
c4 15.333 6 27 6 35c0 35.333 -42.667 53 -128 53h-58l21 75l378 19l-81 -280h295l-21 -71h-295z" />
    <glyph glyph-name="Itilde" unicode="&#x128;" horiz-adv-x="834" 
d="M347 1479l668.999 -0.000976562l-15 -75h-102c-34 0 -60 -7.16699 -78 -21.5s-31.333 -38.5 -40 -72.5l-302 -1127c-2.66699 -11.333 -4 -25.666 -4 -42.999c0 -21.333 7.83301 -37.5 23.5 -48.5s43.834 -16.5 84.501 -16.5h124l-17 -75h-682l19 75h96
c78 0 124 26 138 78l307 1169c2.66699 8.66699 4 17 4 25c0 18 -7 32 -21 42s-38 15 -72 15h-148zM405.999 1668c4.66699 78 24.167 135.833 58.5 173.5s77.833 56.5 130.5 56.5c46 0 112 -16 198 -48c71.333 -27.333 123 -41 155 -41c52 0 85 29 99 87h34
c-2.66699 -72.667 -21.834 -128.5 -57.501 -167.5s-81.5 -58.5 -137.5 -58.5c-20 0 -44.167 3.33301 -72.5 10s-84.833 25 -169.5 55c-47.333 16.667 -82.666 25 -105.999 25c-54.667 0 -87 -30.667 -97 -92h-35z" />
    <glyph glyph-name="itilde" unicode="&#x129;" 
d="M527 954l-222.001 -783c-6 -20 -9 -37.333 -9 -52c0 -16.667 3.83301 -29.167 11.5 -37.5s17.834 -12.5 30.501 -12.5c24 0 52.333 15.333 85 46c54 51.333 106.333 123.333 157 216l53 -31c-48.667 -106 -106.667 -187.333 -174 -244s-128 -85 -182 -85
c-36 0 -66.667 14.167 -92 42.5s-38 65.5 -38 111.5c0 45.333 7.33301 93.333 22 144l148 511c2.66699 8.66699 4 17 4 25c0 18 -7.66699 32 -23 42c-20.667 13.333 -51.667 20 -93 20h-63l20 69zM162.999 1164c4.66699 78 24.167 135.833 58.5 173.5
s77.833 56.5 130.5 56.5c46 0 112 -16 198 -48c71.333 -27.333 123 -41 155 -41c52 0 85 29 99 87h34c-2.66699 -72.667 -21.834 -128.5 -57.501 -167.5s-81.5 -58.5 -137.5 -58.5c-20 0 -44.167 3.33301 -72.5 10s-84.833 25 -169.5 55
c-47.333 16.667 -82.666 25 -105.999 25c-54.667 0 -87 -30.667 -97 -92h-35z" />
    <glyph glyph-name="Imacron" unicode="&#x12a;" horiz-adv-x="834" 
d="M347 1479l668.999 -0.000976562l-15 -75h-102c-34 0 -60 -7.16699 -78 -21.5s-31.333 -38.5 -40 -72.5l-302 -1127c-2.66699 -11.333 -4 -25.666 -4 -42.999c0 -21.333 7.83301 -37.5 23.5 -48.5s43.834 -16.5 84.501 -16.5h124l-17 -75h-682l19 75h96
c78 0 124 26 138 78l307 1169c2.66699 8.66699 4 17 4 25c0 18 -7 32 -21 42s-38 15 -72 15h-148zM442.999 1758h608l-35 -130h-609z" />
    <glyph glyph-name="imacron" unicode="&#x12b;" 
d="M527 954l-222.001 -783c-6 -20 -9 -37.333 -9 -52c0 -16.667 3.83301 -29.167 11.5 -37.5s17.834 -12.5 30.501 -12.5c24 0 52.333 15.333 85 46c54 51.333 106.333 123.333 157 216l53 -31c-48.667 -106 -106.667 -187.333 -174 -244s-128 -85 -182 -85
c-36 0 -66.667 14.167 -92 42.5s-38 65.5 -38 111.5c0 45.333 7.33301 93.333 22 144l148 511c2.66699 8.66699 4 17 4 25c0 18 -7.66699 32 -23 42c-20.667 13.333 -51.667 20 -93 20h-63l20 69zM189.999 1254h608l-35 -130h-609z" />
    <glyph glyph-name="Ibreve" unicode="&#x12c;" horiz-adv-x="834" 
d="M347 1479l668.999 -0.000976562l-15 -75h-102c-34 0 -60 -7.16699 -78 -21.5s-31.333 -38.5 -40 -72.5l-302 -1127c-2.66699 -11.333 -4 -25.666 -4 -42.999c0 -21.333 7.83301 -37.5 23.5 -48.5s43.834 -16.5 84.501 -16.5h124l-17 -75h-682l19 75h96
c78 0 124 26 138 78l307 1169c2.66699 8.66699 4 17 4 25c0 18 -7 32 -21 42s-38 15 -72 15h-148zM551.999 1968l32.002 0.000976562c1.33301 -69.333 17.166 -120.833 47.499 -154.5s71.166 -50.5 122.499 -50.5c62 0 116.667 21 164 63
c35.333 31.333 64 78.666 86 141.999h29l1 -27c0 -89.333 -29.5 -167.5 -88.5 -234.5s-124.167 -100.5 -195.5 -100.5c-58 0 -108.167 23 -150.5 69s-63.5 101.667 -63.5 167c0 32.667 5.33301 74.667 16 126z" />
    <glyph glyph-name="ibreve" unicode="&#x12d;" 
d="M527 954l-222.001 -783c-6 -20 -9 -37.333 -9 -52c0 -16.667 3.83301 -29.167 11.5 -37.5s17.834 -12.5 30.501 -12.5c24 0 52.333 15.333 85 46c54 51.333 106.333 123.333 157 216l53 -31c-48.667 -106 -106.667 -187.333 -174 -244s-128 -85 -182 -85
c-36 0 -66.667 14.167 -92 42.5s-38 65.5 -38 111.5c0 45.333 7.33301 93.333 22 144l148 511c2.66699 8.66699 4 17 4 25c0 18 -7.66699 32 -23 42c-20.667 13.333 -51.667 20 -93 20h-63l20 69zM279.999 1464l32.002 0.000976562
c1.33301 -69.333 17.166 -120.833 47.499 -154.5s71.166 -50.5 122.499 -50.5c62 0 116.667 21 164 63c35.333 31.333 64 78.666 86 141.999h29l1 -27c0 -89.333 -29.5 -167.5 -88.5 -234.5s-124.167 -100.5 -195.5 -100.5c-58 0 -108.167 23 -150.5 69
s-63.5 101.667 -63.5 167c0 32.667 5.33301 74.667 16 126z" />
    <glyph glyph-name="Iogonek" unicode="&#x12e;" horiz-adv-x="834" 
d="M347 1479l668.999 -0.000976562l-15 -75h-102c-34 0 -60 -7.16699 -78 -21.5s-31.333 -38.5 -40 -72.5l-302 -1127c-2.66699 -11.333 -4 -25.666 -4 -42.999c0 -21.333 7.83301 -37.5 23.5 -48.5s43.834 -16.5 84.501 -16.5h124l-17 -75h-682l19 75h96
c78 0 124 26 138 78l307 1169c2.66699 8.66699 4 17 4 25c0 18 -7 32 -21 42s-38 15 -72 15h-148zM277.999 3.99902l56.998 0.00195312c-18.667 -45.333 -28 -82.333 -28 -111c0 -54.667 21.833 -101.334 65.5 -140.001s99.834 -58 168.501 -58
c36.667 0 81.667 8.66699 135 26l24 -31c-56 -34.667 -102.667 -58 -140 -70s-76.666 -18 -117.999 -18c-78.667 0 -140.667 20.167 -186 60.5s-68 90.833 -68 151.5c0 67.333 30 130.666 90 189.999z" />
    <glyph glyph-name="iogonek" unicode="&#x12f;" 
d="M506 1475c30.667 0 56.334 -10.832 77.001 -32.499s31 -48.5 31 -80.5c0 -31.333 -10.333 -57.5 -31 -78.5s-46 -31.5 -76 -31.5c-31.333 0 -57.833 10.667 -79.5 32s-32.5 47.666 -32.5 78.999c0 32 10.667 58.667 32 80s47.666 32 78.999 32zM527 954.001
l-222.001 -783c-6 -20 -9 -37.333 -9 -52c0 -16.667 3.83301 -29.167 11.5 -37.5s17.834 -12.5 30.501 -12.5c24 0 52.333 15.333 85 46c54 51.333 106.333 123.333 157 216l53 -31c-48.667 -106 -106.667 -187.333 -174 -244s-128 -85 -182 -85
c-36 0 -66.667 14.167 -92 42.5s-38 65.5 -38 111.5c0 45.333 7.33301 93.333 22 144l148 511c2.66699 8.66699 4 17 4 25c0 18 -7.66699 32 -23 42c-20.667 13.333 -51.667 20 -93 20h-63l20 69zM189.999 4.00098l56.998 0.00195312c-18.667 -45.333 -28 -82.333 -28 -111
c0 -54.667 21.833 -101.334 65.5 -140.001s99.834 -58 168.501 -58c36.667 0 81.667 8.66699 135 26l24 -31c-56 -34.667 -102.667 -58 -140 -70s-76.666 -18 -117.999 -18c-78.667 0 -140.667 20.167 -186 60.5s-68 90.833 -68 151.5c0 67.333 30 130.666 90 189.999z" />
    <glyph glyph-name="Idot" unicode="&#x130;" horiz-adv-x="834" 
d="M347 1479l668.999 -0.000976562l-15 -75h-102c-34 0 -60 -7.16699 -78 -21.5s-31.333 -38.5 -40 -72.5l-302 -1127c-2.66699 -11.333 -4 -25.666 -4 -42.999c0 -21.333 7.83301 -37.5 23.5 -48.5s43.834 -16.5 84.501 -16.5h124l-17 -75h-682l19 75h96
c78 0 124 26 138 78l307 1169c2.66699 8.66699 4 17 4 25c0 18 -7 32 -21 42s-38 15 -72 15h-148zM780.999 1884c28 0 52.001 -10.167 72.001 -30.5s30 -45.5 30 -75.5s-10 -55.167 -30 -75.5s-44.333 -30.5 -73 -30.5s-53.334 10.333 -74.001 31s-31 45.667 -31 75
s10.333 54.333 31 75s45.667 31 75 31z" />
    <glyph glyph-name="dotlessi" unicode="&#x131;" 
d="M527 954l-222.001 -783c-6 -20 -9 -37.333 -9 -52c0 -16.667 3.83301 -29.167 11.5 -37.5s17.834 -12.5 30.501 -12.5c24 0 52.333 15.333 85 46c54 51.333 106.333 123.333 157 216l53 -31c-48.667 -106 -106.667 -187.333 -174 -244s-128 -85 -182 -85
c-36 0 -66.667 14.167 -92 42.5s-38 65.5 -38 111.5c0 45.333 7.33301 93.333 22 144l148 511c2.66699 8.66699 4 17 4 25c0 18 -7.66699 32 -23 42c-20.667 13.333 -51.667 20 -93 20h-63l20 69z" />
    <glyph glyph-name="IJ" unicode="&#x132;" horiz-adv-x="2085" 
d="M347 1479l669 -0.000976562l-15 -75h-102c-62 0 -101.333 -31.333 -118 -94l-302 -1127c-2.66699 -11.333 -4 -25.666 -4 -42.999c0 -43.333 36 -65 108 -65h124l-17 -75h-682l19 75h96c78 0 124 26 138 78l307 1169c2.66699 8.66699 4 17 4 25c0 38 -31 57 -93 57h-148z
M1607 1479l638.001 0.00292969l-12 -75h-81c-59.333 0 -96 -26 -110 -78l-240 -902c-51.333 -190.667 -125.166 -314.834 -221.499 -372.501s-204.166 -86.5 -323.499 -86.5c-114 0 -205.333 28.167 -274 84.5s-103 134.166 -103 233.499
c0 83.333 21.667 154.666 65 213.999s101.666 89 174.999 89c50.667 0 90 -14.167 118 -42.5s42 -61.833 42 -100.5c0 -35.333 -11.333 -65.333 -34 -90s-53.667 -37 -93 -37c-28 0 -59 10 -93 30c-20.667 12 -36.334 18 -47.001 18c-38 0 -57 -35.667 -57 -107
c0 -58 23.833 -107.5 71.5 -148.5s113.167 -61.5 196.5 -61.5c173.333 0 287.666 103 342.999 309l256 956c2.66699 10 4 20 4 30c0 41.333 -33.667 62 -101 62h-138z" />
    <glyph glyph-name="ij" unicode="&#x133;" horiz-adv-x="1327" 
d="M506 1475c31.333 0 57.167 -11.001 77.5 -33.001s30.5 -49 30.5 -81c0 -31.333 -10.5 -57.333 -31.5 -78s-46.5 -31 -76.5 -31c-29.333 0 -55.166 10.333 -77.499 31s-33.5 47.667 -33.5 81c0 30.667 10.667 56.834 32 78.501s47.666 32.5 78.999 32.5zM1181 1475
c30.667 0 56.832 -11 78.499 -33s32.5 -48 32.5 -78c0 -30.667 -10.833 -56.834 -32.5 -78.501s-47.834 -32.5 -78.501 -32.5c-31.333 0 -57.666 10.833 -78.999 32.5s-32 47.834 -32 78.501c0 30 10.833 56 32.5 78s47.834 33 78.501 33zM526.999 953.999l-222 -783
c-6 -20.667 -9 -38.334 -9 -53.001c0 -32.667 14 -49 42 -49c30.667 0 69 25.333 115 76s88.333 112.667 127 186l53 -31c-42.667 -94.667 -97.5 -173.167 -164.5 -235.5s-130.833 -93.5 -191.5 -93.5c-34 0 -64.167 13.5 -90.5 40.5s-39.5 67.167 -39.5 120.5
c0 40 7.33301 85.667 22 137l143 492c6 20.667 9 35.334 9 44.001c0 41.333 -38.667 62 -116 62h-63l20 69zM887.999 935.999l346.997 17.999l-202 -834c-38 -159.333 -92.167 -285.833 -162.5 -379.5s-150.166 -140.5 -239.499 -140.5
c-45.333 0 -82.666 11.667 -111.999 35s-44 55.333 -44 96c0 31.333 9.66699 57.333 29 78s44 31 74 31c23.333 0 42 -7 56 -21s21 -31.667 21 -53c0 -9.33301 -0.666992 -20.333 -2 -33c-1.33301 -9.33301 -2 -15.666 -2 -18.999c0 -24.667 11 -37 33 -37
c27.333 0 55.833 32.5 85.5 97.5s63.834 176.167 102.501 333.5l161 661c3.33301 12 5 23.667 5 35c0 42 -26.667 63 -80 63h-86z" />
    <glyph glyph-name="Jcircumflex" unicode="&#x134;" horiz-adv-x="1251" 
d="M773 1479l638.999 -0.000976562l-13 -75h-81c-58.667 0 -95 -26 -109 -78l-241 -902c-43.333 -161.333 -102.666 -274.666 -177.999 -339.999c-92 -79.333 -213.667 -119 -365 -119c-120 0 -213.167 29.167 -279.5 87.5s-99.5 134.833 -99.5 229.5
c0 92.667 23.333 166.5 70 221.5s103.667 82.5 171 82.5c47.333 0 85.833 -13.667 115.5 -41s44.5 -61 44.5 -101c0 -37.333 -11.833 -68 -35.5 -92s-54.167 -36 -91.5 -36c-28 0 -59 10 -93 30c-21.333 12 -37 18 -47 18c-15.333 0 -28.833 -8.83301 -40.5 -26.5
s-17.5 -44.5 -17.5 -80.5c0 -58.667 24.333 -108.334 73 -149.001s112.667 -61 192 -61c88 0 160.833 25.833 218.5 77.5s100.167 128.834 127.5 231.501l257 956c2.66699 10 4 20 4 30c0 20.667 -7.33301 36.167 -22 46.5s-41 15.5 -79 15.5h-139zM1093 1945h95l203 -329
h-35l-230 182l-297 -182h-45z" />
    <glyph glyph-name="jcircumflex" unicode="&#x135;" horiz-adv-x="645" 
d="M387 1442h94l204 -329h-35l-231 182l-296 -182h-45zM205 936l347.001 17.998l-201 -834c-39.333 -162 -94.166 -289.667 -164.499 -383s-149.833 -140 -238.5 -140c-48 0 -86 12.5 -114 37.5s-42 56.833 -42 95.5c0 31.333 9.66699 57.5 29 78.5s44 31.5 74 31.5
c23.333 0 42 -7 56 -21s21 -31.667 21 -53c0 -9.33301 -0.666992 -20.333 -2 -33c-1.33301 -9.33301 -2 -15.666 -2 -18.999c0 -24.667 11 -37 33 -37c23.333 0 49.166 25.333 77.499 76s65.166 169 110.499 355l162 661c4 16.667 6 28.334 6 35.001c0 42 -27.333 63 -82 63
h-86z" />
    <glyph glyph-name="Kcedilla" unicode="&#x136;" horiz-adv-x="1518" 
d="M331 1479l628.001 0.00292969l-17 -75h-106c-62.667 0 -100.667 -25 -114 -75l-173 -636l674 552c37.333 31.333 56 58.333 56 81c0 23.333 -9.16699 42.166 -27.5 56.499s-46.833 21.5 -85.5 21.5h-59l17 75h596l-17 -75c-62 0 -112.333 -7.5 -151 -22.5
s-87.667 -46.833 -147 -95.5l-494 -408l343 -728c24 -50 78.333 -75 163 -75h80l-17 -75h-673l19 75h85c44 0 74.5 5.16699 91.5 15.5s25.5 23.166 25.5 38.499c0 14.667 -5.33301 33 -16 55l-265 560l-233 -191l-109 -403c-2 -6 -3 -12.333 -3 -19
c0 -16.667 6 -29.334 18 -38.001c17.333 -12 39.666 -18 66.999 -18h148l-15 -75h-654l19 75h90c61.333 0 99 25 113 75l320 1179c1.33301 6 2 12.333 2 19c0 16.667 -8 30.167 -24 40.5s-43 15.5 -81 15.5h-94zM528.001 -80.9971c100.667 0 166.167 -10.499 196.5 -31.499
s45.5 -47.167 45.5 -78.5c0 -52 -32.167 -97.5 -96.5 -136.5s-157.833 -62.833 -280.5 -71.5l20 78c60 4 107.167 15.667 141.5 35s51.5 40.666 51.5 63.999c0 26 -30.667 40.667 -92 44z" />
    </font>
</defs>
</svg>
